<svg xmlns="http://www.w3.org/2000/svg" width="129" height="45" viewBox="0 0 129 45" fill="none" color="#4A4A4A"><path d="M55.7869 11.2004H60.6098V30.4457H65.4327V6.38904H60.6098C57.9572 6.38904 55.7869 8.55414 55.7869 11.2004Z" fill="currentColor"></path><path d="M70.2556 16.0116V30.4456H75.0786V20.8229C75.0786 18.1767 72.9082 16.0116 70.2556 16.0116Z" fill="currentColor"></path><path d="M89.5473 16.0116H79.9015V30.4456H84.7244V20.8229H89.5473V25.6343C89.5473 28.2805 91.7176 30.4456 94.3702 30.4456V20.8229C94.3702 18.1767 92.1999 16.0116 89.5473 16.0116Z" fill="currentColor"></path><path d="M123.308 16.0117H118.485V11.2004C118.485 8.55414 116.314 6.38904 113.662 6.38904V25.6344H104.016V20.8231H108.839V16.0117H104.016C101.363 16.0117 99.1931 18.1768 99.1931 20.8231V25.6344C99.1931 28.2806 101.363 30.4457 104.016 30.4457H118.485V20.8231H123.308V25.6344C123.308 28.2806 125.478 30.4457 128.131 30.4457V20.8231C128.131 18.1768 125.96 16.0117 123.308 16.0117Z" fill="currentColor"></path><path d="M70.2556 6.38904V11.2004H75.0786C75.0786 8.55414 72.9082 6.38904 70.2556 6.38904Z" fill="currentColor"></path><path fill-rule="evenodd" clip-rule="evenodd" d="M36.4109 4.70504C36.4109 4.70504 38.3883 4.78924 40.4501 5.01778C35.8201 1.38522 31.4312 0.326722 27.8743 0.326722C23.0032 0.326722 19.6995 2.3114 19.4584 2.45574H19.4463L20.9896 0.0139849C20.9896 0.0139849 14.8284 -0.575404 12.646 5.93193C12.0914 4.54867 11.585 2.53994 11.585 2.53994C11.585 2.53994 8.37772 5.34254 9.88488 9.99752C6.19536 8.63831 0.926333 6.78595 0.733417 6.74986C0.4561 6.71378 0.383756 6.83406 0.383756 6.83406C0.383756 6.83406 0.299355 6.95434 0.540501 7.1468C0.974562 7.49562 9.28202 13.6181 11.1027 14.7968C10.7048 16.2162 10.7048 16.8898 11.1027 17.5634C11.6573 18.4655 11.6935 18.9466 11.6211 19.6202C11.5367 20.2938 10.8374 26.0915 10.6686 26.8011C10.6083 27.0898 10.2948 27.6672 9.95722 28.3047C9.46288 29.2549 8.88413 30.3254 8.93236 30.7825C9.01676 31.5283 10.0416 34.7278 10.9459 35.0887C11.6211 35.3292 13.285 35.8344 14.3822 35.8344C14.7801 35.8344 15.1298 35.7502 15.2865 35.5938C15.9617 35.0045 16.1547 34.8842 16.637 34.8842H16.7575C16.854 34.8842 16.9504 34.8962 17.059 34.9082C17.1795 34.9203 17.3242 34.9323 17.4689 34.9323C18.0959 34.9323 18.9399 34.812 19.5307 34.2587C19.9406 33.8497 20.4953 33.3686 21.0137 32.9236C21.5925 32.4184 22.1351 31.9493 22.3762 31.6606C22.967 30.9148 23.2805 29.8804 23.1238 28.858C23.0032 27.9077 23.5217 27.0778 24.1125 26.2599C24.86 25.2735 26.2466 23.4933 26.2466 23.4933C28.9715 25.5502 30.6716 28.6655 30.6716 32.1417C30.6716 38.2882 25.2941 43.2679 18.6505 43.2679C17.6256 43.2679 16.637 43.1477 15.6483 42.9191C18.6867 43.9776 21.2669 44.3385 23.3649 44.3385C27.8382 44.3385 30.2134 42.7146 30.2134 42.7146C30.2134 42.7146 29.3815 43.7731 28.0431 45H28.0793C35.4704 43.9776 39.0755 37.8913 39.0755 37.8913C39.0755 37.8913 38.7982 39.8639 38.4486 41.1991C48.0461 34.0061 46.7078 25.057 46.5993 24.3113C46.5993 24.2872 46.5872 24.2752 46.5872 24.2752C46.6354 24.3473 47.0333 24.8285 47.4433 25.3337C47.6965 25.6464 47.9617 25.9591 48.1546 26.2117C49.7341 9.9494 36.4109 4.70504 36.4109 4.70504ZM20.3024 31.5644C20.1818 31.6726 20.0612 31.7809 19.9527 31.8771C19.7839 32.0335 19.6151 32.1778 19.4584 32.3342C19.1449 32.6108 18.8314 32.8875 18.5782 33.1521C18.4214 33.3085 18.1079 33.3927 17.6256 33.3927H17.1916H16.9504H16.7937H16.444C17.0348 32.6108 18.7831 30.7945 19.374 30.3976C20.0853 29.9285 20.435 29.4474 20.0009 28.6174C19.5669 27.7874 18.4214 27.9919 18.4214 27.9919C18.4214 27.9919 19.0966 27.7153 19.6874 27.7153C18.9399 27.5228 17.9874 27.7153 17.5533 28.1483C17.2398 28.437 17.1675 29.2188 17.0951 30.0007C17.059 30.3856 17.0228 30.7825 16.9625 31.1073C16.7816 32.0214 16.227 32.5266 15.3709 33.3085C15.2745 33.4047 15.166 33.4889 15.0574 33.5851C14.5028 34.1023 14.1049 34.2587 13.7914 34.2587C13.1162 34.1384 12.3204 33.946 11.7779 33.7415C11.38 33.2243 10.7892 31.5283 10.6324 30.8186C10.7168 30.5419 10.9821 30.0247 11.2232 29.5797C11.3197 29.4113 11.4041 29.2429 11.4644 29.1106L11.5126 29.0264L11.5367 28.9903C11.9708 28.1603 12.224 27.6672 12.2963 27.2221C12.4531 26.5485 12.9715 22.4108 13.1645 20.6667C13.6829 21.3403 14.3822 22.4469 14.2255 23.1565C15.3709 21.5327 14.539 19.957 14.1411 19.3315C13.7914 18.706 13.3091 17.431 13.707 16.0959C14.1049 14.7487 15.5277 11.044 15.5277 11.044C15.5277 11.044 15.9979 11.8739 16.6731 11.7176C17.3483 11.5612 22.762 3.43004 22.762 3.43004C22.762 3.43004 24.233 6.62958 22.6776 8.95105C21.1102 11.2966 19.5669 11.7296 19.5669 11.7296C19.5669 11.7296 21.7372 12.1265 23.7628 10.6711C24.5947 12.6077 25.3905 14.6164 25.4267 14.8931C25.4026 14.9412 25.3423 15.0855 25.2579 15.302C24.8118 16.3485 23.7025 19.0068 23.5699 19.1992C23.4855 19.2834 22.9429 19.4398 22.545 19.5119C21.8698 19.7044 21.484 19.8247 21.3272 19.945C21.0499 20.1855 19.7839 23.6497 19.1931 25.3457C18.4817 25.5381 17.7703 25.9351 17.2519 26.729C17.5292 26.5365 18.3973 26.4162 19.0363 26.332C19.591 26.2959 21.2911 27.1981 21.7251 28.8941V28.9783C21.8095 29.6037 21.6045 30.1931 21.2911 30.6743C21.1343 30.8186 20.7123 31.2035 20.3024 31.5644ZM17.5412 31.1434C17.8186 30.7344 17.8547 30.1089 17.8789 29.736C17.8909 29.6278 17.8909 29.5436 17.903 29.4834C17.9391 29.2068 18.0235 28.7016 18.337 28.6174C18.6505 28.5332 19.3981 28.6535 19.3981 29.2068C19.3981 29.5556 19.1328 29.724 18.8434 29.9044C18.7108 29.9886 18.5782 30.0728 18.4455 30.1811C18.2647 30.3615 17.9633 30.6743 17.7583 30.8908C17.6498 31.0231 17.5654 31.1073 17.5412 31.1434ZM33.3122 23.6136C33.71 21.6049 33.7462 19.8728 33.6256 18.4414C35.169 20.4983 36.1215 22.9761 36.3988 25.5502C36.435 25.8629 36.7485 26.1757 37.074 26.5004C37.3513 26.741 37.6648 27.0537 37.6648 27.2462C37.6648 28.1483 37.5804 29.0625 37.4237 29.9646C37.3875 30.0728 37.062 30.2653 36.7967 30.4096L36.7846 30.4337L36.7605 30.4457C36.3626 30.6382 36.013 30.8427 35.9286 31.1554C35.0605 34.1865 33.2036 36.8689 30.7078 38.7693C34.3853 34.9323 36.1697 28.6174 33.3122 23.6136ZM30.8284 39.1182C33.3966 37.1455 35.3739 34.379 36.2421 31.2636C36.2782 31.1674 36.4953 31.0351 36.7002 30.9028C36.7605 30.8667 36.8208 30.8186 36.8811 30.7945C37.279 30.6021 37.6648 30.3615 37.7492 30.0488C37.906 29.1467 37.9904 28.1964 37.9904 27.2462C37.9904 26.8974 37.6407 26.5365 37.279 26.1877C37.2308 26.1275 37.1705 26.0674 37.1102 26.0073C36.9414 25.8268 36.7605 25.6223 36.7605 25.478C36.447 22.6032 35.2895 19.8728 33.5171 17.6235C32.7455 12.9685 29.6588 11.477 29.49 11.3928H29.4779C29.4779 11.3928 29.4779 11.4048 29.49 11.4048C29.6226 11.5973 31.6 14.5322 30.2014 17.9483C28.8871 21.0877 25.7522 20.9794 24.8721 20.9433C24.7635 20.9313 24.6912 20.9313 24.6671 20.9433C24.3536 20.9433 23.1238 22.519 21.5804 25.4419C21.3875 25.3577 20.5556 25.1653 19.603 25.3216C20.3144 23.349 21.3875 20.5464 21.5804 20.3058C21.6407 20.2457 22.0386 20.1254 22.3883 20.0292C22.4847 20.0051 22.5691 19.9811 22.6415 19.945C23.389 19.7525 23.7507 19.6322 23.8593 19.4759C23.9437 19.3556 24.3295 18.4534 24.7274 17.5032C25.077 17.5032 25.9934 17.419 26.0778 17.3829C26.1622 17.2987 26.9097 15.3742 26.9097 15.1336C26.9097 14.9412 25.3664 11.1041 24.7756 9.6487C25.0529 9.33596 25.3302 8.93902 25.6076 8.506C33.71 9.37204 40.0401 16.2402 40.0401 24.5639C40.0401 30.9389 36.2903 36.508 30.8284 39.1182ZM22.3642 5.81165C22.3642 5.81165 22.7138 7.38736 21.8095 8.45789C20.6641 9.76898 19.6754 9.72086 19.7116 9.72086L22.3642 5.81165ZM13.2247 28.2205L12.9113 29.7962C12.9113 29.7962 13.5382 29.712 13.5382 30.4217C13.5382 30.975 12.9113 31.7328 12.3928 31.7688C11.8743 31.8049 11.6814 31.1794 11.802 30.8186C11.9226 30.5059 13.2247 28.2205 13.2247 28.2205ZM19.2775 15.0374C20.6641 15.314 21.062 16.9379 20.3024 17.8039C19.5548 18.6339 17.6498 19.8127 16.5526 20.0893C16.3114 20.9914 14.2978 20.6065 15.0454 17.7197C15.0454 17.7197 15.3951 19.103 15.7568 18.9827C16.1064 18.8624 20.1456 12.5475 20.1456 12.5475C20.1456 12.5475 19.6392 14.2195 19.2775 15.0374ZM18.9278 15.8313L16.866 19.3435C16.866 19.3435 18.7711 18.4775 19.5186 17.3709C20.1094 16.4207 18.9278 15.8313 18.9278 15.8313ZM18.6505 1.39725C15.0936 3.52626 15.805 8.61426 15.805 8.61426C12.5616 3.6706 17.8547 1.69795 18.5782 1.4213C18.6143 1.40927 18.6385 1.39725 18.6505 1.39725ZM35.8924 3.49018C29.9964 2.38357 26.1984 2.93688 23.4734 3.95929C23.389 3.64655 23.1238 3.00905 22.8826 2.49183C22.0748 3.44207 21.2428 4.57273 20.6882 5.33052L20.6279 5.41471C19.1207 6.43712 18.4938 7.42345 18.4938 7.42345C19.3619 4.46448 21.8939 2.25126 24.9806 1.70998C25.8487 1.55361 26.8012 1.46942 27.8261 1.46942C30.551 1.51753 33.276 2.17909 35.8924 3.49018ZM37.1584 10.5027C42.7289 14.1714 45.2609 18.2369 47.0454 23.0122C46.961 17.9603 45.2609 13.6181 41.9813 10.1539L41.8969 10.0697C39.0152 7.03854 34.7711 5.60717 30.5872 6.19656C29.0077 6.38901 27.4282 6.71378 26.1984 7.09868C26.0054 7.13477 25.8005 7.18288 25.6076 7.25505H25.692C26.0054 7.231 31.7809 6.95434 37.1584 10.5027ZM40.2451 37.9995C41.0288 37.2177 41.7161 36.3757 42.3069 35.5938C45.707 30.8547 45.2368 24.3473 41.3182 20.0051C41.0047 19.6563 40.643 19.2593 40.2933 18.8985C40.4742 19.2714 45.3453 28.2205 40.2451 37.9995ZM11.0786 5.25835C10.9218 5.82368 9.59551 10.8996 14.0929 11.068C11.4041 9.44421 11.0906 5.27037 11.0906 5.23429C11.0906 5.23429 11.0906 5.24632 11.0786 5.25835ZM12.9836 13.5459C13.2609 13.0287 13.0198 12.6798 12.7907 12.4874L12.7063 12.4032C12.236 12.1626 9.26996 11.056 6.34004 10.0336C8.90824 11.7296 11.7538 13.3895 12.236 13.6181C12.5978 13.7864 12.8269 13.8225 12.9836 13.5459Z" fill="currentColor"></path><path d="M24.1969 11.7055C24.0522 11.3567 23.9075 11.0079 23.7628 10.6591C22.2798 11.7296 20.7123 11.8018 19.9889 11.7657C20.7364 11.9461 22.3762 12.1987 24.1969 11.7055Z" fill="black" fill-opacity="0.3"></path><path d="M25.8125 7.255C25.7523 7.255 25.692 7.255 25.6437 7.255C25.6317 7.255 25.6317 7.25501 25.6196 7.26703H25.704C25.704 7.26703 25.7523 7.255 25.8125 7.255Z" fill="black" fill-opacity="0.3"></path><path d="M28.3084 9.03535C27.4403 8.78275 26.536 8.61436 25.6076 8.5061C25.3303 8.93912 25.053 9.33606 24.7756 9.6488C24.9324 10.0457 25.1735 10.6231 25.4267 11.2606C26.4154 10.8155 27.4041 10.1059 28.3084 9.03535Z" fill="black" fill-opacity="0.3"></path><path d="M24.9927 19.8969C23.6061 19.8969 21.7493 20.799 21.7493 20.799L19.9166 25.2735C20.7365 25.2014 21.3996 25.3577 21.5805 25.4299C23.1238 22.507 24.3536 20.9313 24.6671 20.9313C24.7033 20.9193 24.7756 20.9193 24.8721 20.9313C25.7523 20.9674 28.8872 21.0756 30.2014 17.9362C31.5518 14.6284 29.7674 11.7897 29.5141 11.4169C31.1298 16.8417 27.4765 19.8608 24.9927 19.8969Z" fill="black" fill-opacity="0.3"></path><path d="M35.9286 31.1434C36.013 30.8307 36.3627 30.6262 36.7606 30.4337L36.7847 30.4217L36.7967 30.3977C37.062 30.2413 37.3876 30.0609 37.4237 29.9526C37.5805 29.0505 37.6649 28.1363 37.6649 27.2342C37.6649 27.0417 37.3514 26.717 37.0741 26.4884C36.7606 26.1757 36.4471 25.863 36.3989 25.5382C36.1215 22.9762 35.1811 20.4863 33.6257 18.4294C33.7463 19.8488 33.7101 21.5809 33.3122 23.6016C36.1698 28.6175 34.3853 34.9203 30.7078 38.7574C33.2037 36.8689 35.0605 34.1866 35.9286 31.1434Z" fill="black" fill-opacity="0.3"></path><path d="M39.6181 23.7218C38.1953 15.6748 29.9723 11.5731 29.49 11.3687C29.49 11.3807 29.49 11.3807 29.49 11.3927C29.7553 11.525 32.6249 12.9805 33.4568 17.3347C35.4222 19.6201 36.652 22.4829 36.9896 25.502C36.9896 25.6944 37.2669 25.9711 37.5442 26.2116C37.8939 26.5605 38.2556 26.9213 38.2556 27.2701C38.2556 28.2204 38.1712 29.1706 38.0145 30.0727C37.9301 30.3855 37.5442 30.59 37.1464 30.8185C36.9052 30.9749 36.5556 31.1673 36.5194 31.2876C35.7115 34.1263 34.0356 36.6763 31.7809 38.6008C35.5186 36.4959 38.328 32.9595 39.4734 28.7496C39.8472 27.1499 39.9195 25.4539 39.6181 23.7218Z" fill="black" fill-opacity="0.3"></path><path d="M21.701 28.9061C21.267 27.2101 19.5669 26.308 19.0123 26.3441C18.3732 26.4283 17.5051 26.5365 17.2278 26.741C17.7463 25.9471 18.4576 25.5502 19.169 25.3577C19.374 24.7804 19.6513 23.9865 19.9407 23.1926C19.2655 23.5535 16.8781 24.8165 16.6732 24.9608C16.432 25.1172 15.6001 26.765 14.9731 28.5092C14.6234 27.4025 13.8276 26.729 13.7915 26.6929C13.8276 26.8853 14.6596 30.1691 14.3823 31.1554C14.105 32.1898 12.3687 33.092 12.3687 33.092L14.9731 33.6693C14.9972 33.6453 15.0213 33.6332 15.0454 33.6092C15.1539 33.513 15.2504 33.4167 15.3589 33.3325C16.215 32.5507 16.7696 32.0455 16.9505 31.1313C17.0108 30.8066 17.059 30.4096 17.0831 30.0247C17.1554 29.2429 17.2278 28.461 17.5413 28.1724C17.9753 27.7393 18.9279 27.5469 19.6754 27.7393C19.4584 27.7393 19.2293 27.7754 19.0364 27.8235C19.7116 27.8356 20.6159 28.0882 20.5918 29.4353C20.5918 30.4698 19.4463 30.542 18.3009 31.4922C18.0597 31.6967 17.7824 31.9372 17.5172 32.1898C17.071 32.6589 16.6732 33.116 16.4441 33.4288H16.7937H16.9505H17.1916H17.6257C18.0959 33.4288 18.4094 33.3446 18.5782 33.1882C18.8314 32.9356 19.1449 32.6589 19.4584 32.3703C19.6272 32.2139 19.796 32.0696 19.9527 31.9132C20.0613 31.817 20.1818 31.7087 20.3024 31.6004C20.7123 31.2276 21.1343 30.8547 21.267 30.7103C21.5805 30.2292 21.7854 29.6398 21.701 29.0143V28.9061Z" fill="black" fill-opacity="0.3"></path></svg>