<svg xmlns="http://www.w3.org/2000/svg" fill="none" viewBox="0 0 73 23"><path fill="#242424" d="M70.173 11.686c2.095.722 2.537 2.288 2.392 3.71-.19 1.824-1.402 3.018-3.283 3.306-1.531.236-2.994.023-4.372-.691-.648-.335-.869-.95-.625-1.566.13-.327.251-.396.564-.152 1.28.995 2.734 1.36 4.334 1.01 1.173-.258 1.79-1.086 1.805-2.34.015-1.255-.548-2.015-1.721-2.35-.747-.212-1.508-.16-2.263-.167-.563-.007-.807-.205-.815-.669-.007-.463.214-.661.793-.661.761-.008 1.523-.008 2.239-.304 1.105-.464 1.653-1.536 1.424-2.767-.198-1.064-.99-1.703-2.216-1.764-1.272-.06-2.392.365-3.375 1.133-.335.258-.441.144-.563-.16-.229-.562-.054-1.178.502-1.482 1.577-.874 3.26-1.11 4.982-.578 1.386.426 2.194 1.43 2.285 2.897.092 1.451-.419 2.637-1.736 3.39l-.35.205ZM58.999 11.428c0-1.984.015-3.976-.015-5.96-.008-.448.152-.502.533-.44.663.106 1.066.516 1.066 1.185.008 4.044 0 8.088.008 12.125 0 .296-.1.372-.381.357-.731-.023-1.211-.502-1.211-1.262-.008-1.992 0-3.998 0-6.005Z"></path><path fill="#626362" d="M18.338 8.904c.64 1.095 1.288 2.19 1.927 3.284 1.075 1.84 2.14 3.687 3.207 5.526.076.13.137.266.206.396-.251.106-.366-.1-.495-.228-.457-.434-.891-.89-1.34-1.33-.32-.328-.64-.647-.945-.981a2.066 2.066 0 0 1-.32-.259c-1.021-1.064-2.087-2.067-3.123-3.124-.175-.175-.381-.335-.434-.6.205-.936.662-1.764 1.104-2.6a.173.173 0 0 1 .213-.084ZM5.283 14.666c1.714-3.018 3.435-6.043 5.15-9.06.014-.024.053-.039.075-.054.183.167.115.372.069.562-.107.457-.213.913-.35 1.361-.176.502-.244 1.034-.42 1.536-.38 1.619-.837 3.215-1.249 4.827-.06.228-.099.463-.304.623-.328.228-.716.122-1.074.19-.457.091-.93.084-1.394.152-.168.023-.358.023-.503-.137ZM16.913 22.838H6.265c.06-.259.297-.243.472-.289.533-.137 1.074-.274 1.607-.426.472-.099.945-.228 1.41-.38.182-.091.365-.197.578-.213.96-.083 1.859-.456 2.796-.653.77-.16 1.516-.434 2.3-.54.503.312.952.813 1.02 1.292.07.48.496.753.465 1.209Z"></path><path fill="#464646" d="M10.758 5.073c.769-1.36 1.53-2.73 2.3-4.09.22-.38.48-.387.708-.007.267.44.503.897.754 1.345-.48 1.285-1.096 2.516-1.637 3.77-.13.29-.214.601-.381.875-.229.137-.32-.069-.45-.175-.121-.114-.259-.259-.388-.388-.213-.182-.411-.38-.61-.57-.19-.22-.35-.448-.296-.76Z"></path><path fill="#606160" d="M16.334 5.453c.64 1.019 1.264 2.06 1.805 3.132 0 .023-.007.045-.007.068-.282.943-.793 1.787-1.135 2.706a.21.21 0 0 1-.107.092c-.35-.054-.51-.365-.739-.57-.38-.35-.739-.73-1.09-1.11a.496.496 0 0 1-.136-.236c-.076-.25-.168-.502 0-.76.084-.122.038-.251-.023-.373a.774.774 0 0 1-.076-.288c-.016-.411.076-.472.502-.35.077-.19-.068-.35-.09-.525-.047-.425.083-.517.494-.365.069-.174-.076-.319-.076-.478 0-.229-.16-.593.335-.487.038.008.076.015.069-.008a.475.475 0 0 1-.023-.144c.046-.152.038-.357.297-.304ZM5.282 14.666a23.599 23.599 0 0 0 3.009-.304c.03.137-.03.22-.168.251-.899.114-1.805.167-2.704.312.906-.152 1.82-.198 2.727-.297.167.107.122.259.084.403-.145.608-.29 1.216-.51 1.81-.115.151-.039.372-.183.516-.305.434-.8.297-1.212.365-.449.076-.929-.06-1.363.16-.213.327-.549.403-.899.456-.35.053-.594-.023-.625-.426l1.844-3.246ZM16.913 22.838c-.137-.19-.274-.372-.42-.554-.129-.175-.129-.175-.03-.426.038-.091-.053-.145-.099-.213-.29-.403-.579-.813-.876-1.216.092-.228.313-.243.503-.29.556-.143 1.112-.28 1.668-.417.175-.03.343-.091.526-.069.259.107.472.305.602.548.297.532.769.958 1.081 1.497.069.114.19.114.313.1.342.273.7.531.685 1.04h-3.953Z"></path><path fill="#565756" d="M16.336 5.453c-.403.168 0 .502-.144.738-.168-.03-.176-.304-.374-.259-.327.38.42.806-.06 1.179-.123-.076-.145-.274-.336-.274-.335.38.396.806-.068 1.178-.122-.068-.16-.25-.358-.281-.1.22-.046.44-.008.661-.335.183-.229.532-.29.814-.495-.038-.647-.517-.99-.753-.19-.213-.434-.38-.548-.661-.114-.6.259-1.05.518-1.52.091-.175.205-.312.213-.518.008-.167.076-.357.221-.433.19-.099.122-.281.19-.395.313-.51.313-1.17.785-1.604.465.692.884 1.399 1.25 2.128ZM3.439 17.905c.343.456.845.418 1.5-.107.51.183 1.029.069 1.54.023.311-.03.616-.152.936-.129.206.236-.008.44-.053.654-.054.273-.183.54-.244.813-.03.198-.053.395-.198.547-.785.084-1.554.29-2.354.282-.48 0-.967.083-1.447.152-.686.099-.747.06-.602-.624.312-.532.617-1.071.922-1.611ZM20.876 22.838l-.708-.988c-.389-.388-.686-.844-.975-1.293-.076-.121-.114-.266-.251-.357-.244-.152-.297-.38-.229-.646.244-.243.587-.205.876-.335.221-.106.45-.19.693-.09.061.037-.007.014.046.007.29-.023.183.395.503.403.274 0 .373.357.525.57.572.752 1.12 1.52 1.668 2.28.1.137.221.259.176.456l-2.324-.007Z"></path><path fill="#4A4A4A" d="M1.017 22.154c.206-.388.396-.79.67-1.14.222.152.496.038.679 0 .746-.168 1.515-.168 2.27-.259.548-.068 1.104-.258 1.675-.091.1.03.206-.274.396-.099.077.365-.175.661-.205 1.003a.73.73 0 0 1-.168.411c-.305.243-.663.053-.982.084-.648.045-1.265.205-1.905.28a9.77 9.77 0 0 1-1.333.046c-.152-.015-.304 0-.442.046-.297.107-.525.015-.655-.281ZM25.94 22.838h-1.418c-.495-.053-.647-.509-.86-.828-.678-1.004-1.463-1.931-2.133-2.942-.046-.069-.107-.13-.076-.22.213-.244.54-.213.807-.312a.782.782 0 0 1 .297-.008c.51.327 1.006.646 1.204 1.285.091.289.388.486.586.722.19.213.358.41.48.684.198.48.556.867.937 1.224.107.106.22.22.175.395Z"></path><path fill="#4F5150" d="M15.092 3.332c-.115.305-.389.548-.244.935.053.145-.251.19-.251.213-.107.517-.465.928-.58 1.43-.045.174-.114.258-.19.38-.266.456-.647.912-.563 1.512-.29.053-.381-.22-.564-.342-.107-.144-.312-.235-.251-.464.015-.524.335-.935.525-1.39.42-1.012.884-2.015 1.333-3.01.046-.107.092-.221.221-.26.213.305.427.632.564.996ZM6.667 20.535c-.38.372-.906.228-1.333.28-.708.084-1.432.168-2.148.221-.434.03-.876.069-1.302.13-.153.022-.175-.03-.19-.145.22-.532.54-1.003.83-1.49-.023.517.198.586.693.51.906-.145 1.828-.175 2.75-.259.304-.03.586-.35.914-.053.13.167.023.334 0 .502-.046.114-.092.235-.214.304ZM21.477 18.915c.35-.038.389.365.45.487.244.471.61.874.922 1.277.411.532.723 1.14 1.203 1.627.16.167.244.41.465.532h-1.318c-.731-1.011-1.455-2.03-2.209-3.018-.19-.243-.487-.403-.731-.6.175-.419.61-.251.906-.388a.33.33 0 0 1 .313.083Z"></path><path fill="#3F403F" d="M25.942 22.838c-.206-.312-.45-.6-.731-.844-.389-.35-.381-.912-.777-1.186-.313-.22-.32-.745-.808-.752-.015 0-.053-.084-.045-.122.114-.524-.267-.806-.617-.927-.267-.091-.076-.426-.35-.396.03-.288.296-.22.464-.304.213-.045.427-.114.655-.114.815 1.391 1.63 2.79 2.445 4.181.122.251.145.456-.236.464ZM1.014 22.154c.336.297.694.122 1.06.076.563-.076 1.119.069 1.706-.152.327-.122.83-.258 1.12-.205.464.076.92-.038 1.363.083.13.137.076.282.038.434-.054.167-.107.334-.236.463-1.63.008-3.26.016-4.89.016-.458-.015-.488-.175-.16-.715Z"></path><path fill="#2F302F" d="M10.76 5.073c.108.243.199.494.382.7-.092.646-.465 1.185-.709 1.77-.091.221-.266.267-.312-.052.069-.662.396-1.262.396-1.939.076-.16.16-.32.244-.479Z"></path><path fill="#303130" d="M23.715 18.201c-.175.16-.388.198-.609.205-.465-.479-.8-1.041-1.196-1.573-.076-.107-.137-.236-.023-.365.457.44.907.882 1.364 1.315.13.122.228.296.426.327.023.03.038.06.038.091Z"></path><path fill="#2F302F" d="m6.06 22.846.099-.486c.647-.259 1.333-.229 2.003-.297.099-.008.251.008.22.19l-2.124.6-.198-.007Z"></path><path fill="#606160" d="M18.336 8.904a10.96 10.96 0 0 0-1.219 2.73c-.16.03-.228-.039-.206-.206.381-.95.861-1.855 1.212-2.82l.015-.023c.122.076.152.205.198.32Z"></path><path fill="#242424" fill-rule="evenodd" d="M42.172 17.48c.503 1.162.8 1.33 2.095 1.178.035-.098-.01-.179-.05-.252a.723.723 0 0 1-.034-.068 9236.155 9236.155 0 0 1-5.697-12.634c-.206-.456-.45-.783-.998-.79-.549 0-.792.342-.99.79l-5.622 12.497a1.38 1.38 0 0 1-.056.103c-.064.11-.13.222-.089.361 1.318.137 1.585-.015 2.11-1.186.115-.26.232-.52.349-.78.186-.415.372-.83.55-1.25.091-.22.213-.296.45-.296 2.216.008 4.425.008 6.642 0 .243 0 .358.076.45.297.187.456.388.905.59 1.355.1.224.201.449.3.674Zm-7.71-3.65h6.102l-3.062-6.887-1.14 2.585c-.639 1.448-1.266 2.87-1.9 4.302ZM46.349 6.024v6.066l.002 1.758c.004 1.467.007 2.935-.01 4.407-.007.41.145.486.495.448.67-.068 1.12-.524 1.12-1.201.008-1.353.008-2.698-.007-4.044-.008-.327.076-.418.41-.418l.352.004c1.17.015 2.34.029 3.503-.02 2.963-.121 4.601-2.28 3.946-5.16-.358-1.59-1.76-2.684-3.595-2.806-1.28-.083-2.555-.07-3.832-.056-.48.005-.96.01-1.44.01-.715 0-.944.274-.944 1.012Zm1.608 2.322c-.002.221-.003.443-.003.665 0 .798 0 1.589-.008 2.387l-.001.06c-.005.141-.01.28.237.274a32.808 32.808 0 0 1 1.55 0c.953.016 1.905.032 2.853-.106.907-.137 1.66-.586 1.92-1.505.48-1.726.091-3.619-2.476-3.733a44.009 44.009 0 0 0-2.385-.03c-.454.003-.908.005-1.362 0-.267-.008-.343.068-.336.334.017.548.014 1.1.01 1.654Z" clip-rule="evenodd"></path><path fill="#565756" d="M16.915 11.435a.364.364 0 0 0 .206.206l3.153 3.193c.138.144.267.303.396.456-.182.121-.312-.016-.449-.092-.396-.197-.77-.448-1.165-.646-.153-.106-.305-.22-.495-.266-.221-.083-.473-.099-.67-.25-.656-.677-1.585-.92-2.354-1.43-.473-.312-.96-.608-1.41-.965-.175-.753.305-1.308.58-1.923.098-.228.25 0 .38 0 .45.433.899.866 1.348 1.292.16.144.32.281.48.425Z"></path><path fill="#343434" d="M21.885 16.468c.13.494.541.798.792 1.209.145.243.374.44.427.73-.145.129-.373.038-.51.205h-.305c-.51-.388-.655-1.026-1.059-1.49-.198-.228-.35-.487-.61-.67a.735.735 0 0 1-.311-.44.43.43 0 0 1 .022-.137c.183-.182.427-.258.64-.38l.914.973Z"></path><path fill="#292929" d="M20.966 15.495c-.1.289-.366.311-.602.387-.183.069-.282-.068-.38-.167-.313-.296-.625-.593-.907-.912-.069-.084-.305-.213-.023-.342.587.182 1.036.616 1.607.82l.305.214Z"></path><path fill="#565756" d="m7.583 16.893.61-2.227c-.039-.023-.046-.046-.039-.068.008-.023.023-.03.038-.03.03-.07.069-.137.1-.206.464-1.786.936-3.573 1.401-5.36l.069.062c.16.35.045.73.099 1.094.007.631-.03 1.255 0 1.886 0 1.46.015 2.911.007 4.37.008.183-.007.365-.03.548-.03.198-.145.281-.35.289-.39.015-.77.076-1.159.121-.434.061-.662-.053-.746-.479Z"></path><path fill="#343434" d="M10.118 7.484c.092.152.137.212.236-.016.244-.577.45-1.17.793-1.702l.601.509c-.015.357-.152.7-.373.98a1.163 1.163 0 0 0-.198.517c-.069.449-.373.791-.48 1.21-.06.235-.251.296-.45.356a.6.6 0 0 1-.342-.06c-.13-.046-.122-.183-.175-.282L9.7 8.99c.129-.487.197-1.019.418-1.505Z"></path><path fill="#565756" d="m17.728 19.827-2.232.608c-1.516.388-3.032.776-4.547 1.156-.206.053-.412.152-.633.053.03-.311.32-.357.526-.479.22-.129.427-.266.655-.38.244-.121.503-.22.709-.418.144-.13.274-.266.457-.342a10.09 10.09 0 0 0 1.752-.973c.655-.426 1.378-.745 2.11-1.011.57.471 1.127.965 1.203 1.786Z"></path><path fill="#343434" d="M8.392 22.245c-.312-.22-.632-.022-.952-.015-.427.008-.853.076-1.28.122a.691.691 0 0 0 .1-.403.683.683 0 0 0 .106-.403c.51-.235 1.074-.137 1.6-.258.403-.1.814.045 1.195-.122.206-.091.396-.038.58.06.03.039.053.077.068.123.038.167.038.334.015.501a7.28 7.28 0 0 1-1.432.395Z"></path><path fill="#292929" d="M9.823 21.85c-.176-.145-.084-.335-.107-.51.06-.06.03-.174.114-.212a6.772 6.772 0 0 1 1.531-.441c.084-.015.213-.008.183.152l-1.226.798-.495.213Z"></path><path fill="#3F403F" d="M10.217 9.307c.472-.244.518-.776.731-1.179.213-.402.152-.935.602-1.231-.183-.281.122-.41.183-.616l.708.707.305.403c-.054.06-.183.084-.183.16 0 .501-.495.806-.495 1.307 0 .236-.29.32-.35.57-.084.342-.077.578.258.753.206.114.404.243.587.38.06.046.106.091.152.152.145.22.274.456.046.684-.244.236-.16.95.168 1.08.738.273 1.492.509 2.262.699.312.076.617.167.921.274.107.038.298.076.145.266-.29.129-.61.045-.906.144-.175.03-.343.084-.518.076-.853-.121-1.714-.099-2.575-.19-.274-.03-.594-.06-.518-.448.1-.487-.03-.837-.457-.996-.556-.205-.602-.29-.464-.86.068-.296.099-.607.228-.873.206-.426.046-.662-.335-.829-.137-.06-.198-.213-.335-.274a.256.256 0 0 1-.16-.16Z"></path><path fill="#4F5150" d="m12.658 10.729-.1-.1c.1-.318.054-.706.282-.95a.843.843 0 0 0 .26-.547c.037-.41.342-.585.677-.722l.914.806c.176.03.236.175.305.304l.107.198c-.381.16-.884 1.056-.884 1.58 0 .115-.023.229-.03.343-.633-.13-1.097-.502-1.531-.912Z"></path><path fill="#626362" d="M18.127 8.615c-.03.586-.389 1.057-.61 1.574-.182.418-.281.89-.609 1.246.107-.684.495-1.261.762-1.885.137-.319.206-.676.457-.935Z"></path><path fill="#5A5B5A" d="M14.986 9.513a.594.594 0 0 1-.305-.304c-.114-.35-.29-.722.305-.806.099.069.198.213.13.274-.267.258-.13.555-.13.836Z"></path><path fill="#505150" d="M7.582 16.894c.35.653.944.319 1.424.311.229 0 .465-.076.701-.007.251.342.114.737.137 1.11 0 .076-.015.16-.038.235-.084.243-.228.297-.503.35-.739.137-1.493.16-2.232.327-.038.007-.076-.061-.106-.1.16-.463.38-.911.404-1.413-.061-.16.091-.266.099-.403.137-.122.03-.289.114-.41Z"></path><path fill="#5A5B5A" d="M7.474 17.296c.13.175-.045.274-.099.403-.457.243-.975.273-1.47.32-.137.014-.274-.077-.442 0-.22.106-.411.014-.518-.221.19-.084.335-.213.594-.198.557.03 1.128-.03 1.691-.084.084 0 .16-.136.244-.22Z"></path><path fill="#626362" d="M8.193 14.567v.1l-2.826.31c.922-.273 1.874-.349 2.826-.41Z"></path><path fill="#505150" d="M17.727 19.828c-.26-.676-.724-1.208-1.22-1.718-.045-.258.184-.281.328-.357.282-.144.587-.236.808-.479.152-.175.282-.403.571-.19.495.342.968.7 1.051 1.376a.556.556 0 0 0 .328.456c.22.091.267.243.06.41-.289.16-.64.107-.913.305a.47.47 0 0 1-.51.106l-.503.091Z"></path><path fill="#5B5C5B" d="M18.23 19.73a.853.853 0 0 1 .51-.107c.008.311.351.426.427.616.229.608.808.988.998 1.611-.137.281-.305.114-.365-.023-.297-.653-.953-1.064-1.189-1.756-.06-.16-.335-.144-.38-.342Z"></path><path fill="#4A4A4A" d="M13.767 8.403c-.236.304-.693.464-.571.988.015.076-.023.335-.259.312-.069-.008-.084.03-.091.076-.039.304-.061.608-.297.844-.343-.069-.58-.335-.869-.502-.259-.152-.145-.996.152-1.11.16-.06.145-.13.138-.22-.039-.525.548-.844.464-1.407-.015-.098.206.03.313 0l.502.403.518.616ZM6.975 19.12c.274-.053.518-.212.83-.152.206.038.435-.015.648-.06.358-.084.693-.236 1.074-.084.03.008.122-.137.19-.213.282-.023.237.168.198.327-.083.357-.091.722-.114 1.08a.28.28 0 0 1-.068.121c-.815.122-1.653.107-2.468.289-.206.046-.343-.099-.495-.198.03-.167.068-.334.099-.509.038-.198.144-.388.106-.6ZM19.656 19.32a.597.597 0 0 0 .038-.092c-.686-.547-.556-1.718-1.554-2.03-.054-.235.145-.266.29-.334.304-.152.609-.281.92-.403a.284.284 0 0 1 .138.015c.122.167.183.35.427.441.32.114.38.51.502.768.16.357.396.669.686.927.099.076.13.206.076.312-.274.198-.647.076-.914.304-.221-.068-.419.008-.61.091Z"></path><path fill="#3F403F" d="M6.77 20.23c.723.069 1.462 0 2.162-.212.214.35.556-.175.785.114.29.167.06.425.122.638-.015.16-.053.32-.122.471-.442.061-.914.229-1.325.137-.221-.045-.48.342-.625-.045-.282.448-.853-.107-1.143.334a1.498 1.498 0 0 1-.25-.114l.304-1.01.091-.313ZM21.171 18.915c-.038-.304-.365-.334-.518-.562a6.773 6.773 0 0 1-.61-1.163c-.045-.114-.12-.259-.235-.236-.495.114-.32-.25-.358-.463.038-.335.373-.32.571-.464.114-.046.221-.091.343-.038.13.327.563.41.624.79.404-.076.221.548.602.502-.084.38.457.494.373.905-.022.121.51.053.328.433-.229.205-.579.099-.807.304l-.313-.008Z"></path><path fill="#4A4A4A" d="m12.656 10.73 1.524.912c.815.494 1.638.988 2.453 1.482.441.266.982.372 1.302.836a.25.25 0 0 1-.213.076c-.358-.06-.693-.182-1.051-.235-.13-.016-.267-.03-.358-.152l-2.819-.852c-.106-.03-.22-.06-.335-.099a21.25 21.25 0 0 1-.64-.22c.183-.32-.099-.608-.045-.912.015-.069-.1-.388.266-.274.1.03-.068-.365-.084-.563Z"></path><path fill="#2C2D2C" d="M16.707 13.663c.343.091.7.114 1.02.297.252.273.541.41.9.22.16.06.327.114.418.281-.084.236.145.297.26.41.342.35.7.677 1.058 1.012v.099l-.305.106c-.434-.015-.594-.449-.921-.623-.145-.076-.244-.22-.366-.342-.45-.441-.487-.441-.967.015a.3.3 0 0 1-.19.091c-.313-.053-.55-.266-.778-.448-.327-.267-.533-.175-.716.152-.068.129-.16.258-.22.395-.153.266-.29.547-.541.745-.42.19-.534.129-.556-.304-.008-.13.03-.266-.008-.396.023-.509.13-.995.411-1.429.168-.023.16.137.229.22.228.282.563.297.815.031.16-.167.266-.388.457-.532Z"></path><path fill="#212121" d="M18.629 14.18c-.114.168-.313.35-.473.213-.144-.121-.555-.045-.426-.433h.198l.7.22Z"></path><path fill="#4A4A4A" d="M9.716 18.414v-1.216c0-1.718 0-3.436.007-5.162.237.008.221.22.275.365.152.426.243.874.411 1.3.06.137.107.281.145.418.304 1.133.617 2.265.876 3.413.053.175.076.365.068.547-.015.183-.16.41-.29.327-.312-.205-.456.19-.7.122a2.812 2.812 0 0 0-.792-.114Z"></path><path fill="#282828" d="M10.31 13.769c-.305-.54-.32-1.186-.594-1.733v-1.923c.114-.29-.015-.639.198-.905l.305.099.198.106c.068.639-.244 1.209-.35 1.817-.039.243-.1.471.228.555.487.182.472.6.464 1.011-.007.289-.015.57-.16.829a.332.332 0 0 1-.289.144Z"></path><path fill="#202020" d="M9.914 9.208c0 .312-.069.624-.198.905l.007-1.102.19.197Z"></path><path fill="#4A4A4A" d="M17.729 17.296c-.145.38-.549.372-.823.555-.13.084-.327.068-.396.258-.807.494-1.721.768-2.49 1.353-.397.297-.846.578-1.372.67a.17.17 0 0 1-.015-.138c.228-.357.602-.585.83-.934.1-.16.214-.304.35-.434.74-.737 1.54-1.406 2.278-2.136.533-.524 1.135-.395 1.386.304.069.175.358.244.252.502Z"></path><path fill="#2E2F2E" d="M9.714 21.242c-.1-.137 0-.266 0-.403.213-.251.525-.274.815-.373.465-.152.952-.22 1.386-.463a.198.198 0 0 1 .19.06.564.564 0 0 1 .153.373c-.167.243-.442.327-.708.41-.663-.022-1.265.183-1.828.502l-.008-.106Z"></path><path fill="#222" d="m12.25 20.436-.205-.304c.32-.342.442-.357.61-.099 0 .03-.008.069-.008.1l-.396.303Z"></path><path fill="#333" d="M14.78 13.846c-.861.288-1.745.524-2.636.714.038-.456-.175-.684-.625-.73a4.456 4.456 0 0 0-.556-.037c-.16-.008-.32 0-.442-.137.038-.327.1-.647.114-.973.016-.38-.06-.67-.418-.844-.039-.053-.092-.114-.077-.183.137-.699.198-1.414.587-2.044.107.053.228.09.305.167.167.16.388.236.182.608-.182.334-.205.783-.327 1.178-.107.357.06.532.419.616.22.053.67.122.571.357-.137.335.168.441.152.662-.038.41-.045.35.435.418.769.136 1.553.015 2.315.228Z"></path><path fill="#1F2020" d="m15.29 13.96-.007-.198c.327-.182.685-.068 1.02-.114l.396.015c-.06.274-.228.487-.426.662-.114.106-.183.372-.42.235-.235-.136-.692-.106-.563-.6Z"></path><path fill="#2E2F2E" d="m10.729 9.61-.51 2.22c-.298.008-.427-.076-.32-.418.197-.661.35-1.338.525-2.007.183-.053.145.22.305.206Z"></path><path fill="#3F403F" d="M11.048 14.887c.137.16.274.32.404.486.327.647.7 1.27 1.058 1.9a.99.99 0 0 1 .13.335c-.023.13.038.22-.213.282-.503.121-.678.6-.617 1.049.03.182.03.364-.092.524-.434.335-.883.616-1.47.502-.183-.038-.343.137-.533.068a2.386 2.386 0 0 1 .107-1.155c.06-.16.007-.205-.107-.266v-.198c.175-.152.411-.198.586-.091.427.25.58.046.64-.327.274 0 .015.441.29.342.274-.099.167-.357.114-.57-.305-1.201-.602-2.41-.907-3.61.381.083.442.448.61.729ZM14.071 17.905c.259-.122.114-.449.305-.608.35-.403.518-.935.914-1.315.244-.183.373-.449.503-.707.16-.137.327-.183.48.015.312.395.64.372.982.038.107-.099.244-.099.366-.152l.099-.099c.137-.084.312-.228.411.008.16.372.518.486.8.707.213.174.533.319.411.699-.259.243-.602.334-.914.486-.122.061-.251.084-.305.22-.213-.273-.266.092-.403.1-.107-.259-.534-.35-.366-.753.03-.076-.084-.13-.175-.068-.076.053-.16.099-.221.007-.343-.509-.564-.129-.807.107-.762.707-1.524 1.421-2.286 2.128-.13-.327.145-.54.206-.813Z"></path><path fill="#343434" d="M9.714 20.026c.26-.114.473-.342.823-.099.13.091.411-.296.7-.228.031-.235.298-.144.397-.281.069.076.175.06.251.114.061.068.107.144.122.236a.275.275 0 0 1-.076.258c-.198.403-.64.297-.952.441-.396.182-.853.25-1.28.373v-.707c.015-.038.015-.069.015-.107ZM19.353 16.49c-.084-.517-.625-.6-.914-.92-.137-.144-.38-.137-.373-.456.007-.198-.221-.007-.328-.046.518-.608.549-.6 1.105-.068.396.373.822.722 1.226 1.08l-.61.403-.106.007ZM17.621 15.175c-.144.122-.281.236-.419.358-.35.304-.693.25-.944-.1-.145-.197-.267-.212-.457-.159.518-.965.518-.965 1.409-.372l.411.273Z"></path><path fill="#363636" d="M15.292 15.981c-.251.456-.487.92-.746 1.376-.084.144-.145.068-.168-.06.099-.624.29-1.225.487-1.825.16.099.03.25.038.365.023.387.176.311.389.144Z"></path><path fill="#202020" d="M11.046 14.887c-.35-.121-.327-.555-.624-.73-.038-.129-.076-.258-.122-.387a.23.23 0 0 1 .213-.114h.503c.648.274.777.63.411 1.095l-.38.136Z"></path><path fill="#212121" d="M14.074 17.905c.22.342-.236.517-.206.806l-.305.403c-.198.129-.266-.038-.358-.152a1.097 1.097 0 0 1-.13-.343c.039-.714.138-.858.687-1.018l.312.304Z"></path><path fill="#292929" d="M13.265 18.916c.107.06.145.22.297.198a4.682 4.682 0 0 1-.906.912c-.26-.274-.411.03-.61.099l-.098-.107v-.304c-.054-.182.098-.228.205-.281.366-.167.709-.403 1.112-.517ZM11.438 14.757c.274-.517-.077-.806-.412-1.094.313-.054.595.083.9.114.304.03.395.463.22.79-.22.107-.457.175-.708.19Z"></path><path fill="#2A2A2A" d="M13.76 17.6c-.373.236-.625.54-.602 1.011a.114.114 0 0 1-.137 0c-.19-.243-.343-.509-.358-.828.198-.616.32-.692.792-.487.13.069.236.175.305.304Z"></path><path fill="#303130" d="M13.455 17.297c-.457-.137-.601.152-.7.501-.199.061-.115-.16-.199-.205-.03-.099-.068-.198-.106-.304a1.705 1.705 0 0 1-.168-.304c-.068-.16-.13-.32.008-.464.137-.144.274.046.411.046l.754.73Z"></path><path fill="#343434" d="M12.694 16.574c-.426-.083-.487.1-.335.449.038.091.061.19.091.281-.464-.547-.7-1.224-1.081-1.824-.008-.016.053-.069.084-.107.472.335.86.776 1.241 1.201ZM12.557 17.6l.198.206.304.806c-.083.236-.312.289-.502.38a1.826 1.826 0 0 0-.716.532c-.107.053-.206.076-.206-.099.046-.106.145-.22.076-.327-.266-.41.236-.752.092-1.155-.03-.076.099-.06.182-.046.252.03.503.03.572-.296Z"></path><path fill="#2E2F2E" d="M11.84 19.524c-.03-.228.092-.357.29-.456.312-.144.617-.304.922-.456h.099l.106.304c-.342.426-.937.449-1.317.806a.2.2 0 0 1-.1-.198Z"></path></svg>