<svg xmlns="http://www.w3.org/2000/svg" viewBox="0 0 82 47" fill="none"><g fill="#4A4A4A" clip-path="url(#a)"><path d="M23.259 20.445 14.012 0H9.204L.066 20.273 0 20.445h5.113l1.806-4.33h9.312l1.806 4.33h5.222Zm-8.615-8.121H8.531L11.6 5.02l3.046 7.303h-.002ZM33.052 20.456l6.604-15.785h-4.582l-4.366 10.395L26.492 4.67H21.59l6.583 15.785h4.88ZM53.856 6.18c-1.312-1.163-3.184-1.745-5.615-1.745-1.247 0-2.494.172-3.678.495-1.183.323-2.214.8-3.075 1.401l-.086.064 1.72 3.364.108-.086c.539-.432 1.205-.777 2-1.036a7.612 7.612 0 0 1 2.409-.387c1.161 0 2.022.259 2.603.754.536.474.839 1.187.86 2.07h-3.461c-2.28 0-4 .43-5.098 1.272-1.12.84-1.678 2.027-1.678 3.494 0 .927.237 1.768.709 2.5.473.733 1.161 1.315 2.044 1.727.883.411 1.937.626 3.14.626 2.15 0 3.7-.626 4.603-1.896v1.66h4.453v-8.992c0-2.328-.667-4.118-1.958-5.282V6.18Zm-3.979 10.718c-.58.345-1.247.518-1.978.518-.73 0-1.355-.173-1.786-.474-.43-.323-.625-.732-.625-1.272 0-1.142.861-1.704 2.645-1.704h2.948v1.445a2.848 2.848 0 0 1-1.206 1.487h.002Z"></path><path fill-rule="evenodd" d="M0 25.061h4.903v16.785h15.512v4.915H4.903v.007H0V25.06Z" clip-rule="evenodd"></path><path d="M36.156 32.488c-1.311-1.164-3.183-1.746-5.614-1.746-1.248 0-2.495.172-3.678.495-1.184.324-2.215.797-3.076 1.401l-.086.064 1.72 3.364.108-.086c.539-.432 1.206-.777 2-1.036a7.614 7.614 0 0 1 2.41-.387c1.16 0 2.021.259 2.602.754.537.474.84 1.187.861 2.07h-3.462c-2.28 0-4 .431-5.097 1.272-1.12.84-1.678 2.027-1.678 3.494 0 .927.236 1.768.709 2.5.472.733 1.16 1.315 2.042 1.724.88.41 1.936.627 3.14.627 2.15 0 3.7-.627 4.602-1.899v1.66h4.453v-8.991c0-2.328-.644-4.118-1.958-5.282l.002.002Zm-3.98 10.717c-.581.345-1.248.518-1.979.518-.73 0-1.355-.173-1.786-.474-.43-.323-.622-.732-.622-1.272 0-1.142.86-1.704 2.645-1.704H33.4v1.445c-.258.646-.667 1.142-1.225 1.487ZM54.706 31.755c-1.206-.668-2.54-1.013-4-1.013-1.893 0-3.42.582-4.56 1.704v-7.374h-4.731v21.671h4.537v-1.595c1.12 1.208 2.73 1.832 4.753 1.832 1.462 0 2.795-.345 4-1.013a7.15 7.15 0 0 0 2.818-2.846c.688-1.209 1.033-2.654 1.033-4.269 0-1.615-.344-3.04-1.033-4.269-.69-1.186-1.634-2.155-2.817-2.823v-.005Zm-4.776 2.932c1.12 0 2.042.388 2.753 1.144.711.755 1.075 1.79 1.075 3.063 0 1.273-.366 2.308-1.075 3.063-.708.754-1.633 1.142-2.753 1.142-1.119 0-2.044-.388-2.753-1.142-.71-.755-1.075-1.79-1.075-3.063 0-1.272.367-2.308 1.075-3.063.709-.754 1.634-1.144 2.753-1.144ZM73.547 39.195a4.724 4.724 0 0 0-2.15-1.337 28.717 28.717 0 0 0-3.12-.69c-1.12-.173-1.959-.345-2.453-.54-.473-.172-.709-.474-.709-.905 0-.387.214-.69.667-.927.453-.26 1.161-.387 2.108-.387 1.592 0 3.076.387 4.41 1.141l.107.065L74 32.187l-.086-.064c-.709-.432-1.634-.777-2.73-1.014a15.578 15.578 0 0 0-3.29-.367c-1.484 0-2.796.217-3.893.646-1.097.431-1.956 1.036-2.536 1.81a4.401 4.401 0 0 0-.881 2.695c0 1.209.322 2.136.947 2.804a5.108 5.108 0 0 0 2.194 1.359c.817.259 1.892.474 3.162.668 1.053.129 1.85.301 2.367.474.472.172.708.453.708.84 0 .864-.925 1.295-2.73 1.295-.926 0-1.893-.128-2.84-.41-.967-.28-1.806-.625-2.473-1.077l-.108-.064-1.592 3.45.086.064c.731.496 1.742.905 2.968 1.208 1.225.323 2.517.474 3.806.474 1.528 0 2.861-.217 3.978-.626 1.117-.41 1.978-1.014 2.581-1.79.58-.777.881-1.66.881-2.654-.042-1.142-.367-2.069-.967-2.717l-.004.004ZM82 42.039h-4.731v4.744H82V42.04Z"></path></g><defs><clipPath id="a"><path fill="#fff" d="M0 0h82v47H0z"></path></clipPath></defs></svg>