<svg xmlns="http://www.w3.org/2000/svg" viewBox="0 0 88 24" fill="none"><g clip-path="url(#clip0_2371_2540)"><path d="M8.53619 24C10.4539 24 12.2172 23.3589 13.6394 22.2694V20.988C12.3717 22.1091 10.6706 22.8463 8.69143 22.8463C4.39189 22.8463 1.14502 19.482 1.11347 15.2203C1.08276 10.926 4.26819 7.59429 8.44404 7.59429C10.5469 7.59429 12.248 8.23457 13.5464 9.45257L14.0727 8.39486C12.5883 7.11343 10.6706 6.44057 8.44404 6.44057C3.68042 6.44057 -0.0305277 10.2857 0.000189314 15.2203C0.00171351 16.3756 0.223752 17.5192 0.653612 18.5858C1.08347 19.6524 1.71272 20.6211 2.5054 21.4365C3.29807 22.2519 4.23862 22.898 5.27328 23.3378C6.30794 23.7777 7.41725 24.0027 8.53619 24ZM8.75287 21.2443C10.5461 21.2443 12.248 20.5071 13.6086 19.29V17.88C12.2172 19.3217 10.6083 20.0914 8.87657 20.0914C6.00079 20.0914 3.89709 17.976 3.89709 15.1886C3.89709 12.4329 5.87709 10.35 8.47476 10.35C9.95913 10.35 11.4435 10.9903 12.3717 12.0163L12.8665 10.9586C11.7532 9.83743 10.1135 9.19629 8.47476 9.19629C5.25777 9.19629 2.78381 11.7917 2.78381 15.1877C2.78381 18.6489 5.41302 21.2443 8.75287 21.2443ZM37.6086 20.988L37.3612 19.8343H29.3822V0.672857L28.2681 0.960857V20.988H37.6086ZM38.1963 23.808L37.9489 22.6543H26.4749V1.44171L25.3616 1.76229V23.808H38.1963ZM47.0105 24C48.5264 24 50.1967 23.5834 51.4951 22.7829V21.5006C50.2889 22.3337 48.6194 22.8463 47.042 22.8463C42.9907 22.8463 39.9588 19.5463 39.9588 15.3489C39.9588 10.9586 43.1135 7.56171 47.4745 7.56171C48.8045 7.56171 50.1345 7.88229 51.4951 8.556V7.27286C50.1652 6.72771 48.8053 6.43971 47.4438 6.43971C42.588 6.43971 38.8455 10.3483 38.8455 15.348C38.8455 20.1857 42.3714 24 47.0105 24ZM54.1858 23.808V6.53657L53.0742 6.85714V23.2311L54.1858 23.808ZM47.1956 21.276C48.8352 21.276 50.4441 20.6031 51.4644 19.8017V10.2531C50.3511 9.54857 48.9282 9.16457 47.5675 9.16457C44.1347 9.16457 41.6914 11.6957 41.6914 15.1886C41.6914 18.7131 44.011 21.276 47.1956 21.276ZM47.3201 20.1231C44.6295 20.1231 42.8039 18.072 42.8039 15.1886C42.8039 12.2726 44.7216 10.2857 47.536 10.2857C48.5878 10.2857 49.516 10.5429 50.3503 10.9903V19.2574C49.516 19.8026 48.4027 20.1231 47.3201 20.1231ZM64.3307 24C69.3409 24 72.9281 20.2191 72.9281 15.1243C72.9281 10.254 69.3409 6.44057 64.7009 6.44057C63.4955 6.44057 62.4437 6.66514 61.4234 7.11343V0L60.3101 0.320571V8.81143C61.5163 8.10686 62.97 7.56171 64.6088 7.56171C68.7224 7.56171 71.8148 10.8617 71.8148 15.1243C71.8148 19.5463 68.7531 22.8471 64.3307 22.8471C63.0314 22.8471 61.6708 22.5583 60.2794 21.9171V23.1343C61.6085 23.712 63.0314 24 64.3307 24ZM57.5265 23.808L58.6389 23.4231V0.801429L57.5265 1.12114V23.808ZM64.207 21.276C67.6398 21.276 70.0831 18.7774 70.0831 15.2203C70.0831 11.6957 67.7012 9.16457 64.4544 9.16457C62.877 9.16457 61.3611 9.77314 60.3101 10.5103V20.3143C61.4225 20.8911 62.8463 21.2751 64.207 21.2751V21.276ZM64.207 20.1231C63.2166 20.1231 62.2892 19.8986 61.4234 19.5463V11.0863C62.227 10.6063 63.3095 10.2857 64.3614 10.2857C67.0828 10.2857 68.9689 12.3369 68.9689 15.2203C68.9689 18.1363 67.0213 20.1231 64.207 20.1231ZM81.4027 21.2117C83.2889 21.2117 84.5881 20.1866 84.5881 18.7131C84.5881 16.8866 82.6397 16.278 80.8772 15.7971C78.5261 15.1243 76.2065 14.3871 76.2065 11.6957C76.2065 9.10029 78.1865 7.56171 81.4948 7.56171C82.98 7.56171 84.5267 7.91486 86.104 8.58771V7.33714C84.6504 6.792 83.073 6.43971 81.4957 6.43971C77.7847 6.43971 75.124 8.52257 75.124 11.7266C75.124 15.2194 78.248 16.2446 80.5982 16.8857C82.9178 17.5586 83.5055 17.9434 83.5055 18.7114C83.5055 19.5454 82.7634 20.0897 81.4027 20.0897C79.7639 20.0897 77.9698 19.5129 75.4336 18.2957V19.5771C77.8769 20.6666 79.7016 21.2117 81.4027 21.2117ZM81.4027 24C85.0829 24 87.5569 21.7886 87.5569 18.4886C87.5569 14.772 84.403 13.8746 82.0527 13.2343C79.7323 12.5931 79.1446 12.144 79.1446 11.4069C79.1446 10.6063 79.856 10.1254 81.2483 10.1254C82.7941 10.0937 84.5267 10.7023 86.0725 11.5037V10.3174C84.5574 9.58029 82.8256 9.10029 81.3097 9.10029C79.2998 9.132 78.0313 9.99771 78.0313 11.5346C78.0313 13.266 80.0104 13.842 81.7422 14.2911C84.124 14.8997 86.4436 15.6686 86.4436 18.4886C86.4436 21.1483 84.4951 22.8463 81.4027 22.8463C79.392 22.8463 77.5058 22.398 75.4029 21.3086V22.5583C77.3821 23.4874 79.3612 24 81.4027 24Z" fill="#242424"></path><path d="M19.2988 16.8862C20.6595 16.8862 21.7113 15.8294 21.7113 14.4194C21.7113 13.0094 20.6595 11.9199 19.2988 11.9199C17.9688 11.9199 16.917 13.0085 16.917 14.4194C16.917 15.8294 17.9688 16.8862 19.2988 16.8862Z" fill="#242424"></path></g><defs><clipPath id="clip0_2371_2540"><rect width="88" height="24" fill="white"></rect></clipPath></defs></svg>