<svg xmlns="http://www.w3.org/2000/svg" width="93" height="39" viewBox="0 0 93 39" fill="none" color="#4A4A4A"><g clip-path="url(#clip0_9109_23210)"><path fill-rule="evenodd" clip-rule="evenodd" d="M57.6888 0.342383C56.8975 1.13369 57.5129 2.67115 58.6227 2.67115C59.8797 2.67115 60.488 1.26914 59.5827 0.449316C59.0742 -0.0116846 58.0951 -0.0663393 57.6888 0.342383ZM0.13501 19.5428V38.7908H27.9376V29.2856H18.6701V19.5428H14.1646L14.1005 24.3548L14.0363 29.1668H9.28373L9.22195 14.7308L9.16016 0.294857H0.13501V19.5428ZM14.1551 2.55233V4.80981H18.6701V19.3052H27.9376V9.80002H23.185V0.294857H14.1551V2.55233ZM28.1752 5.04744V9.80002H32.6902V0.294857H28.1752V5.04744ZM82.7848 1.4331C81.3495 2.37174 81.1095 2.77808 81.877 2.98007C82.6778 3.18918 82.8727 4.23237 82.7895 7.82295C82.7182 10.9311 82.6707 11.2353 82.1765 11.7581C81.3828 12.6017 81.4659 12.6516 83.6212 12.6516C85.9262 12.6516 86.1116 12.5565 85.249 11.8151C84.6288 11.2804 84.6074 11.183 84.5266 8.23405C84.4292 4.74327 84.6573 3.68582 85.7029 2.8066C86.6867 1.97965 88.2312 1.95826 89.1628 2.76145C90.3153 3.75236 90.2891 10.6792 89.1295 11.8389C88.3905 12.5803 88.5402 12.6516 90.8309 12.6516C92.6654 12.6516 93.383 12.3807 92.4729 12.0314C91.867 11.7985 91.7624 11.164 91.6317 6.93659C91.4915 2.33847 91.3608 1.8941 89.8875 0.995863C88.4261 0.104754 86.9837 0.40179 85.3536 1.92499L84.4316 2.78759L84.5765 1.65885C84.7547 0.266341 84.5931 0.244955 82.7848 1.42835M42.1954 1.02913C42.1954 1.17171 42.4282 1.47587 42.7134 1.70875C43.4287 2.28619 43.5807 3.79989 43.5807 10.2753C43.5807 16.7507 43.4263 18.3071 42.7134 18.7824C41.5419 19.5594 42.0718 19.6616 47.5182 19.6996L52.8388 19.7377L52.9647 19.1056C53.6467 15.6908 53.2594 14.4314 52.2233 16.6913C51.4748 18.3238 50.8118 18.6279 48.1979 18.5424C45.5269 18.4545 45.5317 18.4664 45.5269 13.8373V10.3893L47.4826 10.4773C49.9088 10.5866 50.4839 10.7981 50.826 11.7034C51.3037 12.9676 51.5817 12.345 51.6055 9.96636C51.6269 7.697 51.2371 6.64193 50.8902 8.02731C50.6668 8.91842 49.8637 9.25347 47.6038 9.4008L45.5245 9.53625V6.10251C45.5245 1.74202 45.6315 1.57093 48.2216 1.81093C50.1987 1.9939 50.8118 2.33609 51.4676 3.62166C52.2542 5.16388 52.6962 4.88823 52.5227 2.96581C52.4419 2.0842 52.3374 1.22874 52.2851 1.06478C52.1615 0.667935 42.1977 0.629914 42.1977 1.02675M63.4632 1.13606C61.2912 2.30045 60.1269 5.88152 61.3506 7.62809C61.7118 8.14375 61.7 8.21028 61.1415 8.80911C59.7134 10.3418 59.616 11.7319 60.8421 13.0888L61.6691 14.0037L61.0489 14.574C59.2429 16.2374 59.4306 18.7539 61.4362 19.7757C65.1622 21.6767 70.8273 18.5424 70.0241 15.0231C69.5393 12.8987 68.6387 12.383 65.0173 12.1549C63.5083 12.0599 62.2536 11.972 62.2299 11.9601C61.3934 11.5086 61.2057 10.1398 61.871 9.32001C62.2774 8.81861 62.3392 8.80911 63.0069 9.15367C65.3428 10.3608 67.8332 9.55526 69.0498 7.19323C69.4253 6.46371 69.4467 3.45295 69.0783 3.08462C68.5793 2.5856 68.7956 2.43114 69.9932 2.43114C71.0863 2.43114 71.1814 2.38599 71.1814 1.86559C71.1814 1.34518 71.0982 1.2929 68.9833 1.14795C67.7738 1.06478 66.1959 0.941208 65.4783 0.872296C64.5396 0.784373 63.9693 0.858038 63.4584 1.13131M63.9764 1.99153C62.2798 2.97769 62.6125 7.75641 64.4303 8.51682C66.1911 9.25347 67.4672 7.94651 67.4672 5.40626C67.4672 2.6759 65.7278 0.974476 63.9764 1.99153ZM56.8832 7.84909C56.1299 8.34573 54.5568 10.2658 54.5544 10.6935C54.5497 11.1878 54.8919 11.0333 55.7402 10.1588C56.1846 9.70259 56.6979 9.32714 56.8808 9.32714C57.3133 9.32714 57.2135 9.7216 55.6951 14.0536C54.2764 18.098 54.0982 19.0604 54.6614 19.6212C55.4978 20.4577 56.8666 19.6925 58.1474 17.6727C59.0813 16.197 58.7248 15.9617 57.5296 17.264C55.5953 19.3693 55.5834 19.0462 57.4012 13.6662C58.8698 9.31763 59.0029 8.67128 58.5823 7.88473C58.2757 7.31442 57.7125 7.30254 56.8832 7.84909ZM74.5462 7.98691C69.872 9.67883 69.2613 17.7867 73.6503 19.8684C75.4587 20.7262 78.0156 20.2937 79.2988 18.9107C81.005 17.0715 80.8885 15.774 79.1586 17.3685C76.3854 19.923 72.6143 17.9151 72.6143 13.8825V12.6516H80.6937L80.6889 11.8793C80.6699 8.89941 77.5284 6.90807 74.5486 7.98691M74.1826 9.34615C73.5624 9.83329 72.8495 10.962 72.8495 11.4515C72.8495 11.6131 73.8689 11.7011 75.7011 11.7011C78.7665 11.7011 78.7593 11.7058 78.2152 10.4012C77.5997 8.92792 75.4349 8.36236 74.185 9.34377M62.3416 14.4932C60.2504 16.8909 62.0255 19.3907 65.483 18.9155C68.3084 18.5258 69.7793 16.38 68.2134 14.9281C67.2082 13.9965 63.0449 13.6876 62.3416 14.4932ZM90.0776 15.6718C88.861 16.513 88.4404 17.1665 89.1152 17.1665C89.7022 17.1665 89.9588 18.1883 89.9588 20.5242C89.9588 22.6415 89.9541 22.6629 89.4241 22.468C88.0221 21.9595 85.5294 22.2375 84.5765 23.0122C81.8319 25.2364 81.6608 30.2718 84.2581 32.4556C85.9072 33.8433 87.8914 33.7649 89.2127 32.2583L89.9137 31.4599L90.0776 32.332C90.3129 33.5914 90.3271 33.5962 91.6127 32.7716C92.7652 32.0302 93.1502 31.4243 92.4634 31.4243C91.7125 31.4243 91.6222 30.5118 91.6222 22.7793C91.6222 18.5305 91.5414 15.0089 91.444 14.9518C91.3466 14.8948 90.7311 15.218 90.0776 15.6695M57.5937 21.2918C56.4864 22.0332 56.1323 22.632 56.8 22.632C57.5391 22.632 57.6413 23.5492 57.6413 30.3074C57.6413 36.7044 57.6151 37.0965 57.166 37.6668C56.4816 38.5389 56.503 38.5531 58.5918 38.5531C60.5665 38.5531 60.8659 38.3844 59.9581 37.7808L59.4235 37.4268V28.9601C59.4235 19.4335 59.5542 19.9801 57.5937 21.2918ZM48.5472 21.451C40.7672 23.4162 39.9426 35.0053 47.3448 38.3749C48.9963 39.1258 52.2685 39.1163 53.9865 38.3512C55.2959 37.769 55.4955 37.2604 55.5002 34.4564C55.5002 33.5415 55.1105 33.2398 54.8848 33.9812C53.9936 36.9087 52.8388 37.9068 50.4839 37.7904C43.7352 37.4553 41.7439 26.1632 47.8818 23.0502C50.7049 21.6173 53.8677 22.6771 54.4309 25.2435C54.5188 25.6428 54.7422 25.9612 54.937 25.9612C55.2174 25.9612 55.2721 25.6095 55.2151 24.1267L55.1461 22.2922L53.958 21.8502C52.5679 21.3322 49.8256 21.1302 48.5472 21.4534M71.4237 22.7603C71.4237 22.9599 71.5758 23.1833 71.7612 23.2546C72.3505 23.4803 72.4598 24.0887 72.5953 27.9169L72.7283 31.6548L73.4626 32.389C74.8551 33.7792 76.9629 33.5819 78.3221 31.9328L79.0255 31.0797V32.2037C79.0255 33.4726 79.2417 33.5796 80.2065 32.793C80.5677 32.4984 81.0644 32.1372 81.3091 31.9898C81.7345 31.7356 81.7226 31.6904 81.0929 31.1011L80.4275 30.4785L80.4988 26.4364L80.5701 22.3944H79.0849C77.4809 22.3944 77.248 22.6272 78.1344 23.3449C78.6263 23.7417 78.6762 24.0079 78.7475 26.6337C78.8568 30.5997 78.2389 31.7593 76.01 31.7593C74.4297 31.7593 74.2729 31.2841 74.2729 26.5291V22.3967H72.8471C71.7255 22.3967 71.4214 22.4752 71.4214 22.7603M85.7528 23.5611C83.462 24.9988 83.5666 30.3288 85.9096 31.5407C87.3473 32.2845 88.9869 31.8591 89.5905 30.5854C90.061 29.5921 90.0895 26.0182 89.6356 24.9441C88.9346 23.2878 87.1833 22.6653 85.7528 23.5611ZM64.7725 27.6982C62.9237 28.2876 61.2057 30.911 61.2057 33.1447C61.2057 39.6082 69.9386 40.9389 71.4356 34.7035C72.5216 30.1791 68.9096 26.3794 64.7725 27.6982ZM64.4113 29.3593C62.3083 31.4623 62.8738 36.2885 65.3523 37.384C67.7619 38.4486 69.7627 36.5927 69.758 33.2968C69.7532 29.4662 66.6141 27.1541 64.4113 29.3593Z" fill="#4A4A4A"></path></g><defs><clipPath id="clip0_9109_23210"><rect width="92.73" height="38.8619" fill="white" transform="translate(0.13501 0.0690918)"></rect></clipPath></defs></svg>