<svg xmlns="http://www.w3.org/2000/svg" fill="none" viewBox="0 0 92 23"><path fill="#4A4A4A" d="M.329 23V3.956c0-.91.56-1.47 1.475-1.47h19.072v16.895c0 .638-.216 1.183-.663 1.635-.438.442-.88.884-1.322 1.32-.452.448-1.003.659-1.64.659H.329V23ZM13.703 5.149c-.072-.01-.103-.016-.134-.016H3.681c-.535 0-.828.494-.596.982.848 1.8 1.702 3.598 2.55 5.392a.87.87 0 0 0 .525.483c.39.129.704 0 .982-.277 2.134-2.134 4.267-4.267 6.407-6.4.04-.04.082-.087.154-.164ZM2.982 20.239c2.334-2.328 4.669-4.661 6.993-6.98a.125.125 0 0 0-.051-.01h-6.29c-.41 0-.647.268-.652.684-.005.427 0 .848 0 1.275v5.032Zm5.558-8.27c.01.026.02.052.036.072h2.047c.463 0 .848-.18 1.177-.508 2.062-2.061 4.124-4.117 6.186-6.179.057-.056.113-.123.2-.22h-.277c-.566 0-1.136.01-1.702 0-.53-.01-.956.174-1.332.55a3403.912 3403.912 0 0 1-6.134 6.126c-.062.062-.134.108-.206.165l.005-.005ZM75.041 2.486c-.303.643-.596 1.254-.884 1.861-.046.098-.098.195-.144.298-.154.34-.422.488-.792.488h-9.677v6.307h9.908v2.647h-9.908v6.256h11.472V23H62.464c-.951 0-1.589-.637-1.589-1.583V4.059c0-.935.633-1.568 1.574-1.568H75.03l.01-.005ZM55.337 20.332V2.512h2.669c0 .077.01.16.01.242V21.39c0 .977-.632 1.609-1.614 1.609H44.03c-.977 0-1.599-.601-1.625-1.578V2.497h2.643v17.835h10.29ZM38.734 11.44v2.642H28.8v8.903h-2.654V4.095c0-.992.617-1.609 1.605-1.609h12.541c-.03.077-.046.134-.072.185-.309.648-.617 1.29-.915 1.938-.17.365-.443.524-.838.524h-9.642v6.307h9.92-.011ZM80.548 20.353h10.624v2.642h-.273c-3.8 0-7.6-.01-11.4.005-.93 0-1.604-.735-1.604-1.604.02-6.193.01-12.392.01-18.586v-.313h2.643v17.856Z"></path></svg>