<svg xmlns="http://www.w3.org/2000/svg" viewBox="0 0 110 24" fill="none"><g clip-path="url(#clip0_2371_2529)"><path d="M45.3327 10.6599H39.2407V5.11189H36.8037V18.8879H39.2407V12.9949H45.3327V18.8879H47.7877V5.11189H45.3327V10.6599ZM56.8167 9.37889C56.0947 8.93189 55.2427 8.70889 54.2617 8.70889C53.2797 8.70889 52.4277 8.93289 51.7067 9.37889C50.9847 9.82489 50.4337 10.4439 50.0517 11.2349C49.6697 12.0259 49.4787 12.9189 49.4787 13.9139C49.4787 14.9089 49.6697 15.8019 50.0517 16.5929C50.4337 17.3839 50.9847 18.0029 51.7067 18.4489C52.4277 18.8959 53.2797 19.1189 54.2617 19.1189C55.2437 19.1189 56.0947 18.8959 56.8167 18.4489C57.5377 18.0029 58.0897 17.3839 58.4717 16.5929C58.8537 15.8019 59.0447 14.9089 59.0447 13.9139C59.0447 12.9189 58.8537 12.0259 58.4717 11.2349C58.0897 10.4439 57.5387 9.82489 56.8167 9.37889ZM56.1077 16.2579C55.7007 16.8249 55.0857 17.1089 54.2617 17.1089C53.4377 17.1089 52.8217 16.8249 52.4157 16.2569C52.0097 15.6899 51.8067 14.9079 51.8067 13.9139C51.8067 12.9189 52.0087 12.1379 52.4157 11.5699C52.8217 11.0019 53.4377 10.7179 54.2617 10.7179C55.0857 10.7179 55.7007 11.0029 56.1077 11.5699C56.5137 12.1379 56.7167 12.9189 56.7167 13.9139C56.7167 14.9089 56.5137 15.6899 56.1077 16.2579ZM62.8997 5.11189H60.6077V18.8879H62.8997V5.11189ZM71.8017 9.37889C71.0797 8.93189 70.2287 8.70889 69.2467 8.70889C68.2637 8.70889 67.4127 8.93289 66.6917 9.37889C65.9697 9.82489 65.4187 10.4439 65.0367 11.2349C64.6547 12.0259 64.4637 12.9189 64.4637 13.9139C64.4637 14.9089 64.6547 15.8019 65.0367 16.5929C65.4177 17.3839 65.9697 18.0029 66.6917 18.4489C67.4127 18.8959 68.2647 19.1189 69.2467 19.1189C70.2277 19.1189 71.0797 18.8959 71.8017 18.4489C72.5227 18.0029 73.0747 17.3839 73.4567 16.5929C73.8377 15.8019 74.0297 14.9089 74.0297 13.9139C74.0297 12.9189 73.8387 12.0259 73.4567 11.2349C73.0747 10.4439 72.5227 9.82489 71.8017 9.37889ZM71.0917 16.2579C70.6857 16.8249 70.0707 17.1089 69.2467 17.1089C68.4217 17.1089 67.8067 16.8249 67.4007 16.2569C66.9947 15.6899 66.7907 14.9079 66.7907 13.9139C66.7907 12.9189 66.9947 12.1379 67.4007 11.5699C67.8067 11.0019 68.4217 10.7179 69.2467 10.7179C70.0717 10.7179 70.6857 11.0029 71.0917 11.5699C71.4987 12.1379 71.7017 12.9189 71.7017 13.9139C71.7017 14.9089 71.4987 15.6899 71.0917 16.2579ZM80.7937 8.70889C80.1507 8.70889 79.5817 8.85189 79.0847 9.13989C78.5867 9.42589 78.1537 9.82089 77.8117 10.2969V8.93889H75.5927V18.8879H77.8847V13.0149C77.9567 12.2369 78.2147 11.6749 78.6567 11.3309C79.0997 10.9859 79.5687 10.8139 80.0667 10.8139C80.6967 10.8139 81.1577 11.0029 81.4487 11.3789C81.7397 11.7549 81.8857 12.2619 81.8857 12.8999V18.8889H84.1587V12.6129C84.1587 11.4269 83.8647 10.4789 83.2757 9.77089C82.6877 9.06389 81.8607 8.70989 80.7937 8.70989V8.70889ZM90.0327 16.5159L87.7047 8.93889H85.2497L88.8317 18.9839L88.6137 19.5579C88.4557 20.0299 88.2887 20.3459 88.1127 20.5049C87.9367 20.6639 87.6247 20.7439 87.1767 20.7439H85.6857V22.7149H87.8857C88.7227 22.7149 89.3587 22.4879 89.7947 22.0359C90.2317 21.5829 90.6067 20.9099 90.9227 20.0169L94.8147 8.93789H92.3407L90.0317 16.5149L90.0327 16.5159ZM109.154 9.77089C108.59 9.06289 107.817 8.70889 106.836 8.70889C106.145 8.70889 105.535 8.88089 105.008 9.22489C104.481 9.56989 104.047 10.0229 103.708 10.5839C103.453 9.99689 103.086 9.53789 102.607 9.20589C102.128 8.87489 101.562 8.70889 100.907 8.70889C100.253 8.70889 99.7277 8.85189 99.2617 9.13989C98.7947 9.42689 98.4097 9.81889 98.1067 10.3169V8.93889H95.8877V18.8879H98.1797V13.4159C98.1797 12.4849 98.3827 11.8189 98.7887 11.4169C99.1947 11.0149 99.6577 10.8139 100.18 10.8139C100.701 10.8139 101.116 11.0049 101.389 11.3879C101.662 11.7699 101.798 12.2739 101.798 12.8989V18.8879H104.09V13.4159C104.09 12.4849 104.296 11.8189 104.708 11.4169C105.12 11.0149 105.587 10.8139 106.108 10.8139C106.629 10.8139 107.045 11.0049 107.317 11.3879C107.591 11.7709 107.727 12.2739 107.727 12.8989V18.8879H110V12.6119C110 11.4259 109.717 10.4789 109.154 9.77089ZM27.3717 3.51689C24.6667 0.628894 20.6227 -0.597106 16.8697 0.276894C17.8147 0.764894 18.6967 1.37889 19.4947 2.10289C31.8487 2.88189 31.6707 21.3789 19.3087 21.8999C16.3457 21.9179 13.4777 20.3749 11.7377 17.8719C11.2507 17.1769 11.7157 16.1949 12.5367 16.1949H18.1867C19.0067 16.1949 19.4727 17.1769 18.9847 17.8719C18.2997 18.8469 17.4527 19.6829 16.4827 20.3369C17.3287 20.6549 18.2167 20.8279 19.1147 20.8479C24.4727 15.7679 23.9077 6.52789 17.9917 2.19589C13.6137 -1.15111 7.20368 -0.586106 3.40168 3.46489C-4.63632 12.0049 2.67168 26.1539 13.8547 23.7229C12.9097 23.2349 12.0277 22.6209 11.2297 21.8969C-1.12432 21.1169 -0.947318 2.62189 11.4157 2.09989C14.3797 2.08189 17.2467 3.62489 18.9857 6.12789C19.4737 6.82289 19.0087 7.80489 18.1877 7.80489H12.5377C11.7167 7.80489 11.2507 6.82289 11.7387 6.12789C12.4237 5.15289 13.2707 4.31689 14.2407 3.66189C13.3947 3.34389 12.5067 3.17189 11.6087 3.15189C5.31668 9.19589 7.38168 20.1619 15.3627 23.2619C16.6267 23.7509 17.9497 23.9959 19.3097 23.9969C29.4297 23.9879 34.5217 11.0529 27.3727 3.51589L27.3717 3.51689ZM18.8327 9.90189C19.9407 9.90089 20.8447 10.8569 20.8237 12.0209C20.8217 13.1709 19.9257 14.0969 18.8327 14.0969H11.8917C9.24968 13.9919 9.24668 10.0069 11.8917 9.90189H18.8327Z" fill="#242424"></path></g><defs><clipPath id="clip0_2371_2529"><rect width="110" height="24" fill="white"></rect></clipPath></defs></svg>