<svg xmlns="http://www.w3.org/2000/svg" viewBox="0 0 111 29" fill="none"><path fill="#4A4A4A" d="M9.135 0a8.504 8.504 0 0 0-3.222.65 8.432 8.432 0 0 0-2.725 1.822 8.332 8.332 0 0 0-1.813 2.715A8.262 8.262 0 0 0 .75 8.38v2.768h6.813V7.14a1.42 1.42 0 0 1 .424-1.015 1.45 1.45 0 0 1 1.025-.42h.246a1.462 1.462 0 0 1 1.025.42 1.434 1.434 0 0 1 .424 1.015V17.89c.895 0 1.78-.174 2.607-.513a6.82 6.82 0 0 0 2.21-1.46 6.737 6.737 0 0 0 1.477-2.188 6.681 6.681 0 0 0 .519-2.58V8.381a8.35 8.35 0 0 0-2.456-5.926A8.32 8.32 0 0 0 12.349.638 8.393 8.393 0 0 0 9.135 0Z"></path><path fill="#4A4A4A" d="M9.258 23.333h-.246a1.464 1.464 0 0 1-1.025-.42 1.432 1.432 0 0 1-.424-1.014V11.147c-.895 0-1.78.174-2.607.513a6.818 6.818 0 0 0-2.21 1.461 6.737 6.737 0 0 0-1.477 2.187 6.678 6.678 0 0 0-.519 2.58v2.73a8.22 8.22 0 0 0 .614 3.201 8.29 8.29 0 0 0 1.812 2.72 8.392 8.392 0 0 0 2.73 1.821 8.463 8.463 0 0 0 6.458 0 8.392 8.392 0 0 0 2.73-1.82 8.291 8.291 0 0 0 1.813-2.721 8.22 8.22 0 0 0 .613-3.201v-2.73h-6.813v4.01a1.422 1.422 0 0 1-.424 1.015 1.448 1.448 0 0 1-1.025.42ZM29.165 8.511h-2.388v11.986h7.008v-2.26h-4.62V8.511ZM41.432 12.95a3.39 3.39 0 0 0-1.258-.96 3.43 3.43 0 0 0-1.563-.29 3.954 3.954 0 0 0-1.627.337 3.916 3.916 0 0 0-1.34.974 4.793 4.793 0 0 0-1.238 3.21c0 1.184.44 2.327 1.238 3.21.371.416.828.748 1.34.974.512.226 1.067.34 1.627.336 1.212 0 2.152-.416 2.821-1.25v1.01h2.232v-8.56h-2.232v1.01Zm-.683 5.009a2.337 2.337 0 0 1-1.722.676 2.326 2.326 0 0 1-1.713-.676 2.58 2.58 0 0 1 0-3.476 2.311 2.311 0 0 1 1.713-.677 2.363 2.363 0 0 1 1.722.677 2.557 2.557 0 0 1 0 3.476ZM49.417 17.687l-2.256-5.754h-2.44l3.546 8.288c-.148.494-.44.935-.84 1.267-.419.281-.922.414-1.427.377v2.055a4.14 4.14 0 0 0 2.774-.746c.742-.555 1.339-1.443 1.79-2.665l3.154-8.575H51.33l-1.913 5.753ZM58.55 11.699a4.443 4.443 0 0 0-1.78.305 4.406 4.406 0 0 0-1.507.988 4.705 4.705 0 0 0-1.281 3.235 4.705 4.705 0 0 0 1.298 3.228c.865.856 2.013 1.284 3.443 1.284 1.661 0 2.919-.61 3.773-1.831l-1.8-1.028a2.304 2.304 0 0 1-1.938.856c-1.327 0-2.14-.536-2.44-1.61h6.524c.055-.299.084-.603.086-.907a4.493 4.493 0 0 0-1.237-3.22 4.127 4.127 0 0 0-1.428-.985 4.162 4.162 0 0 0-1.713-.315Zm-2.267 3.715c.1-.503.375-.955.779-1.276.43-.314.954-.474 1.488-.453.488-.007.964.144 1.359.428.419.32.7.785.787 1.301h-4.413ZM66.715 13.407v-1.473h-2.233v8.562h2.233v-4.092c0-.822.268-1.41.804-1.764a2.653 2.653 0 0 1 1.826-.411v-2.465a3.166 3.166 0 0 0-1.6.41 2.31 2.31 0 0 0-1.03 1.233ZM80.228 10.365V8.51h-7.94v2.26h4.914L72.16 18.61v1.887h8.164v-2.26h-5.14l5.044-7.871ZM85.597 11.699a4.443 4.443 0 0 0-1.781.305 4.406 4.406 0 0 0-1.507.988 4.704 4.704 0 0 0-1.28 3.235 4.705 4.705 0 0 0 1.297 3.228c.866.856 2.014 1.284 3.444 1.284 1.66 0 2.918-.61 3.772-1.831l-1.8-1.028a2.303 2.303 0 0 1-1.938.856c-1.326 0-2.14-.536-2.44-1.61h6.524c.056-.299.085-.603.087-.907a4.495 4.495 0 0 0-1.237-3.22 4.125 4.125 0 0 0-1.429-.985 4.162 4.162 0 0 0-1.712-.315Zm-2.267 3.715c.099-.503.375-.955.779-1.276.43-.314.954-.474 1.488-.453a2.27 2.27 0 0 1 1.359.428c.419.32.7.785.786 1.301H83.33ZM93.761 13.407v-1.473H91.53v8.562h2.232v-4.092c0-.822.268-1.41.805-1.764a2.65 2.65 0 0 1 1.825-.411v-2.465a3.165 3.165 0 0 0-1.6.41 2.308 2.308 0 0 0-1.03 1.233ZM101.482 11.697a4.563 4.563 0 0 0-2.862 1.047 4.476 4.476 0 0 0-1.544 2.603 4.446 4.446 0 0 0 .471 2.983c.501.91 1.305 1.621 2.274 2.012.971.39 2.048.437 3.049.131 1-.306 1.863-.945 2.442-1.809.579-.864.837-1.899.733-2.93a4.477 4.477 0 0 0-1.31-2.727 4.45 4.45 0 0 0-3.253-1.31Zm1.678 6.216a2.295 2.295 0 0 1-1.678.667 2.27 2.27 0 0 1-1.671-.667 2.496 2.496 0 0 1-.667-1.696c0-.627.238-1.232.667-1.695a2.27 2.27 0 0 1 1.671-.667 2.294 2.294 0 0 1 1.678.667c.433.46.675 1.066.675 1.695 0 .63-.242 1.236-.675 1.696ZM110.75 17.862h-2.716V20.5h2.716v-2.637Z"></path><path fill="#4A4A4A" d="M110.75 17.862h-2.716V20.5h2.716v-2.637Z"></path></svg>