<svg xmlns="http://www.w3.org/2000/svg" width="140" height="38" viewBox="0 0 140 38" fill="none" color="#4A4A4A"><path fill-rule="evenodd" clip-rule="evenodd" d="M12.967 0.5L22.131 14.758L12.967 20.063L3.80298 14.758L12.967 0.5ZM6.60698 14.08L12.967 4.189L19.327 14.081L12.967 17.761L6.60698 14.081V14.08Z" fill="currentColor"></path><path d="M12.959 23.197L2.32797 17.044L2.04097 17.492C0.453646 19.9623 -0.238166 22.9024 0.0810604 25.8213C0.400287 28.7402 1.71123 31.4612 3.79497 33.53C8.85197 38.557 17.057 38.557 22.123 33.53C24.2102 31.4632 25.5235 28.7418 25.8429 25.8219C26.1622 22.902 25.4681 19.961 23.877 17.492L23.59 17.044L12.959 23.197ZM58.902 28.616H46.812V9.184H50.5V25.188H58.902V28.616ZM77.443 28.616H73.754V9.184H77.443V28.616ZM92.394 28.616V9.184H98.714C99.672 9.184 100.451 9.216 101.041 9.29C102.566 9.47 103.885 10.008 104.984 10.898C106.098 11.788 106.943 12.93 107.517 14.325C108.098 15.713 108.385 17.239 108.385 18.904C108.385 20.569 108.098 22.095 107.517 23.491C106.935 24.878 106.09 26.012 104.984 26.902C103.877 27.792 102.566 28.33 101.041 28.51C100.443 28.583 99.664 28.616 98.713 28.616H92.394ZM98.714 25.164C99.672 25.164 100.377 25.114 100.828 25.025C101.614 24.8769 102.329 24.4725 102.861 23.875C103.427 23.2371 103.844 22.4816 104.082 21.663C104.353 20.789 104.492 19.867 104.492 18.896C104.492 17.924 104.353 16.962 104.074 16.088C103.803 15.215 103.394 14.48 102.836 13.885C102.311 13.2976 101.604 12.9038 100.828 12.767C100.377 12.677 99.672 12.627 98.713 12.627H96.14V25.156H98.713L98.714 25.164ZM130.541 29.024C128.615 29.024 126.943 28.608 125.508 27.768C124.082 26.918 122.984 25.735 122.213 24.201C121.451 22.675 121.074 20.904 121.074 18.896C121.074 16.888 121.451 15.117 122.213 13.591C122.984 12.065 124.082 10.881 125.508 10.041C126.934 9.192 128.615 8.776 130.541 8.776C132.467 8.776 134.139 9.2 135.574 10.041C137 10.881 138.098 12.065 138.852 13.591C139.623 15.117 140.008 16.888 140.008 18.896C140.008 20.904 139.623 22.675 138.852 24.201C138.09 25.727 137 26.919 135.574 27.768C134.147 28.608 132.467 29.024 130.541 29.024ZM130.647 25.572C131.844 25.572 132.844 25.295 133.656 24.748C134.467 24.201 135.082 23.426 135.484 22.43C135.893 21.434 136.09 20.259 136.09 18.904C136.09 16.814 135.615 15.183 134.656 14.007C133.697 12.832 132.287 12.237 130.426 12.237C129.229 12.237 128.229 12.514 127.418 13.061C126.607 13.607 125.992 14.383 125.59 15.379C125.18 16.374 124.984 17.549 124.984 18.904C124.984 20.994 125.459 22.626 126.418 23.801C127.377 24.976 128.787 25.572 130.647 25.572Z" fill="currentColor"></path></svg>