<svg width="82" height="24" viewBox="0 0 82 24" fill="none" xmlns="http://www.w3.org/2000/svg"><path d="M74.7245 3.06112H81.8052V0.5H73.6699L70.3053 3.86461V8.15826H79.2441V10.7194H70.3053V13.2805H81.8052V5.59714H72.8664V4.91919L74.7245 3.06112Z" fill="#0B0B0B"></path><path d="M56.2442 3.86461V13.2805H58.8053V4.91919L60.6634 3.06112H65.183V13.2805H67.7441V0.5H59.6088L56.2442 3.86461Z" fill="#0B0B0B"></path><path d="M14.0612 14.0839V23.4997H25.5611V20.9386H16.6223V18.3775H25.5611V10.7192H17.4258L14.0612 14.0839ZM23 13.2804V15.8415H16.5972V15.1635L18.4552 13.3055H23V13.2804Z" fill="#0B0B0B"></path><path d="M42.1833 3.86461V13.2805H53.6833V10.7194H44.7445V8.15826H53.6833V0.5H45.548L42.1833 3.86461ZM51.1222 3.06112V5.62225H44.7194V4.9443L46.5774 3.08623H51.1222V3.06112Z" fill="#0B0B0B"></path><path d="M2.56112 11.523V3.06128H0L0 23.5001H2.56112V15.1387L4.41919 13.2807H8.93882V23.5001H11.4999V10.7195H3.36461L2.56112 11.523Z" fill="#0B0B0B"></path><path d="M30.6831 0.5H26.8414L22.9998 4.34168V8.15826H25.5609V5.39627L27.896 3.06112H30.6831V0.5Z" fill="#0B0B0B"></path><path d="M42.183 18.6035L39.8479 20.9387H37.0608V23.4998H40.9025L44.7442 19.6581V15.8416H42.183V18.6035Z" fill="#0B0B0B"></path><path d="M37.0614 18.4028H39.6225V14.9377L35.9315 12L39.6225 9.06222V5.59717H37.0614V7.83187L33.8725 10.3679L30.6837 7.83187V5.59717H28.1226V9.06222L31.8136 12L28.1226 14.9377V18.4028H30.6837V16.1681L33.8725 13.6321L37.0614 16.1681V18.4028Z" fill="#0B0B0B"></path></svg>