<svg xmlns="http://www.w3.org/2000/svg" viewBox="0 0 111 29" fill="none" color="#4A4A4A"><path fill="currentColor" d="M40.874 9.927h-3.858v9.148h1.99v-7.166h.572l3.178 7.166h2.176l-4.058-9.148ZM75.608 19.075h1.99V9.927h-1.99v9.148Z"></path><path fill="currentColor" d="m48.989 9.927-4.057 9.148h2.175l3.178-7.166h.573v7.166h1.99V9.927h-3.86ZM61.747 9.927h-3.64l-4.058 9.148h2.176l1.322-2.981h4.76l1.322 2.98h2.176l-4.058-9.147Zm-3.321 4.185.977-2.203h1.048l.977 2.203h-3.002ZM71.55 9.927h-4.595v9.148h1.99v-7.166h1.31l3.178 7.166h2.175l-4.057-9.148ZM78.704 9.927v1.982h4.643v7.166h1.99v-7.166h4.644V9.927H78.704ZM93.076 9.927h-1.99v9.148h8.66v-1.983h-6.67V9.927ZM110.25 11.909V9.927h-9.398v9.148h9.398v-1.983h-7.407V15.36h6.421v-1.983h-6.421V11.91h7.407ZM6.242 10.169 1.827 7.93c-.345.676-.639 1.384-.873 2.106l4.714 1.518c.154-.474.347-.94.574-1.385ZM9.992 6.223l2.445 4.197c.357-.207.74-.365 1.137-.472l-1.265-4.686a9.48 9.48 0 0 1 .978-.209L12.509.18c-.752.12-1.5.299-2.222.533L11.8 5.328c-.481.157-.95.351-1.4.58l-2.223-4.32c-.676.344-1.33.745-1.944 1.192l2.92 3.986a9.74 9.74 0 0 1 .839-.543ZM23.113 9.7l-4.211 2.438c.207.355.366.736.474 1.132l4.703-1.263c.087.32.159.646.21.974l4.893-.776c-.12-.75-.3-1.494-.536-2.214l-4.634 1.51a9.607 9.607 0 0 0-.583-1.395l4.337-2.217a14.55 14.55 0 0 0-1.198-1.936l-4 2.912c.195.268.378.548.545.835ZM21.396 1.568c-.68-.344-1.39-.637-2.114-.87L17.76 5.396c.476.153.944.345 1.391.571l2.245-4.398ZM19.637 6.137l-2.473 4.276c.358.205.688.457.982.748l6.936-6.933a14.672 14.672 0 0 0-1.737-1.474l-2.861 3.93a9.775 9.775 0 0 0-.847-.547ZM6.414 9.685l4.291 2.466c.207-.357.46-.686.753-.979L4.501 4.26a14.632 14.632 0 0 0-1.48 1.73L6.963 8.84a9.657 9.657 0 0 0-.55.844ZM16.309 4.97l.748-4.797A14.749 14.749 0 0 0 14.807 0h-.012v9.788h.012c.414 0 .824.053 1.218.157l1.27-4.77a9.694 9.694 0 0 0-.986-.205ZM10.235 13.284l-4.788-1.27a9.492 9.492 0 0 0-.207.984L.424 12.25C.31 12.99.25 13.747.25 14.5h9.826c0-.414.054-.823.159-1.216ZM23.372 18.832l4.414 2.239c.346-.676.64-1.385.874-2.106l-4.714-1.519c-.154.475-.347.941-.574 1.386ZM19.622 22.777l-2.445-4.197c-.358.206-.74.365-1.137.471l1.265 4.686c-.322.087-.65.158-.978.21l.777 4.873c.752-.119 1.5-.298 2.222-.533l-1.512-4.616c.48-.156.949-.35 1.4-.58l2.223 4.321c.675-.345 1.33-.746 1.944-1.193l-2.921-3.986c-.269.196-.55.377-.838.544ZM6.5 19.3l4.213-2.437a4.67 4.67 0 0 1-.474-1.132l-4.704 1.263a9.493 9.493 0 0 1-.21-.974l-4.893.776c.12.75.3 1.494.536 2.214l4.634-1.51c.157.48.352.946.583 1.395l-4.337 2.217c.347.673.75 1.324 1.199 1.936l4-2.912a9.583 9.583 0 0 1-.546-.835ZM8.218 27.433c.68.343 1.39.636 2.114.869l1.522-4.697a9.612 9.612 0 0 1-1.391-.571l-2.245 4.399ZM9.977 22.864l2.473-4.276a4.754 4.754 0 0 1-.982-.748l-6.936 6.933c.538.534 1.122 1.03 1.737 1.474l2.86-3.93c.273.196.556.38.848.547ZM23.2 19.316l-4.291-2.466c-.207.357-.46.686-.753.979l6.956 6.912a14.638 14.638 0 0 0 1.481-1.73L22.65 20.16c.198-.271.382-.553.55-.844ZM13.588 19.055l-1.27 4.77a9.7 9.7 0 0 0 .987.205l-.748 4.797c.74.115 1.497.173 2.25.173h.012v-9.788h-.012c-.414 0-.824-.053-1.219-.157ZM19.537 14.5c0 .414-.053.823-.158 1.216l4.787 1.27a9.48 9.48 0 0 0 .208-.984l4.816.748c.115-.74.174-1.496.174-2.249h-9.827Z"></path></svg>