<svg xmlns="http://www.w3.org/2000/svg" fill="none" viewBox="0 0 57 31"><path fill="#4A4A4A" d="M10.859 2.957C12.629 1.09 14.979 0 17.739 0c5.376 0 8.94 3.938 9.622 9.838.221 1.916.219 4.618.217 7.746V30.28h-7.394v-8.668s-.015-7.42-.06-8.806c-.198-6.04-3.762-9.835-9.266-9.839-1.66 1.76-2.55 3.913-2.681 7.204-.018.459-.014 2.086-.008 4.23.003 1.11.007 2.36.008 3.659.005 5.65 0 12.222 0 12.222H.783V16.941c0-.458-.008-.919-.016-1.382-.017-.93-.034-1.869.016-2.798.084-1.549.351-3.071 1.071-4.485 1.649-3.24 5.027-5.327 8.629-5.327.125 0 .251.003.376.008ZM56.717 18.239c.05-.93.033-1.867.016-2.798a76.336 76.336 0 0 1-.016-1.382V.719h-7.394s-.005 6.572 0 12.222c.001 1.298.005 2.548.008 3.66.006 2.143.01 3.77-.008 4.23-.13 3.29-1.02 5.442-2.681 7.203-5.504-.004-9.067-3.8-9.266-9.839-.045-1.386-.064-4.827-.064-8.813V.712L29.924.72v12.697c-.002 3.128-.005 5.83.217 7.746.68 5.9 4.245 9.838 9.62 9.838 2.76 0 5.11-1.09 6.88-2.957.125.005.25.008.376.008 3.602 0 6.98-2.086 8.629-5.326.72-1.415.987-2.937 1.07-4.486Z"></path></svg>