<svg xmlns="http://www.w3.org/2000/svg" viewBox="0 0 174 27" fill="none"><g><path fill="#4A4A4A" d="M33.552 20.663c-.404 0-.69-.082-.858-.247-.153-.165-.23-.426-.23-.783V7.71c0-.357.083-.618.25-.783.169-.178.447-.268.838-.268h5.128c1.954 0 3.39.406 4.312 1.216.921.81 1.382 2.018 1.382 3.624 0 1.593-.461 2.794-1.382 3.604-.907.797-2.344 1.195-4.312 1.195h-1.988v3.336c0 .357-.084.618-.251.783-.168.165-.454.247-.858.247h-2.03Zm4.793-7.352c.572 0 1.012-.151 1.319-.453.32-.302.481-.756.481-1.36 0-.617-.16-1.077-.481-1.38-.307-.302-.747-.453-1.319-.453h-1.653v3.646h1.653Zm10.971 7.661c-1.311 0-2.364-.412-3.16-1.236-.781-.837-1.172-2.011-1.172-3.521 0-1.154.265-2.163.795-3.028.544-.865 1.305-1.53 2.281-1.998.991-.48 2.129-.72 3.412-.72 1.06 0 1.996.116 2.805.35.823.22 1.577.542 2.26.968v8.238c0 .26-.048.432-.146.515-.098.082-.293.123-.586.123H53.67a.822.822 0 0 1-.355-.062.624.624 0 0 1-.21-.247l-.272-.618a3.549 3.549 0 0 1-1.465.927c-.558.206-1.242.309-2.052.309Zm1.57-2.8c.545 0 .97-.131 1.277-.392.307-.261.46-.632.46-1.112v-3.213c-.264-.124-.6-.185-1.004-.185-.74 0-1.333.254-1.78.761-.432.508-.648 1.223-.648 2.142 0 1.332.565 1.998 1.695 1.998Zm8.565 2.491c-.405 0-.691-.082-.858-.247-.168-.165-.252-.426-.252-.783v-8.217c0-.247.042-.412.126-.494.097-.097.293-.145.586-.145h2.156c.167 0 .293.028.376.083.098.041.154.123.168.247l.105.618c.39-.385.9-.687 1.527-.906.643-.234 1.354-.35 2.135-.35 1.13 0 2.044.316 2.743.947.697.618 1.046 1.538 1.046 2.76v5.457c0 .357-.084.618-.251.783-.154.165-.433.247-.838.247h-2.03c-.405 0-.697-.082-.879-.247-.167-.165-.251-.426-.251-.783v-5.19c0-.412-.09-.707-.272-.885-.181-.179-.468-.268-.858-.268-.419 0-.754.11-1.005.33-.237.22-.356.521-.356.906v5.107c0 .357-.084.618-.251.783-.154.165-.433.247-.837.247h-2.03Zm17.256.309c-1.953 0-3.46-.446-4.52-1.339-1.061-.892-1.591-2.19-1.591-3.892 0-1.043.244-1.963.732-2.76.489-.796 1.193-1.414 2.114-1.853.935-.44 2.038-.66 3.307-.66.963 0 1.772.09 2.428.268.67.179 1.263.453 1.78.824.153.096.23.22.23.37 0 .11-.056.255-.168.433l-.858 1.463c-.098.192-.216.288-.356.288-.084 0-.216-.055-.398-.165a5.027 5.027 0 0 0-1.067-.515c-.321-.11-.726-.164-1.214-.164-.698 0-1.263.22-1.696.659-.418.439-.627 1.043-.627 1.812 0 .783.216 1.387.649 1.812.432.412 1.025.618 1.779.618.446 0 .85-.062 1.214-.185a6.13 6.13 0 0 0 1.109-.515c.195-.11.335-.165.419-.165.125 0 .237.096.335.288l.941 1.586c.07.138.105.247.105.33 0 .123-.084.24-.251.35a6.664 6.664 0 0 1-1.926.824c-.684.192-1.507.288-2.47.288Zm9.954 0c-1.312 0-2.365-.412-3.16-1.236-.782-.837-1.173-2.011-1.173-3.521 0-1.154.265-2.163.796-3.028.544-.865 1.304-1.53 2.281-1.998.991-.48 2.128-.72 3.412-.72 1.06 0 1.995.116 2.804.35a8.29 8.29 0 0 1 2.261.968v8.238c0 .26-.049.432-.146.515-.098.082-.294.123-.586.123h-2.136a.822.822 0 0 1-.355-.062.624.624 0 0 1-.21-.247l-.272-.618a3.547 3.547 0 0 1-1.465.927c-.558.206-1.242.309-2.051.309Zm1.57-2.8c.544 0 .97-.131 1.276-.392.307-.261.46-.632.46-1.112v-3.213c-.264-.124-.599-.185-1.004-.185-.74 0-1.332.254-1.779.761-.432.508-.649 1.223-.649 2.142 0 1.332.566 1.998 1.696 1.998Zm18.799 1.709c.098.11.147.233.147.37a.415.415 0 0 1-.126.31.512.512 0 0 1-.335.102h-3.244c-.195 0-.342-.014-.44-.041a.967.967 0 0 1-.272-.227l-2.847-3.81v3.048c0 .357-.083.618-.25.783-.168.165-.454.247-.859.247h-2.03c-.405 0-.69-.082-.858-.247-.153-.165-.23-.426-.23-.783V7.71c0-.357.083-.618.25-.783.168-.178.447-.268.838-.268h2.03c.405 0 .691.09.859.268.167.165.25.426.25.783v6.9l2.764-3.543a.678.678 0 0 1 .272-.227c.097-.04.244-.062.439-.062h3.245c.139 0 .244.042.314.124a.354.354 0 0 1 .125.288c0 .138-.049.261-.147.371l-3.579 4.037 3.684 4.284Zm6.796 1.091c-1.172 0-2.218-.192-3.139-.577-.907-.384-1.626-.96-2.156-1.73-.53-.768-.796-1.709-.796-2.821 0-1.744.503-3.076 1.508-3.995 1.004-.92 2.449-1.38 4.332-1.38 1.842 0 3.238.453 4.186 1.359.963.892 1.445 2.135 1.445 3.728 0 .686-.307 1.03-.921 1.03h-6.573c0 .59.223 1.043.67 1.359.461.315 1.152.473 2.072.473.572 0 1.047-.048 1.424-.144.391-.11.781-.268 1.172-.474.167-.068.279-.103.335-.103.125 0 .23.083.314.248l.711 1.318c.07.137.105.24.105.309 0 .123-.084.24-.251.35a5.98 5.98 0 0 1-1.947.803c-.725.165-1.556.247-2.491.247Zm1.612-6.426c0-.521-.153-.926-.46-1.215-.307-.288-.768-.432-1.382-.432-.614 0-1.081.15-1.402.453-.321.288-.482.686-.482 1.194h3.726Zm10.942 6.426c-1.172 0-2.282-.117-3.328-.35-1.047-.247-1.891-.59-2.533-1.03-.237-.15-.356-.309-.356-.473a.63.63 0 0 1 .126-.35l1.026-1.607c.111-.165.223-.247.334-.247.07 0 .189.048.356.144a7.789 7.789 0 0 0 1.758.7 7.391 7.391 0 0 0 1.947.268c.656 0 1.137-.096 1.444-.288.321-.193.482-.502.482-.927 0-.412-.175-.735-.524-.968-.335-.233-.969-.529-1.904-.886-1.41-.521-2.512-1.105-3.307-1.75-.782-.66-1.173-1.552-1.173-2.678 0-1.359.496-2.395 1.487-3.11.99-.714 2.309-1.07 3.955-1.07 1.144 0 2.121.103 2.931.308.823.193 1.521.495 2.093.907.237.178.356.343.356.494a.61.61 0 0 1-.126.33l-1.026 1.606c-.125.165-.237.247-.334.247-.07 0-.189-.048-.356-.144-.81-.522-1.773-.783-2.889-.783-.6 0-1.06.096-1.381.289-.321.192-.482.508-.482.947 0 .302.084.55.252.742.167.192.391.363.669.514.293.138.74.316 1.34.536l.398.144c1.032.398 1.842.783 2.428 1.153.6.357 1.053.803 1.36 1.339.307.522.46 1.18.46 1.977 0 1.222-.467 2.197-1.402 2.925-.921.727-2.281 1.091-4.081 1.091Zm9.931-.309c-.209 0-.37-.034-.481-.103-.112-.068-.196-.206-.252-.412l-2.7-8.897a.643.643 0 0 1-.042-.185c0-.192.14-.289.419-.289h2.762c.182 0 .314.035.398.103.085.055.14.151.168.289l1.129 4.675 1.424-3.769c.071-.165.14-.274.209-.33.084-.068.224-.102.42-.102h1.318c.195 0 .328.034.398.102.084.055.16.165.231.33l1.401 3.769 1.152-4.675c.041-.137.097-.234.167-.289.069-.068.196-.102.376-.102h2.785c.278 0 .418.096.418.288a.61.61 0 0 1-.042.185l-2.72 8.897c-.056.206-.14.344-.252.412-.098.069-.251.103-.46.103h-2.051c-.196 0-.342-.034-.44-.103-.098-.082-.181-.22-.252-.412l-1.381-3.727-1.382 3.727c-.055.192-.139.33-.251.412-.098.069-.243.103-.438.103h-2.031Zm17.006.309c-1.312 0-2.365-.412-3.161-1.236-.781-.837-1.172-2.011-1.172-3.521 0-1.154.265-2.163.796-3.028.543-.865 1.304-1.53 2.281-1.998.991-.48 2.128-.72 3.412-.72 1.06 0 1.995.116 2.804.35.824.22 1.577.542 2.261.968v8.238c0 .26-.049.432-.147.515-.098.082-.292.123-.585.123h-2.136a.82.82 0 0 1-.355-.062.616.616 0 0 1-.21-.247l-.271-.618a3.553 3.553 0 0 1-1.466.927c-.558.206-1.242.309-2.051.309Zm1.57-2.8c.543 0 .97-.131 1.277-.392.307-.261.46-.632.46-1.112v-3.213c-.266-.124-.6-.185-1.005-.185-.74 0-1.332.254-1.779.761-.432.508-.65 1.223-.65 2.142 0 1.332.567 1.998 1.697 1.998Zm8.543 6.651c-.405 0-.69-.082-.859-.247-.153-.165-.229-.425-.229-.782V11.993c.627-.44 1.416-.804 2.365-1.092a10.163 10.163 0 0 1 2.971-.432c4.215 0 6.322 1.757 6.322 5.272 0 1.593-.447 2.863-1.339 3.81-.894.947-2.156 1.421-3.789 1.421-.46 0-.907-.055-1.34-.165a3.297 3.297 0 0 1-1.046-.453v3.44c0 .357-.084.617-.252.782-.167.165-.453.247-.858.247h-1.946Zm4.542-6.631c.6 0 1.047-.22 1.339-.66.307-.452.46-1.056.46-1.812 0-.892-.18-1.517-.543-1.874-.349-.37-.893-.556-1.632-.556-.476 0-.852.062-1.131.186v3.274c0 .467.132.824.397 1.071.266.247.636.37 1.11.37Z"></path><path fill="#4A4A4A" fill-rule="evenodd" d="M13.251 26.746c-3.965-.003-7.16-.94-9.391-2.621-2.258-1.702-3.457-4.117-3.457-6.85 0-2.633 1.196-4.531 2.549-5.815 1.06-1.006 2.23-1.65 3.044-2.02a41.2 41.2 0 0 1-.62-2.037c-.275-1.006-.544-2.187-.544-3.052 0-1.025.226-2.053.838-2.853C6.317.654 7.29.202 8.461.202c.915 0 1.692.334 2.3.91.582.55.969 1.282 1.236 2.044.47 1.34.652 3.023.703 4.703h1.122c.051-1.68.234-3.363.704-4.703.267-.762.654-1.493 1.235-2.044a3.265 3.265 0 0 1 2.3-.91c1.171 0 2.145.452 2.791 1.296.612.8.839 1.828.839 2.853 0 .865-.27 2.046-.545 3.052-.206.752-.436 1.48-.62 2.037.815.37 1.985 1.014 3.045 2.02 1.352 1.284 2.548 3.182 2.548 5.815 0 2.733-1.198 5.148-3.457 6.85-2.231 1.682-5.426 2.618-9.39 2.62h-.02Z" clip-rule="evenodd"></path><path fill="#4A4A4A" d="M8.46 1.176c-1.714 0-2.503 1.272-2.503 3.03 0 1.398.917 4.198 1.293 5.288a.489.489 0 0 1-.29.609c-1.375.539-5.431 2.51-5.431 7.028 0 4.759 4.122 8.346 11.723 8.352H13.27c7.602-.006 11.724-3.593 11.724-8.352 0-4.517-4.057-6.49-5.431-7.028a.489.489 0 0 1-.291-.61c.376-1.089 1.294-3.889 1.294-5.287 0-1.759-.79-3.03-2.505-3.03-2.468 0-3.084 3.476-3.128 7.206a.456.456 0 0 1-.456.451h-2.432a.457.457 0 0 1-.456-.45c-.044-3.731-.66-7.207-3.128-7.207Z"></path><path fill="#4A4A4A" d="M13.27 23.959c-5.585 0-11.732-2.972-11.742-6.819v.018c0 4.762 4.13 8.352 11.742 8.352 7.613 0 11.742-3.59 11.742-8.352v-.018c-.01 3.847-6.157 6.819-11.742 6.819Z"></path><path fill="#fff" d="M10.167 15.959c0 1.298-.618 1.975-1.38 1.975-.761 0-1.378-.677-1.378-1.975 0-1.3.617-1.976 1.379-1.976.761 0 1.379.677 1.379 1.976Zm8.965 0c0 1.298-.617 1.975-1.38 1.975-.761 0-1.378-.677-1.378-1.975 0-1.3.617-1.976 1.379-1.976s1.379.677 1.379 1.976Z"></path></g></svg>