<svg xmlns="http://www.w3.org/2000/svg" width="150" height="31" viewBox="0 0 150 31" fill="none"><g clip-path="url(#clip0_7589_28876)"><path d="M23.7928 0.978516L14.7314 6.18262V22.425L9.73174 25.3231L4.70157 22.4226V16.6238L9.73174 13.7514L12.9661 15.6271V10.9354L9.70355 9.08319L0.644531 14.3461V24.7566L9.73411 29.9913L18.7932 24.7566V8.51672L23.8233 5.61615L28.851 8.51672V14.2897L23.8233 17.2161L20.5608 15.3239V19.9921L23.7928 21.856L32.9411 16.652V6.18262L23.7928 0.978516Z" fill="#4A4A4A"></path><path fill-rule="evenodd" clip-rule="evenodd" d="M76.9531 23.528H81.0147V1.26367H76.9531V23.528ZM50.8408 7.70181C52.7659 7.70181 54.3619 8.47515 55.6241 10.0195C56.8888 11.5638 57.5187 13.4795 57.5187 15.7666C57.5187 18.0536 56.8864 19.9694 55.6241 21.5137C54.3596 23.058 52.7659 23.8313 50.8408 23.8313C49.4774 23.8313 48.2928 23.4106 47.2915 22.5668C46.3089 21.704 45.5873 20.5405 45.1243 19.0761V29.5454H41.0625V8.0027H45.1243V12.4546C45.585 10.9902 46.3089 9.83612 47.2915 8.99463C48.2951 8.13197 49.4774 7.70181 50.8408 7.70181ZM49.3647 20.1292C50.467 20.1292 51.4001 19.7179 52.1617 18.8951C52.9233 18.0536 53.3041 17.01 53.3041 15.7666C53.3041 14.5231 52.9233 13.5194 52.1617 12.6967C51.4001 11.8552 50.467 11.4321 49.3647 11.4321C48.14 11.4321 47.1293 11.8435 46.3253 12.6662C45.5238 13.4889 45.1219 14.5208 45.1219 15.7642C45.1219 17.0076 45.5238 18.0513 46.3253 18.8928C47.1269 19.7156 48.14 20.1268 49.3647 20.1268V20.1292ZM58.5976 15.7666C58.5976 18.0536 59.3897 19.9694 60.974 21.5137C62.5582 23.058 64.5351 23.8313 66.9021 23.8313C69.2691 23.8313 71.2458 23.058 72.8302 21.5137C74.4145 19.9694 75.2066 18.0536 75.2066 15.7666C75.2066 13.4795 74.4145 11.5638 72.8302 10.0195C71.2458 8.47515 69.2691 7.70181 66.9021 7.70181C64.5351 7.70181 62.5582 8.47515 60.974 10.0195C59.3897 11.5638 58.5976 13.4795 58.5976 15.7666ZM63.9827 18.8951C63.2 18.0536 62.8098 17.01 62.8098 15.7666C62.8098 14.5231 63.2 13.5194 63.9827 12.6967C64.7654 11.8552 65.7386 11.4321 66.9021 11.4321C68.0656 11.4321 69.0388 11.8435 69.8215 12.6662C70.6042 13.4889 70.9944 14.5208 70.9944 15.7642C70.9944 17.0076 70.6042 18.0513 69.8215 18.8928C69.0388 19.7156 68.0656 20.1268 66.9021 20.1268C65.7386 20.1268 64.7654 19.7156 63.9827 18.8928V18.8951ZM118.539 21.5137C116.955 19.9694 116.162 18.0536 116.162 15.7666C116.162 13.4795 116.955 11.5638 118.539 10.0195C120.123 8.47515 122.1 7.70181 124.467 7.70181C126.834 7.70181 128.811 8.47515 130.395 10.0195C131.979 11.5638 132.771 13.4795 132.771 15.7666C132.771 18.0536 131.979 19.9694 130.395 21.5137C128.811 23.058 126.834 23.8313 124.467 23.8313C122.1 23.8313 120.126 23.058 118.539 21.5137ZM120.372 15.7666C120.372 17.01 120.763 18.0536 121.545 18.8951C122.328 19.7179 123.301 20.1292 124.465 20.1292C125.628 20.1292 126.601 19.7179 127.384 18.8951C128.167 18.0536 128.557 17.01 128.557 15.7666C128.557 14.5231 128.167 13.4889 127.384 12.6685C126.601 11.8458 125.628 11.4345 124.465 11.4345C123.301 11.4345 122.328 11.8552 121.545 12.6991C120.763 13.5218 120.372 14.5443 120.372 15.7689V15.7666ZM143.582 7.70181C145.307 7.70181 146.691 8.30357 147.733 9.50704C148.795 10.7105 149.326 12.2454 149.326 14.1094V23.5257H145.265V14.831C145.265 13.8274 144.945 13.0047 144.301 12.363C143.659 11.7213 142.858 11.3992 141.894 11.3992C140.81 11.3992 139.929 11.7213 139.247 12.363C138.566 13.0047 138.225 13.8274 138.225 14.831V23.5257H134.163V8.0027H138.225V11.9751C138.627 10.6518 139.299 9.60811 140.241 8.84653C141.205 8.08496 142.317 7.70418 143.582 7.70418V7.70181ZM90.7719 19.3887L94.9229 8.01679H99.0459L90.5016 29.5595H86.3787L88.5459 24.0827L82.1971 8.01679H86.5903L90.7719 19.3887ZM110.596 8.0027V11.8928C109.75 9.35425 107.661 8.0027 104.88 8.0027C100.682 8.0027 98.1997 11.6695 98.1997 15.5244C98.1997 19.3793 100.663 23.3471 104.88 23.3471C107.661 23.3471 109.75 21.3421 110.596 18.8035V21.7815C110.596 23.0462 110.185 24.0874 109.362 24.9102C108.54 25.7329 107.538 26.1442 106.354 26.1442C104.748 26.1442 103.556 25.3427 102.774 23.7373L99.1328 25.6624C99.8145 26.9269 100.788 27.9376 102.052 28.7016C103.317 29.4632 104.751 29.844 106.354 29.844C108.721 29.844 110.697 29.073 112.282 27.5263C113.866 25.982 114.658 24.0663 114.658 21.7792V8.0027H110.596ZM109.424 18.4744C108.641 19.2572 107.658 19.6474 106.476 19.6474C105.294 19.6474 104.37 19.2572 103.587 18.4744C102.804 17.6729 102.414 16.6903 102.414 15.5268C102.414 14.3633 102.804 13.3902 103.587 12.6074C104.37 11.8247 105.331 11.4345 106.476 11.4345C107.621 11.4345 108.643 11.8247 109.424 12.6074C110.206 13.369 110.596 14.3421 110.596 15.5268C110.596 16.7115 110.206 17.694 109.424 18.4744Z" fill="#4A4A4A"></path></g><defs><clipPath id="clip0_7589_28876"><rect width="149" height="29.0424" fill="white" transform="translate(0.5 0.978516)"></rect></clipPath></defs></svg>