<svg xmlns="http://www.w3.org/2000/svg" width="69" height="49" viewBox="0 0 69 49" fill="none"><g clip-path="url(#clip0_9805_20420)"><path d="M12.1749 5.70642V5.65369C12.1749 2.12901 10.3252 0.269915 6.82587 0.269915H1.24653C0.992048 0.269915 0.785544 0.475051 0.785544 0.726695V17.5943C0.785544 17.8464 0.992465 18.0519 1.24653 18.0519H2.49389C2.74795 18.0519 2.95487 17.8464 2.95487 17.5943V11.0902H5.31276L9.52167 17.8352C9.60427 17.9701 9.75237 18.0523 9.91173 18.0523H11.3068C11.472 18.0523 11.6259 17.9643 11.7085 17.8173C11.7486 17.7462 11.7687 17.6657 11.7667 17.5842C11.7646 17.5027 11.7405 17.4233 11.6968 17.3543L7.74866 11.0321C10.6447 10.7273 12.1753 8.89142 12.1753 5.70684M2.95487 2.29303H6.82628C8.85919 2.29303 10.0356 2.84449 10.0356 5.70642C10.0356 8.56836 8.85919 9.04341 6.82587 9.04341H2.95445L2.95487 2.29303ZM30.3852 0.269915H20.0417C19.7876 0.269915 19.5807 0.475051 19.5807 0.72711V1.83584C19.5807 2.0879 19.7876 2.29303 20.0421 2.29303H24.1321V16.0288H20.0417C19.7876 16.0288 19.5807 16.2339 19.5807 16.4864V17.5947C19.5807 17.8468 19.7876 18.0523 20.0421 18.0523H30.3852C30.6396 18.0523 30.8461 17.8468 30.8461 17.5947V16.4856C30.8461 16.2335 30.6392 16.0284 30.3852 16.0284H26.2718V2.29303H30.3852C30.6396 2.29303 30.8461 2.0879 30.8461 1.83584V0.726695C30.8461 0.474636 30.6392 0.269915 30.3852 0.269915ZM44.7002 8.08708L43.8905 7.83502C42.029 7.24826 40.2677 6.69722 40.2677 4.65002C40.2677 2.90263 41.3728 2.0173 43.5538 2.0173H43.684C46.2254 2.0173 47.3777 3.13143 47.4252 5.63002C47.4252 5.87585 47.638 6.0814 47.8804 6.0814H49.1035C49.2279 6.0814 49.3459 6.03447 49.4348 5.94644C49.4784 5.90392 49.5125 5.85272 49.5348 5.79619C49.5572 5.73967 49.5673 5.67908 49.5645 5.61839C49.4999 2.01108 47.4131 0.0290678 43.684 0.0290678H43.5538C40.2143 0.0290678 38.128 1.80013 38.0984 4.65625C38.0984 8.1693 41.1717 9.15428 43.2051 9.79959L43.4358 9.87599C43.6423 9.94036 43.8492 10.0047 44.0619 10.0695C46.0006 10.6675 47.827 11.2306 47.827 13.4239C47.827 15.3183 46.5504 16.28 44.0323 16.28H43.9084C41.0595 16.28 39.8835 15.2245 39.8359 12.6441C39.8359 12.3978 39.6232 12.1923 39.3812 12.1923H38.1576C38.0341 12.1943 37.9159 12.2425 37.8264 12.3272C37.7831 12.3701 37.7493 12.4214 37.727 12.478C37.7047 12.5345 37.6943 12.595 37.6966 12.6557C37.7613 16.2921 39.9661 18.2978 43.9084 18.2978H44.0323C47.691 18.2978 49.9667 16.4266 49.9667 13.4185C49.9667 9.70574 46.7928 8.73238 44.6944 8.08708H44.7002ZM62.739 2.02312H62.8395C65.4402 2.02312 66.5691 3.2722 66.6104 6.21054C66.6104 6.45679 66.8173 6.66192 67.0656 6.66192H68.2891C68.413 6.66192 68.5315 6.615 68.6141 6.52697C68.703 6.43893 68.7501 6.32183 68.7501 6.19892C68.6792 1.07883 65.4995 0 62.8395 0H62.739C60.044 0 56.8288 1.1025 56.8288 6.36917V11.8879C56.8288 17.172 60.044 18.2803 62.739 18.2803H62.8395C65.4995 18.2803 68.6792 17.2015 68.7501 12.0577C68.7501 11.9348 68.703 11.8173 68.6141 11.7297C68.5718 11.6866 68.5213 11.6525 68.4654 11.6293C68.4096 11.6061 68.3496 11.5944 68.2891 11.5947H67.0656C66.8173 11.5947 66.6104 11.7999 66.6104 12.0461C66.5691 14.9961 65.4461 16.2568 62.8395 16.2568H62.739C60.0616 16.2568 58.9681 14.9903 58.9681 11.8879V6.3401C58.9681 3.27262 60.0616 2.0173 62.739 2.0173V2.02312ZM12.2934 46.7244H3.22061L12.5712 32.9774C12.6242 32.9014 12.648 32.8134 12.648 32.7195V31.4173C12.648 31.1652 12.4411 30.9601 12.187 30.9601H1.68999C1.43551 30.9601 1.229 31.1652 1.229 31.4173V32.5318C1.229 32.7839 1.43551 32.9895 1.68999 32.9895H10.2008L0.826845 46.7597C0.775109 46.8357 0.748293 46.9258 0.750084 47.0176V48.2903C0.750084 48.5424 0.957005 48.7479 1.21107 48.7479H12.2934C12.5475 48.7479 12.7544 48.5424 12.7544 48.2903V47.1762C12.7544 46.9237 12.5475 46.7186 12.2934 46.7186V46.7244ZM30.2846 30.9655H20.1422C19.8881 30.9655 19.6812 31.1711 19.6812 31.4235V48.2903C19.6812 48.5424 19.8881 48.7479 20.1422 48.7479H30.2846C30.5391 48.7479 30.7456 48.5424 30.7456 48.2903V47.1762C30.7456 46.9237 30.5391 46.7186 30.2846 46.7186H21.8268V40.8245H28.2809C28.5354 40.8245 28.7419 40.6193 28.7419 40.3673V39.2527C28.7419 39.0007 28.5354 38.7955 28.2809 38.7955H21.8272V32.9778H30.2846C30.5391 32.9778 30.7456 32.7723 30.7456 32.5202V31.4057C30.7456 31.1536 30.5391 30.9481 30.2846 30.9481V30.9655ZM49.4878 36.3555C49.4878 32.8308 47.638 30.9717 44.1387 30.9717H38.5594C38.3049 30.9717 38.0984 31.1769 38.0984 31.4293V48.2961C38.0984 48.5486 38.3053 48.7538 38.5594 48.7538H39.8067C40.0608 48.7538 40.2677 48.5486 40.2677 48.2961V41.792H42.626L46.8341 48.5366C46.9167 48.6715 47.0644 48.7538 47.2241 48.7538H48.6192C48.7844 48.7538 48.9383 48.6657 49.0209 48.5191C49.0611 48.448 49.0813 48.3674 49.0792 48.2858C49.0772 48.2042 49.053 48.1247 49.0093 48.0557L45.0611 41.7335C47.9571 41.4287 49.4878 39.5924 49.4878 36.3555ZM47.3485 36.3559V36.4087C47.3485 39.2004 46.172 39.7456 44.1387 39.7456H40.2673V32.9953H44.1387C46.172 32.9953 47.3485 33.5467 47.3485 36.3559ZM62.8395 30.7139H62.739C60.044 30.7139 56.8288 31.8164 56.8288 37.0826V42.6076C56.8288 47.8917 60.044 49 62.739 49H62.8395C65.5349 49 68.7501 47.8917 68.7501 42.6076V37.083C68.7501 31.8164 65.5349 30.7139 62.8395 30.7139ZM66.6104 37.0594V42.6076C66.6104 45.6688 65.4815 46.9765 62.8395 46.9765H62.739C60.0616 46.9765 58.9681 45.7099 58.9681 42.6076V37.0594C58.9681 33.9923 60.0616 32.737 62.739 32.737H62.8395C65.4815 32.737 66.6104 34.0272 66.6104 37.0594Z" fill="#4A4A4A"></path></g><defs><clipPath id="clip0_9805_20420"><rect width="68" height="49" fill="white" transform="translate(0.75)"></rect></clipPath></defs></svg>