<svg xmlns="http://www.w3.org/2000/svg" width="58" height="23" viewBox="0 0 58 23" fill="none"><path fill="#242424" d="m14.036 7.023 2.278-2.078C14.945 2.532 13.45.115 9.281 0L7.069 2.015c4.159.103 5.595 2.588 6.967 5.009v-.001Zm-1.258 1.423C11.392 5.942 9.956 3.36 5.718 3.24l-2.184 2.03c4.13.103 5.537 2.639 6.895 5.09 1.373 2.471 2.787 5.025 6.965 5.038l2.183-2.03c-4.06 0-5.395-2.39-6.8-4.924h.001Z"></path><path fill="#242424" d="M9.242 11.689c-1.386-2.503-2.82-5.085-7.06-5.204L0 8.514c4.13.103 5.537 2.639 6.895 5.09 1.372 2.471 2.786 5.025 6.965 5.038l2.183-2.03c-4.06 0-5.396-2.388-6.8-4.923ZM5.6 15.223l-.051-.093-2.283 2.083h-.002c1.38 2.439 2.833 4.929 7.026 4.942l2.218-2.022c-4.123 0-5.48-2.383-6.908-4.91Zm48.037-3.425 3.651-3.674H54.49l-3.874 4.006V4.431h-2.336v13.293h2.336v-2.88l1.408-1.422 2.8 4.302h2.725l-3.911-5.926Zm-9.015 3.932c-.135-.148-.204-.382-.204-.701V4.43h-2.335V15.27c0 .91.223 1.55.667 1.919.457.358 1.125.536 2.002.536h1.853v-1.79h-1.26c-.346 0-.587-.069-.723-.204Zm-4.717-7.606h-2.318v9.6h2.319v-9.6h-.001Zm.018-3.693h-2.336v2.16h2.336v-2.16Zm-5.94 6.352c-.717-.37-1.725-.672-3.023-.905-.877-.172-1.545-.351-2.002-.535-.444-.186-.748-.388-.908-.61-.148-.234-.223-.53-.223-.886 0-.492.217-.88.65-1.163.431-.296 1.012-.443 1.742-.443.988 0 1.724.196 2.206.59.482.394.748 1.005.797 1.828h2.41c-.049-1.378-.531-2.461-1.446-3.248-.903-.8-2.225-1.201-3.968-1.201-.976 0-1.841.16-2.595.48-.753.309-1.334.745-1.743 1.311-.408.554-.612 1.195-.612 1.92 0 1.169.378 2.068 1.131 2.696.767.615 1.984 1.077 3.653 1.384.927.185 1.631.37 2.113.554.483.185.81.394.983.628.173.222.26.499.26.83 0 .603-.254 1.071-.76 1.403-.494.333-1.15.499-1.966.499-2.138 0-3.238-.886-3.3-2.659h-2.466c.037 1.515.562 2.678 1.576 3.49 1.026.8 2.397 1.2 4.115 1.2 1.052 0 1.978-.16 2.781-.48.817-.32 1.447-.782 1.891-1.385.458-.601.685-1.33.685-2.178 0-.727-.147-1.336-.443-1.828-.297-.505-.81-.935-1.54-1.291l.002-.001Z"></path></svg>