<svg xmlns="http://www.w3.org/2000/svg" viewBox="0 0 121 17" color="#4A4A4A" fill="none"><path fill="currentColor" d="M85.947 13.986h-1.819V3.082h2.45c1.237 3.106 2.45 6.234 3.686 9.34 1.237-3.106 2.474-6.234 3.71-9.34h2.377v10.881H94.97V4.991l-3.783 8.972h-1.82c-1.163-2.967-2.303-5.958-3.467-8.926v8.926l.048.023ZM24.202 9.34v7.545c-.437.046-.825.069-1.334.115V9.432H.847C.823 8.949.774 8.604.75 8.12h10.186V.092c.485-.046.873-.069 1.358-.092v8.051h20.784v1.312h-8.9l.024-.023ZM59.586 8.489c0 3.381-2.23 5.682-5.53 5.659-3.297 0-5.529-2.324-5.504-5.705.024-3.336 2.207-5.59 5.48-5.613 3.275-.023 5.554 2.277 5.554 5.659Zm-1.576.276c.048-.437.097-1.196-.267-2.048-.145-.345-.485-1.173-1.407-1.794a4.23 4.23 0 0 0-2.28-.667c-1.77 0-3.152.966-3.613 2.645-.388 1.404-.34 2.784.413 4.095.679 1.173 1.77 1.725 3.152 1.748.388 0 1.48 0 2.401-.713.364-.299.558-.598.8-.966a5.326 5.326 0 0 0 .8-2.3ZM74.913 12.606H81.8v1.288h-8.56V3.082h8.342V4.37h-6.645v3.175h5.675c.024.529.048.92.073 1.45h-5.772v3.61ZM71.517 3.175C69.82 4.693 68.292 6.05 66.764 7.43c1.6 2.209 3.128 4.279 4.705 6.418h-1.77a720.743 720.743 0 0 1-3.978-5.037c-.68.529-1.334 1.08-2.013 1.61l-.146 3.496h-1.6V3.037h1.528c0 1.863.048 3.703.072 5.567 1.94-1.818 3.88-3.635 5.82-5.43h2.16-.025ZM120.726 3.175c-1.698 1.518-3.226 2.875-4.754 4.255 1.601 2.209 3.129 4.279 4.705 6.418h-1.77a700.483 700.483 0 0 1-3.977-5.037c-.68.529-1.334 1.08-2.013 1.61l-.146 3.496h-1.601V3.037h1.528c0 1.863.049 3.703.073 5.567 1.94-1.818 3.88-3.635 5.821-5.43h2.158-.024ZM98.097 14.01c1.6-3.659 3.201-7.293 4.802-10.95h1.892c1.6 3.657 3.201 7.291 4.801 10.95h-1.6c-.388-.875-.776-1.75-1.14-2.623h-6.015c-.388.874-.776 1.748-1.14 2.622h-1.6Zm5.772-9.57c-.752 1.748-1.528 3.473-2.28 5.221h4.487c-.728-1.748-1.479-3.473-2.207-5.222ZM48.066 3.082v1.311h-4.099v9.501h-1.649V4.416h-4.147c0-.483-.048-.85-.073-1.31h9.968v-.024Z"></path></svg>