<svg xmlns="http://www.w3.org/2000/svg" viewBox="0 0 83 31" fill="none"><path fill="#4A4A4A" d="M44.946 22.973v-11.08H40.63v-2.97h12.363v2.97h-4.316v11.08h-3.731ZM53.349 15.938c0-1.462.288-2.73.867-3.807a6.114 6.114 0 0 1 2.48-2.53c1.076-.598 2.346-.897 3.812-.897 1.479 0 2.757.299 3.833.896a6.123 6.123 0 0 1 2.48 2.531c.591 1.076.888 2.345.888 3.807 0 1.448-.297 2.717-.888 3.806a6.25 6.25 0 0 1-2.48 2.55c-1.076.599-2.354.898-3.833.898-1.466 0-2.736-.3-3.812-.897a6.41 6.41 0 0 1-2.48-2.551c-.579-1.09-.867-2.358-.867-3.806Zm3.892 0c0 .876.121 1.627.363 2.252.242.624.598 1.102 1.07 1.434.483.333 1.095.499 1.834.499 1.103 0 1.93-.366 2.481-1.096.551-.744.827-1.774.827-3.09 0-.876-.12-1.627-.363-2.251-.242-.625-.612-1.096-1.11-1.415-.483-.332-1.095-.498-1.835-.498-1.103 0-1.923.365-2.46 1.096-.538.717-.807 1.74-.807 3.069ZM69.943 22.973V8.923h2.743l7.2 8.828h-.585V8.923h3.449v14.05h-2.743l-7.16-8.829h.585v8.829h-3.49ZM16.437 31c8.663 0 15.687-6.94 15.687-15.5C32.124 6.94 25.1 0 16.437 0 7.773 0 .75 6.94.75 15.5.75 24.06 7.773 31 16.437 31Z"></path><path fill="#fff" fill-rule="evenodd" d="M12.073 10.24h8.798c.311 0 .622.045.947.195.39.18.597.462.741.671a1.933 1.933 0 0 1 .29 1.02 2.058 2.058 0 0 1-.263 1.014l-5.559 9.435a.684.684 0 0 1-1.181-.004l-5.457-9.415-.004-.008c-.125-.203-.318-.518-.352-.923a1.82 1.82 0 0 1 .243-1.072c.19-.324.476-.583.82-.742.368-.17.741-.171.977-.171Zm3.683 1.348h-3.683c-.242 0-.335.014-.4.045a.485.485 0 0 0-.28.481c.004.058.028.123.167.35l.009.015 4.187 7.224v-8.115Zm1.364 0v8.15l4.284-7.27a.73.73 0 0 0 .08-.341.593.593 0 0 0-.07-.287 1.07 1.07 0 0 0-.108-.138.199.199 0 0 0-.064-.046.825.825 0 0 0-.371-.068H17.12Z" clip-rule="evenodd"></path></svg>