<svg xmlns="http://www.w3.org/2000/svg" width="140" height="21" viewBox="0 0 140 21" fill="none"><path fill-rule="evenodd" clip-rule="evenodd" d="M11.1492 21C13.0361 21 14.6297 19.6969 15.3072 17.9452C15.3689 17.7859 15.4286 17.6256 15.4863 17.4644C17.9278 16.093 19.5763 13.4879 19.5763 10.5C19.5763 7.5121 17.9278 4.90709 15.4863 3.53559C15.4286 3.3744 15.3689 3.2141 15.3071 3.0548C14.6295 1.3031 13.0361 0 11.1492 0C5.31939 0 0.593231 4.701 0.593231 10.5C0.593231 16.299 5.31939 21 11.1492 21ZM15.4863 3.53559C14.3211 2.88109 12.9749 2.5075 11.5411 2.5075C7.10346 2.5075 3.50597 6.0859 3.50597 10.5C3.50597 14.9141 7.10346 18.4925 11.5411 18.4925C12.9749 18.4925 14.3211 18.119 15.4863 17.4644C16.2665 15.2876 16.6912 12.9432 16.6912 10.5C16.6912 8.0568 16.2665 5.7124 15.4863 3.53559Z" fill="#4A4A4A"></path><path d="M40.7416 20.4166C47.6443 20.4166 47.796 15.2335 47.796 11.3726V1.13864H44.6608V9.36286C44.6608 15.6566 44.3067 17.4813 40.7416 17.4813C37.2523 17.4813 36.9489 15.6566 36.9489 9.36286V1.08575H33.8136V11.3726C33.8136 15.2335 33.9653 20.4166 40.7416 20.4166Z" fill="#4A4A4A"></path><path d="M67.0073 14.7046C67.0073 11.0024 56.4384 12.8535 56.4384 6.5862C56.4384 2.93686 59.1944 0.583313 63.0376 0.583313C67.4877 0.583313 70.2185 2.75176 70.3701 7.5382L67.159 7.00931C67.159 4.02109 65.111 3.43931 63.0882 3.43931C61.2171 3.43931 59.7507 4.25909 59.7507 6.1102C59.7507 10.4735 70.2185 8.06709 70.2185 14.2022C70.2185 17.9838 67.7152 20.4166 63.2905 20.4166C59.4472 20.4166 56.2614 17.5606 56.2614 13.4618L59.5231 13.7526C59.5231 16.2385 61.3436 17.5606 63.2905 17.5606C65.4649 17.5606 67.0073 16.5822 67.0073 14.7046Z" fill="#4A4A4A"></path><path d="M86.0643 20.4166C92.967 20.4166 93.1186 15.2335 93.1186 11.3726V1.13864H89.9833V9.36286C89.9833 15.6566 89.6294 17.4813 86.0643 17.4813C82.575 17.4813 82.2716 15.6566 82.2716 9.36286V1.08575H79.1363V11.3726C79.1363 15.2335 79.2879 20.4166 86.0643 20.4166Z" fill="#4A4A4A"></path><path d="M115.225 19.8878H118.588L112.165 1.11224H107.387L100.888 19.8878H104.251L105.945 14.5195H113.556L115.225 19.8878ZM106.83 11.7165L109.334 3.83602C109.561 2.85757 109.637 2.09069 109.637 2.09069H109.94C109.94 2.09069 109.991 2.85757 110.219 3.83602L112.671 11.7165H106.83Z" fill="#4A4A4A"></path><path d="M129.674 17.0318V1.11224H126.539V19.8878H138.22V17.0318H129.674Z" fill="#4A4A4A"></path></svg>