<svg xmlns="http://www.w3.org/2000/svg" width="146" height="37" viewBox="0 0 146 37" fill="none"><path d="M0 18.5021L12.6253 5.97198V12.2371H25.2505L12.6253 21.6347V31.0323L0 18.5021Z" fill="#4A4A4A"></path><path d="M44.188 18.5021L31.5627 31.0323V24.7672H18.9374L31.5627 15.3696V5.97198L44.188 18.5021Z" fill="#4A4A4A"></path><path d="M68.7271 29.5042V7.57544H74.0675V16.848H74.3588L81.6626 7.57544H87.9525L80.1199 17.362L88.0928 29.5042H81.7059L76.2036 20.8848L74.0675 23.5616V29.5042H68.7271Z" fill="#4A4A4A"></path><path d="M49.7941 29.5042V26.4847L60.5288 11.8798H49.8048V7.57544H67.2825V10.5949L56.5478 25.1998H67.2717V29.5042H49.7941Z" fill="#4A4A4A"></path><path d="M139.026 29.8469C137.544 29.8469 136.253 29.4792 135.153 28.7439C134.06 28.0087 133.211 27.0022 132.607 25.7244C132.002 24.4468 131.7 22.9906 131.7 21.3558C131.7 19.7069 132.006 18.24 132.617 16.9552C133.236 15.6702 134.091 14.6638 135.185 13.9357C136.278 13.2004 137.548 12.8327 138.993 12.8327C140.101 12.8327 141.104 13.0469 142.004 13.4752C142.902 13.8964 143.644 14.4924 144.225 15.2634C144.816 16.0271 145.186 16.9194 145.337 17.9402H143.395C143.193 17.0122 142.709 16.2199 141.939 15.5632C141.176 14.8993 140.205 14.5673 139.026 14.5673C137.969 14.5673 137.033 14.8529 136.22 15.4239C135.408 15.9879 134.772 16.7766 134.311 17.7902C133.858 18.7968 133.632 19.9639 133.632 21.2916C133.632 22.6265 133.855 23.8079 134.301 24.8358C134.747 25.8565 135.371 26.656 136.177 27.2342C136.99 27.8124 137.939 28.1015 139.026 28.1015C139.759 28.1015 140.428 27.9659 141.033 27.6946C141.644 27.4162 142.154 27.0237 142.564 26.5168C142.982 26.0099 143.262 25.4068 143.406 24.7073H145.348C145.204 25.6994 144.848 26.5846 144.28 27.3626C143.718 28.1336 142.988 28.7404 142.09 29.183C141.198 29.6256 140.177 29.8469 139.026 29.8469Z" fill="#4A4A4A"></path><path d="M119.007 19.2246V29.5036H117.086V13.0572H118.953V15.6376H119.126C119.514 14.7953 120.118 14.1207 120.938 13.6139C121.765 13.0999 122.786 12.843 124.002 12.843C125.116 12.843 126.095 13.0749 126.936 13.539C127.785 13.9957 128.444 14.6704 128.911 15.5626C129.385 16.4549 129.623 17.5506 129.623 18.8498V29.5036H127.702V18.9676C127.702 17.6185 127.321 16.5513 126.559 15.766C125.803 14.9809 124.789 14.5883 123.516 14.5883C122.647 14.5883 121.873 14.7739 121.197 15.145C120.521 15.5163 119.985 16.0516 119.59 16.7512C119.201 17.4435 119.007 18.268 119.007 19.2246Z" fill="#4A4A4A"></path><path d="M103.966 35.6719C103.585 35.6719 103.229 35.6362 102.898 35.5648C102.567 35.4934 102.305 35.4149 102.11 35.3292L102.628 33.6481C103.283 33.848 103.865 33.9195 104.376 33.8623C104.887 33.8124 105.34 33.5839 105.735 33.1771C106.131 32.7773 106.483 32.1635 106.793 31.3353L107.397 29.665L101.301 13.0578H103.383L108.303 26.9881H108.454L113.374 13.0578H115.455L108.443 32.1063C108.148 32.8986 107.785 33.5589 107.354 34.0872C106.922 34.6225 106.422 35.0187 105.854 35.2757C105.293 35.5398 104.664 35.6719 103.966 35.6719Z" fill="#4A4A4A"></path><path d="M100.313 16.666L98.5545 17.1586C98.3818 16.666 98.1373 16.2199 97.8208 15.8201C97.5043 15.4204 97.0908 15.1027 96.5801 14.8672C96.0767 14.6316 95.4509 14.5138 94.7029 14.5138C93.5809 14.5138 92.6603 14.7779 91.941 15.3061C91.2218 15.8344 90.8621 16.5161 90.8621 17.3513C90.8621 18.058 91.1067 18.6326 91.5957 19.0752C92.092 19.5106 92.8544 19.8568 93.883 20.1138L96.3859 20.7241C97.774 21.0596 98.8133 21.5914 99.5038 22.3195C100.201 23.0476 100.55 23.9613 100.55 25.0606C100.55 25.9886 100.291 26.8131 99.7735 27.534C99.2558 28.255 98.5329 28.8224 97.605 29.2364C96.6845 29.6434 95.6163 29.8469 94.4009 29.8469C92.7825 29.8469 91.4483 29.4863 90.3982 28.7654C89.3481 28.0373 88.6756 26.9879 88.3807 25.6174L90.2256 25.1677C90.4629 26.1456 90.9269 26.8844 91.6174 27.3841C92.315 27.8837 93.2321 28.1336 94.3685 28.1336C95.6415 28.1336 96.6592 27.8517 97.4216 27.2877C98.1841 26.7167 98.5653 26.0029 98.5653 25.1463C98.5653 24.4824 98.3423 23.9257 97.8964 23.4759C97.4504 23.019 96.7743 22.6835 95.8681 22.4695L93.1601 21.827C91.7216 21.4843 90.6571 20.9418 89.9666 20.1994C89.2761 19.457 88.9309 18.5362 88.9309 17.4369C88.9309 16.5304 89.179 15.7344 89.6753 15.0492C90.1716 14.3567 90.855 13.8143 91.7252 13.4216C92.5956 13.029 93.588 12.8327 94.7029 12.8327C96.2205 12.8327 97.4324 13.1754 98.3387 13.8606C99.2521 14.5388 99.9103 15.4739 100.313 16.666Z" fill="#4A4A4A"></path></svg>