<svg xmlns="http://www.w3.org/2000/svg" width="80" height="80" viewBox="0 0 80 80" fill="none"><path stroke="#4A4A4A" stroke-width="1.5" d="M23.609 1C16.322 11.918 8.809 18.165 1 23.851M23.61 1 40 40M23.61 1c10.658 1.892 21.343 1.89 32.54 0m-32.54 0 16.399 39L56.149 1M1 23.851 40 40M1 23.851c1.891 11.197 1.892 21.882 0 32.54m0-32.54 39 16.141M40 40 56.15 1M40 40l39-16.15M40 40l16.391 39m-16.39-39 39 16.15M40 40 23.85 79m16.15-39L1 56.391m78-32.54C68.08 16.563 61.834 8.81 56.148 1M79 23.85c-1.89 11.197-1.891 21.641 0 32.3m0-32.3L40 39.992M79 56.15C68.082 63.436 62.078 71.19 56.391 79m22.61-22.85L40 39.992M56.39 79c-10.658-1.892-21.343-1.89-32.54 0m32.54 0L39.992 40l-16.14 39M1 56.391C11.918 63.678 18.165 71.191 23.851 79M1.001 56.391l39-16.399"></path></svg>