<svg xmlns="http://www.w3.org/2000/svg" width="78" height="78" viewBox="0 0 78 78" fill="none"><path stroke="#4A4A4A" stroke-width="1.5" d="M66.556 30.531H74.5v39H10.944V57.344M29.17 9H4a1 1 0 0 0-1 1v46.344a1 1 0 0 0 1 1h62.556V15.906H35.045L29.17 9Z"></path><path stroke="#4A4A4A" stroke-width="1.5" d="M42.441 43.838v-3.856l-4.462-3.325 4.462-3.325V29.41h-2.998v2.46l-3.975 2.925-3.906-2.925v-2.46h-2.998v3.923l4.462 3.324-4.462 3.325v3.857h2.998v-2.46l3.905-2.926 3.975 2.925v2.46h3ZM31.565 23.625h-4.532L22.5 27.947v4.322h2.999v-3.125l2.789-2.66h3.277v-2.859ZM45.504 44.104l-2.791 2.662h-3.278v2.859h4.533l4.532-4.324V40.98h-2.996v3.125Z"></path></svg>