<svg xmlns="http://www.w3.org/2000/svg" viewBox="0 0 560 193" fill="none"><g opacity="0.05"><path fill="#0165FF" d="M195.211 10h170.563v173H195.211z"></path><path fill="#242424" d="M246.928 105h-2.16V87.84h6.888c3.768 0 5.736 1.776 5.736 4.944 0 2.136-1.32 3.768-3.12 4.2v.048c3.864.744 2.448 7.536 3.36 7.824V105h-2.328c-.744-.72.888-6.936-3.456-6.936h-4.92V105Zm0-8.856h4.224c2.616 0 4.08-1.176 4.08-3.312 0-1.968-1.104-3.072-4.008-3.072h-4.296v6.384Zm23.729 2.28c0 .36 0 .768-.024.96h-9.576c.048 2.16 1.248 4.32 3.96 4.32 2.4 0 3.312-1.608 3.528-2.472h1.944c-.624 2.28-2.352 4.128-5.496 4.128-3.864 0-5.952-2.784-5.952-6.504 0-3.912 2.328-6.456 5.952-6.456 3.576 0 5.664 2.448 5.664 6.024Zm-9.6-.72h7.56c0-2.016-1.44-3.648-3.72-3.648-2.112 0-3.72 1.512-3.84 3.648ZM277.839 105h-2.184l-4.392-12.24h2.112l3.408 10.32h.024l3.36-10.32h2.064L277.839 105Zm8.103-14.616h-2.304V88.08h2.304v2.304ZM285.75 105h-1.92V92.76h1.92V105Zm13.758-6.576c0 .36 0 .768-.024.96h-9.576c.048 2.16 1.248 4.32 3.96 4.32 2.4 0 3.312-1.608 3.528-2.472h1.944c-.624 2.28-2.352 4.128-5.496 4.128-3.864 0-5.952-2.784-5.952-6.504 0-3.912 2.328-6.456 5.952-6.456 3.576 0 5.664 2.448 5.664 6.024Zm-9.6-.72h7.56c0-2.016-1.44-3.648-3.72-3.648-2.112 0-3.72 1.512-3.84 3.648ZM306.209 105h-2.088l-3.888-12.24h2.16l2.808 10.08h.048l2.688-10.08h2.088l2.688 10.08h.048l2.832-10.08h2.088L313.769 105h-2.088l-2.712-9.936h-.048L306.209 105Z"></path></g><g opacity="0.1"><path fill="#0165FF" d="M202.113 17h156.761v159H202.113z"></path><path fill="#242424" d="M246.929 105h-2.16V87.84h6.888c3.768 0 5.736 1.776 5.736 4.944 0 2.136-1.32 3.768-3.12 4.2v.048c3.864.744 2.448 7.536 3.36 7.824V105h-2.328c-.744-.72.888-6.936-3.456-6.936h-4.92V105Zm0-8.856h4.224c2.616 0 4.08-1.176 4.08-3.312 0-1.968-1.104-3.072-4.008-3.072h-4.296v6.384Zm23.729 2.28c0 .36 0 .768-.024.96h-9.576c.048 2.16 1.248 4.32 3.96 4.32 2.4 0 3.312-1.608 3.528-2.472h1.944c-.624 2.28-2.352 4.128-5.496 4.128-3.864 0-5.952-2.784-5.952-6.504 0-3.912 2.328-6.456 5.952-6.456 3.576 0 5.664 2.448 5.664 6.024Zm-9.6-.72h7.56c0-2.016-1.44-3.648-3.72-3.648-2.112 0-3.72 1.512-3.84 3.648ZM277.84 105h-2.184l-4.392-12.24h2.112l3.408 10.32h.024l3.36-10.32h2.064L277.84 105Zm8.102-14.616h-2.304V88.08h2.304v2.304ZM285.75 105h-1.92V92.76h1.92V105Zm13.759-6.576c0 .36 0 .768-.024.96h-9.576c.048 2.16 1.248 4.32 3.96 4.32 2.4 0 3.312-1.608 3.528-2.472h1.944c-.624 2.28-2.352 4.128-5.496 4.128-3.864 0-5.952-2.784-5.952-6.504 0-3.912 2.328-6.456 5.952-6.456 3.576 0 5.664 2.448 5.664 6.024Zm-9.6-.72h7.56c0-2.016-1.44-3.648-3.72-3.648-2.112 0-3.72 1.512-3.84 3.648ZM306.21 105h-2.088l-3.888-12.24h2.16l2.808 10.08h.048l2.688-10.08h2.088l2.688 10.08h.048l2.832-10.08h2.088L313.77 105h-2.088l-2.712-9.936h-.048L306.21 105Z"></path></g><path fill="#fff" d="M208.528 23.5h143.93v146h-143.93z"></path><path stroke="#8A8A8A" d="M208.528 23.5h143.93v146h-143.93z"></path><path fill="#242424" d="M246.929 105h-2.16V87.84h6.888c3.768 0 5.736 1.776 5.736 4.944 0 2.136-1.32 3.768-3.12 4.2v.048c3.864.744 2.448 7.536 3.36 7.824V105h-2.328c-.744-.72.888-6.936-3.456-6.936h-4.92V105Zm0-8.856h4.224c2.616 0 4.08-1.176 4.08-3.312 0-1.968-1.104-3.072-4.008-3.072h-4.296v6.384Zm23.728 2.28c0 .36 0 .768-.024.96h-9.576c.048 2.16 1.248 4.32 3.96 4.32 2.4 0 3.312-1.608 3.528-2.472h1.944c-.624 2.28-2.352 4.128-5.496 4.128-3.864 0-5.952-2.784-5.952-6.504 0-3.912 2.328-6.456 5.952-6.456 3.576 0 5.664 2.448 5.664 6.024Zm-9.6-.72h7.56c0-2.016-1.44-3.648-3.72-3.648-2.112 0-3.72 1.512-3.84 3.648ZM277.839 105h-2.184l-4.392-12.24h2.112l3.408 10.32h.024l3.36-10.32h2.064L277.839 105Zm8.103-14.616h-2.304V88.08h2.304v2.304ZM285.75 105h-1.92V92.76h1.92V105Zm13.759-6.576c0 .36 0 .768-.024.96h-9.576c.048 2.16 1.248 4.32 3.96 4.32 2.4 0 3.312-1.608 3.528-2.472h1.944c-.624 2.28-2.352 4.128-5.496 4.128-3.864 0-5.952-2.784-5.952-6.504 0-3.912 2.328-6.456 5.952-6.456 3.576 0 5.664 2.448 5.664 6.024Zm-9.6-.72h7.56c0-2.016-1.44-3.648-3.72-3.648-2.112 0-3.72 1.512-3.84 3.648Zm16.3 7.296h-2.088l-3.888-12.24h2.16l2.808 10.08h.048l2.688-10.08h2.088l2.688 10.08h.048l2.832-10.08h2.088L313.769 105h-2.088l-2.712-9.936h-.048L306.209 105Z"></path><path fill="#fff" d="M.5 23.5h143.93v146H.5z"></path><path stroke="#8A8A8A" d="M.5 23.5h143.93v146H.5z"></path><path fill="#242424" d="M46.185 105h-2.16V89.76h-5.712v-1.92h13.584v1.92h-5.712V105Zm15.471-6.576c0 .36 0 .768-.023.96h-9.577c.049 2.16 1.248 4.32 3.96 4.32 2.4 0 3.313-1.608 3.529-2.472h1.944c-.624 2.28-2.352 4.128-5.496 4.128-3.864 0-5.953-2.784-5.953-6.504 0-3.912 2.328-6.456 5.953-6.456 3.575 0 5.663 2.448 5.663 6.024Zm-9.6-.72h7.56c0-2.016-1.44-3.648-3.72-3.648-2.111 0-3.72 1.512-3.84 3.648Zm15.095 7.632c-2.472 0-4.032-1.416-4.032-3.48 0-2.808 2.064-3.576 5.232-4.152 2.088-.384 3.048-.624 3.048-1.824 0-.96-.528-1.8-2.544-1.8-2.328 0-3 .696-3.12 2.472h-2.016c.12-2.352 1.608-4.152 5.208-4.152 2.28 0 4.344.96 4.344 3.96v5.88c0 .96.144 1.44.624 1.44.072 0 .144 0 .288-.024V105a4 4 0 0 1-.936.12c-1.056 0-1.704-.408-1.824-1.92h-.048c-.792 1.32-2.184 2.136-4.224 2.136Zm.192-1.68c2.304 0 4.056-1.032 4.056-3.384v-1.944c-.36.384-1.56.696-2.88.96-2.376.48-3.384 1.056-3.384 2.472 0 1.2.624 1.896 2.208 1.896Zm21.731-11.232c2.472 0 3.672 1.464 3.672 4.032V105h-1.92v-8.064c0-1.584-.312-2.832-2.232-2.832-1.92 0-3.12 1.368-3.12 3.264V105h-1.92v-8.064c0-1.584-.312-2.832-2.232-2.832-1.92 0-3.12 1.368-3.12 3.264V105h-1.92V92.76h1.92v1.464h.048c.648-.864 1.704-1.8 3.552-1.8 1.752 0 2.76.744 3.264 2.112h.048c.84-1.152 2.112-2.112 3.96-2.112ZM102.94 105V92.352c-.72.696-1.968.816-3.456.816v-1.8c3.096-.096 3.672-.96 3.936-2.952h1.68V105h-2.16Z"></path><path fill="#fff" d="M415.57 23.5H559.5v146H415.57z"></path><path stroke="#8A8A8A" d="M415.57 23.5H559.5v146H415.57z"></path><path fill="#242424" d="M458.455 105h-2.16V89.76h-5.712v-1.92h13.584v1.92h-5.712V105Zm15.471-6.576c0 .36 0 .768-.024.96h-9.576c.048 2.16 1.248 4.32 3.96 4.32 2.4 0 3.312-1.608 3.528-2.472h1.944c-.624 2.28-2.352 4.128-5.496 4.128-3.864 0-5.952-2.784-5.952-6.504 0-3.912 2.328-6.456 5.952-6.456 3.576 0 5.664 2.448 5.664 6.024Zm-9.6-.72h7.56c0-2.016-1.44-3.648-3.72-3.648-2.112 0-3.72 1.512-3.84 3.648Zm15.095 7.632c-2.472 0-4.032-1.416-4.032-3.48 0-2.808 2.064-3.576 5.232-4.152 2.088-.384 3.048-.624 3.048-1.824 0-.96-.528-1.8-2.544-1.8-2.328 0-3 .696-3.12 2.472h-2.016c.12-2.352 1.608-4.152 5.208-4.152 2.28 0 4.344.96 4.344 3.96v5.88c0 .96.144 1.44.624 1.44.072 0 .144 0 .288-.024V105a4 4 0 0 1-.936.12c-1.056 0-1.704-.408-1.824-1.92h-.048c-.792 1.32-2.184 2.136-4.224 2.136Zm.192-1.68c2.304 0 4.056-1.032 4.056-3.384v-1.944c-.36.384-1.56.696-2.88.96-2.376.48-3.384 1.056-3.384 2.472 0 1.2.624 1.896 2.208 1.896Zm21.731-11.232c2.472 0 3.672 1.464 3.672 4.032V105h-1.92v-8.064c0-1.584-.312-2.832-2.232-2.832-1.92 0-3.12 1.368-3.12 3.264V105h-1.92v-8.064c0-1.584-.312-2.832-2.232-2.832-1.92 0-3.12 1.368-3.12 3.264V105h-1.92V92.76h1.92v1.464h.048c.648-.864 1.704-1.8 3.552-1.8 1.752 0 2.76.744 3.264 2.112h.048c.84-1.152 2.112-2.112 3.96-2.112ZM523.633 105h-11.496c0-3 1.896-5.352 4.944-7.128 3.096-1.8 4.536-2.376 4.536-4.8 0-1.392-.528-3.072-3.072-3.072-2.904 0-3.672 1.944-3.672 4.224h-2.256c0-3.432 1.872-6.144 5.976-6.144 2.832 0 5.28 1.8 5.28 4.968 0 3.216-2.592 4.752-5.016 6.144-1.872 1.08-3.648 2.112-4.104 3.84v.048h8.88V105Z"></path><path fill="#0165FF" d="M75.915 1V0h-1v1h1Zm414.084 0h1V0h-1v1Zm-.707 22.707a1 1 0 0 0 1.414 0l6.364-6.364a1 1 0 1 0-1.414-1.414l-5.657 5.657-5.657-5.657a1 1 0 1 0-1.414 1.414l6.364 6.364ZM76.915 23v-1.833h-2V23h2Zm0-5.5v-3.667h-2V17.5h2Zm0-7.333V6.5h-2v3.667h2Zm0-7.334V1h-2v1.833h2Zm-1-.833h1.99V0h-1.99v2Zm5.972 0h3.982V0h-3.982v2Zm7.963 0h3.982V0H89.85v2Zm7.964 0h3.981V0h-3.981v2Zm7.963 0h3.981V0h-3.981v2Zm7.963 0h3.981V0h-3.981v2Zm7.963 0h3.982V0h-3.982v2Zm7.963 0h3.982V0h-3.982v2Zm7.963 0h3.982V0h-3.982v2Zm7.964 0h3.981V0h-3.981v2Zm7.963 0h3.981V0h-3.981v2Zm7.963 0h3.981V0h-3.981v2Zm7.963 0h3.982V0h-3.982v2Zm7.963 0h3.982V0h-3.982v2Zm7.963 0h3.982V0h-3.982v2Zm7.964 0h3.981V0h-3.981v2Zm7.963 0h3.981V0h-3.981v2Zm7.963 0h3.981V0h-3.981v2Zm7.963 0h3.982V0h-3.982v2Zm7.963 0h3.982V0h-3.982v2Zm7.963 0h3.982V0h-3.982v2Zm7.963 0h3.982V0h-3.982v2Zm7.964 0h3.981V0h-3.981v2Zm7.963 0h3.981V0h-3.981v2Zm7.963 0h3.982V0h-3.982v2Zm7.963 0h3.982V0h-3.982v2Zm7.963 0h3.982V0h-3.982v2Zm7.963 0h3.982V0h-3.982v2Zm7.964 0h3.981V0h-3.981v2Zm7.963 0h3.981V0h-3.981v2Zm7.963 0h3.982V0h-3.982v2Zm7.963 0h3.982V0h-3.982v2Zm7.963 0h3.982V0h-3.982v2Zm7.963 0h3.982V0h-3.982v2Zm7.964 0h3.981V0h-3.981v2Zm7.963 0h3.981V0h-3.981v2Zm7.963 0h3.981V0h-3.981v2Zm7.963 0h3.982V0h-3.982v2Zm7.963 0h3.982V0h-3.982v2Zm7.963 0h3.982V0h-3.982v2Zm7.963 0h3.982V0h-3.982v2Zm7.964 0h3.981V0h-3.981v2Zm7.963 0h3.981V0h-3.981v2Zm7.963 0h3.981V0h-3.981v2Zm7.963 0h3.982V0h-3.982v2Zm7.963 0h3.982V0h-3.982v2Zm7.963 0h3.982V0h-3.982v2Zm7.963 0h3.982V0h-3.982v2Zm7.963 0h3.982V0h-3.982v2Zm7.964 0h3.981V0h-3.981v2Zm7.963 0h3.981V0h-3.981v2Zm7.963 0h3.981V0h-3.981v2Zm7.963 0h1.991V0h-1.991v2Zm.991-1v1.833h2V1h-2Zm0 5.5v3.667h2V6.5h-2Zm0 7.333V17.5h2v-3.667h-2Zm0 7.334V23h2v-1.833h-2ZM490 192v1h1v-1h-1Zm-414.085 0h-1v1h1v-1Zm.707-22.707a1 1 0 0 0-1.414 0l-6.364 6.364a1 1 0 1 0 1.414 1.414l5.657-5.657 5.657 5.657a1 1 0 1 0 1.414-1.414l-6.364-6.364ZM489 170v1.833h2V170h-2Zm0 5.5v3.667h2V175.5h-2Zm0 7.333v3.667h2v-3.667h-2Zm0 7.334V192h2v-1.833h-2Zm1 .833h-1.991v2H490v-2Zm-5.973 0h-3.981v2h3.981v-2Zm-7.963 0h-3.982v2h3.982v-2Zm-7.963 0h-3.982v2h3.982v-2Zm-7.963 0h-3.982v2h3.982v-2Zm-7.964 0h-3.981v2h3.981v-2Zm-7.963 0h-3.981v2h3.981v-2Zm-7.963 0h-3.981v2h3.981v-2Zm-7.963 0h-3.982v2h3.982v-2Zm-7.963 0h-3.982v2h3.982v-2Zm-7.963 0h-3.982v2h3.982v-2Zm-7.964 0h-3.981v2h3.981v-2Zm-7.963 0h-3.981v2h3.981v-2Zm-7.963 0h-3.981v2h3.981v-2Zm-7.963 0h-3.982v2h3.982v-2Zm-7.963 0h-3.982v2h3.982v-2Zm-7.963 0h-3.982v2h3.982v-2Zm-7.963 0h-3.982v2h3.982v-2Zm-7.964 0h-3.981v2h3.981v-2Zm-7.963 0h-3.981v2h3.981v-2Zm-7.963 0h-3.982v2h3.982v-2Zm-7.963 0h-3.982v2h3.982v-2Zm-7.963 0h-3.982v2h3.982v-2Zm-7.963 0h-3.982v2h3.982v-2Zm-7.964 0h-3.981v2h3.981v-2Zm-7.963 0h-3.981v2h3.981v-2Zm-7.963 0h-3.982v2h3.982v-2Zm-7.963 0h-3.982v2h3.982v-2Zm-7.963 0h-3.982v2h3.982v-2Zm-7.963 0h-3.982v2h3.982v-2Zm-7.964 0h-3.981v2h3.981v-2Zm-7.963 0h-3.981v2h3.981v-2Zm-7.963 0h-3.982v2h3.982v-2Zm-7.963 0h-3.982v2h3.982v-2Zm-7.963 0h-3.982v2h3.982v-2Zm-7.963 0h-3.982v2h3.982v-2Zm-7.964 0h-3.981v2h3.981v-2Zm-7.963 0h-3.981v2h3.981v-2Zm-7.963 0h-3.981v2h3.981v-2Zm-7.963 0h-3.982v2h3.982v-2Zm-7.963 0h-3.982v2h3.982v-2Zm-7.963 0h-3.982v2h3.982v-2Zm-7.963 0h-3.982v2h3.982v-2Zm-7.963 0h-3.982v2h3.982v-2Zm-7.964 0h-3.981v2h3.981v-2Zm-7.963 0h-3.981v2h3.981v-2Zm-7.963 0h-3.981v2h3.981v-2Zm-7.963 0h-3.982v2h3.982v-2Zm-7.963 0h-3.982v2h3.982v-2Zm-7.963 0h-3.982v2h3.982v-2Zm-7.963 0H89.85v2h3.982v-2Zm-7.964 0h-3.981v2h3.981v-2Zm-7.963 0h-1.991v2h1.991v-2Zm-.991 1v-1.833h-2V192h2Zm0-5.5v-3.667h-2v3.667h2Zm0-7.333V175.5h-2v3.667h2Zm0-7.334V170h-2v1.833h2ZM207.749 96.707a1 1 0 0 0 0-1.414l-6.364-6.364a1 1 0 1 0-1.414 1.414L205.628 96l-5.657 5.657a.999.999 0 1 0 1.414 1.414l6.364-6.364Zm-62.82.293h62.113v-2h-62.113v2ZM353.237 95.293a1 1 0 0 0 0 1.414l6.364 6.364a.999.999 0 1 0 1.414-1.414L355.358 96l5.657-5.657a1 1 0 0 0-1.414-1.414l-6.364 6.364ZM415.07 95h-61.126v2h61.126v-2Z"></path></svg>