<svg xmlns="http://www.w3.org/2000/svg" width="18" height="18" viewBox="0 0 14 14" fill="none" color="#242424"><path fill="currentColor" d="M1.94 8.864H.875V9.93H1.94V8.864ZM3.538 8.864H2.471V9.93h1.066V8.864ZM1.94 7.266H.875v1.066H1.94V7.266ZM3.538 7.266H2.471v1.066h1.066V7.266ZM1.94 5.668H.875v1.066H1.94V5.668ZM3.538 5.668H2.471v1.066h1.066V5.668ZM6.733 7.266H5.668v1.066h1.065V7.266ZM8.331 7.266H7.266v1.066H8.33V7.266ZM6.733 5.668H5.668v1.066h1.065V5.668ZM8.331 5.668H7.266v1.066H8.33V5.668ZM9.929 7.266H8.864v1.066h1.065V7.266ZM9.929 5.668H8.864v1.066h1.065V5.668ZM5.135 12.06H4.07v1.065h1.065V12.06ZM6.733 12.06H5.668v1.065h1.065V12.06ZM5.135 10.462H4.07v1.065h1.065v-1.065ZM6.733 10.462H5.668v1.065h1.065v-1.065ZM8.331 12.06H7.266v1.065H8.33V12.06ZM8.331 10.462H7.266v1.065H8.33v-1.065ZM5.135 2.473H4.07v1.065h1.065V2.473ZM3.538 2.473H2.471v1.065h1.066V2.473ZM6.733 2.473H5.668v1.065h1.065V2.473ZM5.135.875H4.07V1.94h1.065V.875ZM6.733.875H5.668V1.94h1.065V.875ZM8.331 2.473H7.266v1.065H8.33V2.473ZM8.324.875H7.266V1.94h1.058V.875ZM9.93 3.538V2.473H8.863v1.065h1.065ZM9.929 1.94V.875H8.864V1.94h1.065ZM11.527 2.473H10.46v1.065h1.066V2.473ZM11.527.875H10.46V1.94h1.066V.875ZM13.124.875H12.06V1.94h1.066V.875ZM11.527 12.06H10.46v1.065h1.066V12.06ZM13.124 12.06H12.06v1.065h1.066V12.06ZM11.527 10.462H10.46v1.065h1.066v-1.065ZM13.124 10.462H12.06v1.065h1.066v-1.065ZM11.527 8.864H10.46V9.93h1.066V8.864ZM13.124 8.864H12.06V9.93h1.066V8.864ZM11.527 7.266H10.46v1.066h1.066V7.266ZM13.124 7.266H12.06v1.066h1.066V7.266ZM11.527 5.668H10.46v1.066h1.066V5.668ZM13.124 5.668H12.06v1.066h1.066V5.668ZM1.94 4.07H.875v1.066H1.94V4.07ZM3.538 4.07H2.471v1.066h1.066V4.07Z"></path></svg>