<svg xmlns="http://www.w3.org/2000/svg" width="235" height="333" viewBox="0 0 235 333" fill="none"><g filter="url(#a)"><path fill="#fff" fill-rule="evenodd" d="M197.194 7.82h-93.081v302.514h40.523l14.443 15.648h68.608V95.285L213.243 80.84V23.468L197.194 7.82Zm22.87 21.666 7.623 7.623v48.547l-7.623-7.623V29.486Zm-91.479 55.769a7.222 7.222 0 0 0-7.222 7.222v38.516a7.222 7.222 0 0 0 14.443 0V92.477a7.222 7.222 0 0 0-7.221-7.222Z" clip-rule="evenodd"></path><path fill="#606060" d="M104.113 7.82v-.5h-.5v.5h.5Zm93.081 0 .35-.357-.146-.142h-.204v.5Zm-93.081 302.514h-.5v.5h.5v-.5Zm40.523 0 .367-.339-.148-.161h-.219v.5Zm14.443 15.648-.367.339.148.161h.219v-.5Zm68.608 0v.5h.5v-.5h-.5Zm0-230.697h.5v-.207l-.147-.147-.353.354ZM213.243 80.84h-.5v.207l.146.147.354-.354Zm0-57.373h.5v-.211l-.151-.147-.349.358Zm14.444 13.641h.5v-.207l-.147-.147-.353.354Zm-7.623-7.623.353-.354-.853-.853v1.207h.5Zm7.623 56.17-.354.353.854.854v-1.207h-.5Zm-7.623-7.623h-.5v.207l.146.146.354-.353ZM104.113 8.32h93.081v-1h-93.081v1Zm.5 302.013V7.821h-1v302.513h1Zm40.023-.5h-40.523v1h40.523v-1Zm14.811 15.809-14.444-15.648-.735.679 14.444 15.647.735-.678Zm68.24-.161h-68.608v1h68.608v-1Zm-.5-230.197v230.697h1V95.285h-1Zm-14.298-14.09 14.444 14.443.707-.707-14.443-14.443-.708.707Zm-.146-57.727V80.84h1V23.468h-1Zm-15.898-15.29 16.049 15.648.698-.716-16.048-15.647-.699.716Zm31.195 28.578-7.623-7.623-.707.707 7.623 7.623.707-.708Zm.147 48.9V37.109h-1v48.547h1Zm-8.477-7.27 7.623 7.623.707-.707-7.623-7.623-.707.707Zm-.146-48.9v48.547h1V29.486h-1Zm-97.701 62.99a6.722 6.722 0 0 1 6.722-6.721v-1a7.722 7.722 0 0 0-7.722 7.722h1Zm0 38.517V92.477h-1v38.516h1Zm6.722 6.722a6.722 6.722 0 0 1-6.722-6.722h-1a7.722 7.722 0 0 0 7.722 7.722v-1Zm6.721-6.722a6.722 6.722 0 0 1-6.721 6.722v1a7.721 7.721 0 0 0 7.721-7.722h-1Zm0-38.516v38.516h1V92.477h-1Zm-6.721-6.722a6.721 6.721 0 0 1 6.721 6.722h1a7.722 7.722 0 0 0-7.721-7.722v1Z"></path></g><path fill="#FAFAFA" stroke="#606060" d="M135.406 1H50.349L1 51.151V282.25l49.35 49.349h85.056V161.084l-21.665-18.456V80.841l21.665-17.252V1Z"></path><path fill="#DFDFDF" d="M77.191 65.507v3.072H50.385v-9.87c0-4.43 2.547-6.644 7.642-6.644 4.302 0 6.785 1.587 7.45 4.762l11.714-5.415v3.456L65.67 59.9v5.607H77.19Zm-14.133-6.721c0-2.279-1.229-3.418-3.687-3.418H56.76c-2.458 0-3.687 1.14-3.687 3.418v6.72h9.985v-6.72ZM77.191 92.068H50.385V77.244h2.688v11.752h9.217V77.974h2.689v11.022h9.524V77.244h2.688v14.824ZM50.385 118.67v-8.411c0-3.098 1.075-5.492 3.226-7.182 2.125-1.69 5.517-2.534 10.177-2.534 4.66 0 8.065.844 10.216 2.534 2.125 1.69 3.187 4.084 3.187 7.182v8.411H50.385Zm24.118-8.411c0-1.92-.666-3.469-1.997-4.647-1.331-1.178-3.239-1.767-5.722-1.767h-5.992c-2.483 0-4.39.589-5.722 1.767-1.331 1.178-1.997 2.727-1.997 4.647v5.338h21.43v-5.338ZM77.191 137.01h-2.534v-3.38H52.92v3.38h-2.535v-9.832h2.535v3.38h21.737v-3.38h2.534v9.832ZM77.191 156.534H50.385v-3.073h24.118v-10.177h2.688v13.25ZM73.466 168.293v.384c1.203.282 2.202.973 2.996 2.074.793 1.075 1.19 2.599 1.19 4.57 0 1.459-.269 2.791-.806 3.994-.564 1.204-1.409 2.228-2.535 3.073-1.127.844-2.56 1.51-4.301 1.997-1.767.46-3.84.691-6.222.691-4.788 0-8.295-.896-10.523-2.688-2.227-1.793-3.341-4.315-3.341-7.566 0-2.356.512-4.238 1.536-5.646.999-1.408 2.381-2.509 4.148-3.303l1.536 2.535c-1.408.512-2.51 1.293-3.303 2.343-.794 1.05-1.19 2.407-1.19 4.071 0 2.227.742 3.943 2.227 5.146 1.46 1.203 3.43 1.805 5.914 1.805h5.992c2.483 0 4.467-.602 5.952-1.805 1.46-1.203 2.19-2.919 2.19-5.146 0-.871-.129-1.69-.385-2.458-.256-.794-.627-1.472-1.113-2.036a5.474 5.474 0 0 0-1.844-1.382c-.742-.333-1.574-.499-2.496-.499h-2.919v5.299h-2.688v-8.295h13.71v2.842h-3.725Z"></path><path fill="#CACACA" d="M146.447 263.282h2.708v.365h-2.708v.963h-.321v-2.291h.321v.963Zm-.503-1.429v-.347h1.337v-.017a.743.743 0 0 1-.304-.23.663.663 0 0 1-.113-.404c0-.231.075-.414.226-.547.147-.136.357-.204.629-.204h1.436v.348h-1.375c-.403 0-.604.169-.604.507 0 .07.009.138.026.204a.6.6 0 0 0 .079.174.395.395 0 0 0 .134.126.377.377 0 0 0 .187.043h1.553v.347h-3.211Zm3.263-3.308a.93.93 0 0 1-.316.733 1.178 1.178 0 0 1-.369.204c-.145.047-.307.07-.486.07-.177 0-.337-.023-.482-.07a1.095 1.095 0 0 1-.369-.204.907.907 0 0 1-.321-.733.89.89 0 0 1 .312-.707.964.964 0 0 1 .343-.191c.133-.047.279-.07.439-.07h.164v1.61h.105a.82.82 0 0 0 .269-.043.68.68 0 0 0 .212-.13.63.63 0 0 0 .144-.209.746.746 0 0 0 .052-.282.651.651 0 0 0-.387-.616l.178-.247a.866.866 0 0 1 .373.338c.093.154.139.336.139.547Zm-2.052 0a.629.629 0 0 0 .191.464c.06.055.133.099.217.131.081.031.17.047.269.047h.03v-1.237h-.048a.675.675 0 0 0-.477.165.543.543 0 0 0-.182.43Zm2-2.565h-2.239v-.348h.365v-.017a1.17 1.17 0 0 1-.161-.087.603.603 0 0 1-.135-.121.666.666 0 0 1-.121-.395c0-.148.036-.284.108-.408a.638.638 0 0 1 .348-.278v-.008a.69.69 0 0 1-.317-.226c-.093-.113-.139-.265-.139-.456 0-.228.075-.406.226-.534.147-.13.357-.195.629-.195h1.436v.347h-1.375c-.2 0-.35.039-.452.118-.101.078-.152.202-.152.373 0 .069.009.136.026.199a.547.547 0 0 0 .079.165.377.377 0 0 0 .321.161h1.553v.347h-1.375c-.2 0-.35.039-.452.117-.101.078-.152.2-.152.365 0 .069.009.136.026.199.018.064.044.12.079.17a.377.377 0 0 0 .321.164h1.553v.348Zm.052-4.635c0 .15-.027.288-.082.412a.93.93 0 0 1-.234.321 1.178 1.178 0 0 1-.369.204 1.512 1.512 0 0 1-.486.074c-.177 0-.337-.025-.482-.074a1.095 1.095 0 0 1-.369-.204.907.907 0 0 1-.239-.321 1.007 1.007 0 0 1-.082-.412c0-.151.027-.287.082-.408a.89.89 0 0 1 .239-.321 1.07 1.07 0 0 1 .369-.209c.145-.049.305-.073.482-.073.179 0 .341.024.486.073.141.05.264.119.369.209a.912.912 0 0 1 .234.321.975.975 0 0 1 .082.408Zm-.308 0a.633.633 0 0 0-.173-.46c-.116-.119-.293-.178-.53-.178h-.321c-.237 0-.414.059-.529.178a.63.63 0 0 0-.174.46.63.63 0 0 0 .174.46c.115.118.292.178.529.178h.321c.237 0 .414-.06.53-.178a.634.634 0 0 0 .173-.46Zm.308-2.255c0 .208-.039.383-.117.525a1.222 1.222 0 0 1-.321.36l-.2-.247a.995.995 0 0 0 .256-.291.77.77 0 0 0 .087-.373.547.547 0 0 0-.095-.343.32.32 0 0 0-.269-.126.31.31 0 0 0-.222.087c-.063.055-.107.156-.13.304l-.026.178a1.56 1.56 0 0 1-.065.286.91.91 0 0 1-.121.23.58.58 0 0 1-.191.152.636.636 0 0 1-.269.052.63.63 0 0 1-.287-.061.574.574 0 0 1-.208-.165.716.716 0 0 1-.122-.256 1.112 1.112 0 0 1-.043-.316c0-.183.032-.334.095-.456.064-.124.152-.233.265-.325l.208.23a.665.665 0 0 0-.186.217.68.68 0 0 0-.087.36c0 .144.032.254.096.33a.31.31 0 0 0 .251.108c.11 0 .19-.036.239-.108a.858.858 0 0 0 .108-.322l.026-.173c.038-.249.11-.425.217-.53a.56.56 0 0 1 .413-.156c.217 0 .387.074.512.221.124.148.186.351.186.608Zm-.052-1.907c0 .121-.033.214-.1.278a.396.396 0 0 1-.269.091h-1.566v.369h-.304v-.209c0-.075-.014-.126-.043-.152-.032-.029-.086-.043-.161-.043h-.417v-.312h.621v-.491h.304v.491h1.632v-.456h.303v.434Zm0-3.68c0 .13-.034.224-.104.282a.53.53 0 0 1-.26.105v.021c.139.049.243.13.312.243.07.113.104.248.104.404 0 .237-.06.422-.182.555a.644.644 0 0 1-.495.196.568.568 0 0 1-.486-.23c-.112-.157-.169-.398-.169-.725v-.443h-.221c-.159 0-.281.044-.365.13-.084.087-.126.22-.126.4 0 .136.031.25.092.342.06.09.141.165.243.226l-.196.208a.773.773 0 0 1-.308-.29.903.903 0 0 1-.13-.504c0-.272.067-.483.2-.633.133-.151.318-.226.555-.226h1.233v-.256h.303v.195Zm-.243.998a.891.891 0 0 0-.03-.238.567.567 0 0 0-.087-.187.436.436 0 0 0-.13-.121.312.312 0 0 0-.161-.044h-.369v.46c0 .2.029.346.087.439a.283.283 0 0 0 .252.134h.091c.11 0 .195-.039.256-.117a.53.53 0 0 0 .091-.326Zm-.121-3.121v.018c.277.136.416.354.416.655a.852.852 0 0 1-.082.378.848.848 0 0 1-.234.29 1.159 1.159 0 0 1-.369.183c-.145.04-.307.06-.486.06-.18 0-.342-.02-.486-.06a1.138 1.138 0 0 1-.369-.183.85.85 0 0 1-.235-.29.852.852 0 0 1-.082-.378c0-.156.035-.289.104-.399a.621.621 0 0 1 .313-.256v-.018h-1.337v-.347h3.211v.347h-.364Zm.104.578a.8.8 0 0 0-.03-.222.615.615 0 0 0-.087-.186.459.459 0 0 0-.143-.122.398.398 0 0 0-.196-.048h-.833a.316.316 0 0 0-.169.048.405.405 0 0 0-.139.122.571.571 0 0 0-.087.186.702.702 0 0 0-.035.222c0 .196.063.351.187.464a.68.68 0 0 0 .482.169h.382a.697.697 0 0 0 .486-.169.605.605 0 0 0 .182-.464Zm.26-2.158-2.239.786v-.347l1.111-.391.764-.243v-.021l-.764-.243-1.111-.4v-.334l2.239.79v.403Zm0-3.23c0 .13-.034.224-.104.282a.52.52 0 0 1-.26.104v.022c.139.049.243.13.312.243a.75.75 0 0 1 .104.404c0 .237-.06.422-.182.555-.121.13-.286.195-.495.195a.566.566 0 0 1-.486-.23c-.112-.156-.169-.397-.169-.724v-.443h-.221c-.159 0-.281.043-.365.13-.084.087-.126.22-.126.399a.61.61 0 0 0 .092.343c.06.09.141.165.243.226l-.196.208a.78.78 0 0 1-.308-.29.905.905 0 0 1-.13-.504c0-.272.067-.483.2-.633.133-.151.318-.226.555-.226h1.233v-.256h.303v.195Zm-.243.998a.886.886 0 0 0-.03-.238.567.567 0 0 0-.087-.187.44.44 0 0 0-.13-.122.32.32 0 0 0-.161-.043h-.369v.46c0 .2.029.346.087.438.058.09.142.135.252.135h.091c.11 0 .195-.039.256-.117a.53.53 0 0 0 .091-.326Zm.243-1.689h-2.239v-.347h.365v-.017a.743.743 0 0 1-.304-.23.663.663 0 0 1-.113-.404c0-.231.075-.413.226-.547.147-.136.357-.204.629-.204h1.436v.348h-1.375c-.403 0-.604.169-.604.507 0 .07.009.138.026.204a.6.6 0 0 0 .079.174.395.395 0 0 0 .134.126.377.377 0 0 0 .187.043h1.553v.347Zm.052-3.299c0 .156-.027.296-.082.421a.876.876 0 0 1-.234.316 1.12 1.12 0 0 1-.369.196 1.706 1.706 0 0 1-.486.065c-.18 0-.342-.022-.486-.065a1.1 1.1 0 0 1-.369-.196.879.879 0 0 1-.235-.316 1.034 1.034 0 0 1-.082-.421c0-.223.049-.401.148-.534a.867.867 0 0 1 .377-.304l.148.291a.519.519 0 0 0-.269.2.594.594 0 0 0-.096.347c0 .104.017.195.052.273a.501.501 0 0 0 .139.195.58.58 0 0 0 .213.118c.081.026.17.039.269.039h.382a.74.74 0 0 0 .486-.157c.124-.107.186-.263.186-.468 0-.281-.13-.483-.39-.608l.169-.252a.885.885 0 0 1 .386.326c.096.142.143.32.143.534Zm0-2.166a.93.93 0 0 1-.316.733 1.178 1.178 0 0 1-.369.204c-.145.047-.307.07-.486.07-.177 0-.337-.023-.482-.07a1.095 1.095 0 0 1-.369-.204.907.907 0 0 1-.321-.733.88.88 0 0 1 .312-.707.964.964 0 0 1 .343-.191c.133-.047.279-.07.439-.07h.164v1.61h.105a.82.82 0 0 0 .269-.043.68.68 0 0 0 .212-.13.63.63 0 0 0 .144-.209.746.746 0 0 0 .052-.282.651.651 0 0 0-.387-.616l.178-.247a.866.866 0 0 1 .373.338c.093.153.139.336.139.547Zm-2.052 0a.629.629 0 0 0 .191.464.724.724 0 0 0 .486.178h.03v-1.237h-.048a.675.675 0 0 0-.477.165.543.543 0 0 0-.182.43Zm1.636-2.972v.017c.277.136.416.355.416.656a.848.848 0 0 1-.082.377.842.842 0 0 1-.234.291 1.137 1.137 0 0 1-.369.182 1.786 1.786 0 0 1-.486.061c-.18 0-.342-.02-.486-.061a1.117 1.117 0 0 1-.369-.182.845.845 0 0 1-.235-.291.848.848 0 0 1-.082-.377c0-.157.035-.29.104-.4a.626.626 0 0 1 .313-.256v-.017h-1.337v-.347h3.211v.347h-.364Zm.104.577a.792.792 0 0 0-.03-.221.621.621 0 0 0-.087-.187.455.455 0 0 0-.143-.121.398.398 0 0 0-.196-.048h-.833a.316.316 0 0 0-.169.048.402.402 0 0 0-.139.121.577.577 0 0 0-.087.187.696.696 0 0 0-.035.221c0 .197.063.352.187.465a.684.684 0 0 0 .482.169h.382a.701.701 0 0 0 .486-.169.606.606 0 0 0 .182-.465Zm.312-3.36c0 .208-.039.383-.117.525a1.222 1.222 0 0 1-.321.36l-.2-.247a.995.995 0 0 0 .256-.291.773.773 0 0 0 .087-.373.547.547 0 0 0-.095-.343.32.32 0 0 0-.269-.126.31.31 0 0 0-.222.087c-.063.055-.107.156-.13.303l-.026.178c-.014.105-.036.2-.065.287a.928.928 0 0 1-.121.23.592.592 0 0 1-.191.152.652.652 0 0 1-.269.052.63.63 0 0 1-.287-.061.574.574 0 0 1-.208-.165.724.724 0 0 1-.122-.256 1.114 1.114 0 0 1-.043-.317.98.98 0 0 1 .095-.455c.064-.125.152-.233.265-.326l.208.23a.676.676 0 0 0-.186.217.686.686 0 0 0-.087.36c0 .145.032.255.096.33a.31.31 0 0 0 .251.109c.11 0 .19-.037.239-.109a.846.846 0 0 0 .108-.321l.026-.174c.038-.248.11-.425.217-.529a.56.56 0 0 1 .413-.156c.217 0 .387.074.512.221.124.148.186.35.186.608Zm0-2.284a.934.934 0 0 1-.316.733 1.178 1.178 0 0 1-.369.204 1.603 1.603 0 0 1-.486.069c-.177 0-.337-.023-.482-.069a1.095 1.095 0 0 1-.369-.204.91.91 0 0 1-.321-.733.885.885 0 0 1 .312-.708.98.98 0 0 1 .343-.191c.133-.046.279-.069.439-.069h.164v1.61h.105a.847.847 0 0 0 .269-.043.625.625 0 0 0 .356-.339.746.746 0 0 0 .052-.282.651.651 0 0 0-.387-.616l.178-.248a.875.875 0 0 1 .373.339c.093.153.139.335.139.547Zm-2.052 0a.629.629 0 0 0 .191.464.724.724 0 0 0 .486.178h.03v-1.237h-.048a.675.675 0 0 0-.477.165.542.542 0 0 0-.182.43Zm2.052-2.373c0 .156-.027.296-.082.421a.876.876 0 0 1-.234.316 1.12 1.12 0 0 1-.369.196 1.706 1.706 0 0 1-.486.065c-.18 0-.342-.022-.486-.065a1.1 1.1 0 0 1-.369-.196.879.879 0 0 1-.235-.316 1.034 1.034 0 0 1-.082-.421c0-.223.049-.401.148-.534a.867.867 0 0 1 .377-.304l.148.291a.522.522 0 0 0-.269.199.6.6 0 0 0-.096.348c0 .104.017.195.052.273a.501.501 0 0 0 .139.195.58.58 0 0 0 .213.118c.081.026.17.039.269.039h.382a.746.746 0 0 0 .486-.157c.124-.107.186-.263.186-.468 0-.281-.13-.483-.39-.608l.169-.252a.885.885 0 0 1 .386.326c.096.142.143.32.143.534Zm-.416-2.73v.018c.052.023.104.052.156.087a.564.564 0 0 1 .134.121.622.622 0 0 1 .092.178.77.77 0 0 1 .034.243c0 .231-.073.415-.221.551-.15.136-.362.204-.634.204h-1.436v-.347h1.376c.402 0 .603-.171.603-.512a.772.772 0 0 0-.026-.2.538.538 0 0 0-.078-.173.378.378 0 0 0-.326-.17h-1.549v-.347h2.239v.347h-.364Zm.364-1.086h-2.239v-.347h.412v-.022a.673.673 0 0 1-.286-.217c-.084-.104-.126-.247-.126-.43v-.134h.347v.204c0 .188.036.335.109.443.069.104.157.156.264.156h1.519v.347Zm-2.764-1.767c0 .075-.017.13-.052.165a.213.213 0 0 1-.143.048h-.057a.197.197 0 0 1-.139-.048c-.037-.035-.056-.09-.056-.165 0-.075.019-.129.056-.161a.191.191 0 0 1 .139-.052h.057c.058 0 .105.018.143.052.035.032.052.086.052.161Zm.525.173v-.347h2.239v.347h-2.239Zm2.239-1.579c0 .121-.033.214-.1.278a.396.396 0 0 1-.269.091h-1.566v.369h-.304v-.209c0-.075-.014-.126-.043-.152-.032-.029-.086-.043-.161-.043h-.417v-.312h.621v-.491h.304v.491h1.631v-.456h.304v.434Zm-2.239-2.407v-.343l2.76 1.003c.067.026.122.052.165.078a.325.325 0 0 1 .108.095.395.395 0 0 1 .057.144c.011.055.017.123.017.204v.177h-.304v-.351l-.477-.169-2.326.837v-.347l1.523-.538.365-.104v-.022l-.365-.121-1.523-.543Zm2.291-2.484c0 .209-.039.384-.117.526a1.247 1.247 0 0 1-.321.36l-.2-.248a.98.98 0 0 0 .256-.29.774.774 0 0 0 .087-.374.546.546 0 0 0-.095-.342.32.32 0 0 0-.269-.126.314.314 0 0 0-.222.086c-.063.055-.107.157-.13.304l-.026.178c-.014.104-.036.2-.065.287a.946.946 0 0 1-.121.23.577.577 0 0 1-.191.151.636.636 0 0 1-.269.053.642.642 0 0 1-.287-.061.595.595 0 0 1-.208-.165.724.724 0 0 1-.122-.256 1.114 1.114 0 0 1-.043-.317c0-.182.032-.334.095-.456.064-.124.152-.232.265-.325l.208.23a.665.665 0 0 0-.186.217.68.68 0 0 0-.087.36c0 .145.032.255.096.33a.31.31 0 0 0 .251.108c.11 0 .19-.036.239-.108a.846.846 0 0 0 .108-.321l.026-.174c.038-.249.11-.425.217-.529a.56.56 0 0 1 .413-.156c.217 0 .387.073.512.221.124.147.186.35.186.607Zm0-2.288c0 .151-.027.288-.082.412a.925.925 0 0 1-.234.322 1.197 1.197 0 0 1-.369.203c-.145.05-.307.074-.486.074-.177 0-.337-.024-.482-.074a1.111 1.111 0 0 1-.369-.203.902.902 0 0 1-.239-.322 1.004 1.004 0 0 1-.082-.412c0-.15.027-.286.082-.408a.907.907 0 0 1 .239-.321c.101-.09.224-.159.369-.208.145-.049.305-.074.482-.074.179 0 .341.025.486.074.141.049.264.118.369.208a.93.93 0 0 1 .234.321.982.982 0 0 1 .082.408Zm-.308 0a.634.634 0 0 0-.173-.46c-.116-.118-.293-.178-.53-.178h-.321c-.237 0-.414.06-.529.178a.63.63 0 0 0-.174.46.63.63 0 0 0 .174.46c.115.119.292.178.529.178h.321c.237 0 .414-.059.53-.178a.633.633 0 0 0 .173-.46Zm.256-1.951c0 .122-.033.214-.1.278a.378.378 0 0 1-.26.091h-2.851v-.347h2.907v-.33h.304v.308Zm-.364-2.193v.017c.052.023.104.052.156.087a.586.586 0 0 1 .134.121c.038.05.068.109.092.178a.78.78 0 0 1 .034.243c0 .232-.073.415-.221.551-.15.136-.362.204-.634.204h-1.436v-.347h1.376c.402 0 .603-.17.603-.512a.765.765 0 0 0-.026-.199.555.555 0 0 0-.078-.174.378.378 0 0 0-.13-.122.395.395 0 0 0-.196-.047h-1.549v-.347h2.239v.347h-.364Zm.364-1.581c0 .121-.033.214-.1.277a.391.391 0 0 1-.269.091h-1.566v.369h-.304v-.208c0-.075-.014-.126-.043-.152-.032-.029-.086-.043-.161-.043h-.417v-.313h.621v-.49h.304v.49h1.631v-.455h.304v.434Zm-2.764-1.201c0 .075-.017.13-.052.165a.213.213 0 0 1-.143.048h-.057a.197.197 0 0 1-.139-.048c-.037-.035-.056-.09-.056-.165 0-.075.019-.128.056-.16a.187.187 0 0 1 .139-.052h.057c.058 0 .105.017.143.052.035.032.052.085.052.16Zm.525.174v-.347h2.239v.347h-2.239Zm2.291-1.931c0 .15-.027.288-.082.412a.93.93 0 0 1-.234.321 1.178 1.178 0 0 1-.369.204 1.512 1.512 0 0 1-.486.074c-.177 0-.337-.025-.482-.074a1.095 1.095 0 0 1-.369-.204.907.907 0 0 1-.239-.321 1.007 1.007 0 0 1-.082-.412c0-.151.027-.287.082-.408a.89.89 0 0 1 .239-.321 1.07 1.07 0 0 1 .369-.209c.145-.049.305-.073.482-.073.179 0 .341.024.486.073.141.05.264.119.369.209a.912.912 0 0 1 .234.321.975.975 0 0 1 .082.408Zm-.308 0a.633.633 0 0 0-.173-.46c-.116-.119-.293-.178-.53-.178h-.321c-.237 0-.414.059-.529.178a.63.63 0 0 0-.174.46.63.63 0 0 0 .174.46c.115.118.292.178.529.178h.321c.237 0 .414-.06.53-.178a.634.634 0 0 0 .173-.46Zm.256-1.582h-2.239v-.348h.365v-.017a.743.743 0 0 1-.304-.23.662.662 0 0 1-.113-.403c0-.232.075-.414.226-.547.147-.136.357-.204.629-.204h1.436v.347h-1.375c-.403 0-.604.169-.604.508 0 .069.009.137.026.204a.606.606 0 0 0 .079.173.395.395 0 0 0 .134.126.377.377 0 0 0 .187.043h1.553v.348Zm5.636 67.388v.017c.052.023.104.052.156.087a.612.612 0 0 1 .135.121.661.661 0 0 1 .125.421c0 .232-.073.415-.221.551-.15.136-.362.204-.634.204h-1.436v-.347h1.376c.402 0 .603-.17.603-.512a.765.765 0 0 0-.026-.199.533.533 0 0 0-.078-.174.378.378 0 0 0-.13-.122.395.395 0 0 0-.196-.047h-1.549v-.347h2.239v.347h-.364Zm.416-1.759c0 .208-.039.383-.117.525a1.222 1.222 0 0 1-.321.36l-.2-.247a.995.995 0 0 0 .256-.291.773.773 0 0 0 .087-.373.547.547 0 0 0-.095-.343.32.32 0 0 0-.269-.126.31.31 0 0 0-.222.087c-.063.055-.107.156-.13.303l-.026.178c-.014.105-.036.2-.065.287a.928.928 0 0 1-.121.23.592.592 0 0 1-.191.152.652.652 0 0 1-.269.052.63.63 0 0 1-.287-.061.574.574 0 0 1-.208-.165.724.724 0 0 1-.122-.256 1.114 1.114 0 0 1-.043-.317.98.98 0 0 1 .095-.455c.064-.125.152-.233.265-.326l.208.23a.676.676 0 0 0-.186.217.686.686 0 0 0-.087.36c0 .145.032.255.096.33a.31.31 0 0 0 .251.109c.11 0 .19-.037.239-.109a.846.846 0 0 0 .108-.321l.026-.174c.038-.248.11-.425.217-.529a.56.56 0 0 1 .413-.156c.217 0 .387.074.512.221.124.148.186.35.186.608Zm0-2.284a.934.934 0 0 1-.316.733 1.178 1.178 0 0 1-.369.204 1.603 1.603 0 0 1-.486.069c-.177 0-.337-.023-.482-.069a1.095 1.095 0 0 1-.369-.204.91.91 0 0 1-.321-.733.885.885 0 0 1 .312-.708.98.98 0 0 1 .343-.191c.133-.046.279-.069.439-.069h.164v1.61h.105a.847.847 0 0 0 .269-.043.625.625 0 0 0 .356-.339.746.746 0 0 0 .052-.282.651.651 0 0 0-.387-.616l.178-.248a.875.875 0 0 1 .373.339c.093.153.139.335.139.547Zm-2.052 0a.629.629 0 0 0 .191.464.724.724 0 0 0 .486.178h.03v-1.237h-.048a.675.675 0 0 0-.477.165.542.542 0 0 0-.182.43Zm1.636-2.972v.017c.277.136.416.355.416.655a.852.852 0 0 1-.082.378.842.842 0 0 1-.234.291 1.137 1.137 0 0 1-.369.182c-.145.04-.307.061-.486.061-.18 0-.342-.021-.486-.061a1.117 1.117 0 0 1-.369-.182.845.845 0 0 1-.235-.291.852.852 0 0 1-.082-.378c0-.156.035-.289.104-.399a.621.621 0 0 1 .313-.256v-.017h-1.337v-.347h3.211v.347h-.364Zm.104.577a.792.792 0 0 0-.03-.221.61.61 0 0 0-.087-.187.443.443 0 0 0-.143-.121.398.398 0 0 0-.196-.048h-.833a.316.316 0 0 0-.169.048.392.392 0 0 0-.139.121.567.567 0 0 0-.087.187.696.696 0 0 0-.035.221c0 .197.063.351.187.464a.68.68 0 0 0 .482.17h.382a.697.697 0 0 0 .486-.17.603.603 0 0 0 .182-.464Zm-2.951-2.688v-.347h1.337v-.018a.623.623 0 0 1-.313-.251.761.761 0 0 1-.104-.404.805.805 0 0 1 .317-.664c.101-.081.224-.142.369-.182.144-.043.306-.065.486-.065.179 0 .341.022.486.065.144.04.267.101.369.182a.802.802 0 0 1 .316.664.678.678 0 0 1-.416.655v.018h.364v.347h-3.211Zm2.951-.924a.606.606 0 0 0-.182-.465.701.701 0 0 0-.486-.169h-.382c-.2 0-.36.057-.482.169a.598.598 0 0 0-.187.465.735.735 0 0 0 .122.408.437.437 0 0 0 .139.125.34.34 0 0 0 .169.044h.833a.431.431 0 0 0 .196-.044.498.498 0 0 0 .143-.125.62.62 0 0 0 .087-.183.837.837 0 0 0 .03-.225Zm-1.979-2.952v-.343l2.76 1.003c.067.026.122.052.165.078a.314.314 0 0 1 .165.238c.011.055.017.123.017.204v.178h-.304v-.351l-.477-.17-2.326.838v-.347l1.523-.538.365-.104v-.022l-.365-.122-1.523-.542Zm2.239-2.306c0 .122-.033.214-.1.278a.391.391 0 0 1-.269.091h-1.566v.369h-.304v-.209c0-.075-.014-.125-.043-.151-.032-.029-.086-.044-.161-.044h-.417v-.312h.621v-.491h.304v.491h1.632v-.456h.303v.434Zm-3.211-1.027v-.347h1.337v-.017a.743.743 0 0 1-.304-.23.663.663 0 0 1-.113-.404c0-.231.075-.413.226-.547.147-.136.357-.203.629-.203h1.436v.347h-1.375c-.403 0-.604.169-.604.507 0 .07.009.138.026.204a.6.6 0 0 0 .079.174.395.395 0 0 0 .134.126.377.377 0 0 0 .187.043h1.553v.347h-3.211Zm3.263-3.308a.93.93 0 0 1-.316.733 1.178 1.178 0 0 1-.369.204c-.145.047-.307.07-.486.07-.177 0-.337-.023-.482-.07a1.095 1.095 0 0 1-.369-.204.907.907 0 0 1-.321-.733.89.89 0 0 1 .312-.707.964.964 0 0 1 .343-.191c.133-.047.279-.07.439-.07h.164v1.61h.105a.82.82 0 0 0 .269-.043.68.68 0 0 0 .212-.13.63.63 0 0 0 .144-.209.742.742 0 0 0 .052-.282.651.651 0 0 0-.387-.616l.178-.247a.866.866 0 0 1 .373.338c.093.154.139.336.139.547Zm-2.052 0c0 .096.017.182.052.26a.566.566 0 0 0 .139.204c.06.055.133.099.217.131.081.031.17.047.269.047h.03v-1.236h-.048c-.199 0-.358.054-.477.164a.543.543 0 0 0-.182.43Zm-1.211-2.565v-.348h1.337v-.017a.63.63 0 0 1-.313-.252.755.755 0 0 1-.104-.403.802.802 0 0 1 .317-.664c.101-.081.224-.142.369-.182.144-.044.306-.065.486-.065.179 0 .341.021.486.065.144.04.267.101.369.182a.799.799 0 0 1 .316.664.678.678 0 0 1-.416.655v.017h.364v.348h-3.211Zm2.951-.925a.605.605 0 0 0-.182-.464.697.697 0 0 0-.486-.169h-.382a.68.68 0 0 0-.482.169.598.598 0 0 0-.187.464.742.742 0 0 0 .122.408.452.452 0 0 0 .139.126.34.34 0 0 0 .169.043h.833a.431.431 0 0 0 .196-.043.517.517 0 0 0 .143-.126.627.627 0 0 0 .087-.182.844.844 0 0 0 .03-.226Zm-2.504-1.766c0 .075-.017.13-.052.165a.213.213 0 0 1-.143.047h-.057a.197.197 0 0 1-.139-.047c-.037-.035-.056-.09-.056-.165 0-.075.019-.129.056-.161a.187.187 0 0 1 .139-.052h.057c.058 0 .105.017.143.052.035.032.052.086.052.161Zm.525.173v-.347h2.239v.347h-2.239Zm2.487-2.972c.231 0 .4.091.507.273.11.18.165.45.165.812 0 .35-.047.601-.143.755a.454.454 0 0 1-.408.23.405.405 0 0 1-.286-.096.564.564 0 0 1-.148-.26h-.048a.322.322 0 0 1-.312.2c-.113 0-.198-.037-.256-.109a.688.688 0 0 1-.135-.278h-.017a.744.744 0 0 1-.273.313.78.78 0 0 1-.413.108.782.782 0 0 1-.312-.061.669.669 0 0 1-.243-.169.804.804 0 0 1-.161-.264 1.037 1.037 0 0 1-.056-.348c0-.159.029-.301.087-.425h-.039a.347.347 0 0 1-.213-.061c-.058-.04-.087-.107-.087-.199v-.334h.304v.425h.143a.716.716 0 0 1 .252-.187.739.739 0 0 1 .325-.069c.113 0 .217.02.313.061.095.04.178.098.247.173a.756.756 0 0 1 .156.265 1.065 1.065 0 0 1 .035.564c.02.075.051.143.091.204a.178.178 0 0 0 .161.091c.066 0 .111-.032.134-.095a.717.717 0 0 0 .035-.248v-.477c0-.278.054-.479.161-.603a.527.527 0 0 1 .434-.191Zm.026.325a.264.264 0 0 0-.217.104c-.052.067-.078.187-.078.361v.746c.063.139.164.208.303.208a.336.336 0 0 0 .252-.108c.069-.075.104-.201.104-.378v-.321c0-.194-.03-.344-.091-.451a.296.296 0 0 0-.273-.161Zm-1.298.777a.55.55 0 0 0-.104-.352c-.072-.086-.182-.13-.33-.13h-.121c-.148 0-.256.044-.326.13a.535.535 0 0 0-.108.352c0 .148.036.265.108.352.07.086.178.13.326.13h.121c.148 0 .258-.044.33-.13a.55.55 0 0 0 .104-.352Zm1.272-3.403c.231 0 .4.091.507.273.11.179.165.45.165.811 0 .351-.047.602-.143.756a.454.454 0 0 1-.408.23.405.405 0 0 1-.286-.096.57.57 0 0 1-.148-.26h-.048a.321.321 0 0 1-.312.199c-.113 0-.198-.036-.256-.108a.688.688 0 0 1-.135-.278h-.017a.75.75 0 0 1-.273.313.78.78 0 0 1-.413.108.782.782 0 0 1-.312-.061.68.68 0 0 1-.243-.169.798.798 0 0 1-.161-.265 1.03 1.03 0 0 1-.056-.347c0-.159.029-.301.087-.425h-.039a.347.347 0 0 1-.213-.061c-.058-.04-.087-.107-.087-.199v-.335h.304v.426h.143a.704.704 0 0 1 .252-.187.739.739 0 0 1 .325-.069c.113 0 .217.02.313.06a.72.72 0 0 1 .403.439 1.073 1.073 0 0 1 .035.564c.02.075.051.143.091.204a.178.178 0 0 0 .161.091c.066 0 .111-.032.134-.096a.711.711 0 0 0 .035-.247v-.477c0-.278.054-.479.161-.603a.527.527 0 0 1 .434-.191Zm.026.325a.264.264 0 0 0-.217.104c-.052.067-.078.187-.078.36v.747c.063.139.164.208.303.208a.336.336 0 0 0 .252-.108c.069-.076.104-.201.104-.378v-.321c0-.194-.03-.344-.091-.451a.296.296 0 0 0-.273-.161Zm-1.298.777a.55.55 0 0 0-.104-.352c-.072-.086-.182-.13-.33-.13h-.121c-.148 0-.256.044-.326.13a.535.535 0 0 0-.108.352c0 .147.036.265.108.351.07.087.178.131.326.131h.121c.148 0 .258-.044.33-.131a.548.548 0 0 0 .104-.351Zm1.076-2.324c0 .153-.027.292-.082.417a.944.944 0 0 1-.234.317 1.22 1.22 0 0 1-.369.204 1.603 1.603 0 0 1-.486.069c-.177 0-.337-.023-.482-.069a1.13 1.13 0 0 1-.369-.204.92.92 0 0 1-.239-.317 1.024 1.024 0 0 1-.082-.417.885.885 0 0 1 .312-.707.964.964 0 0 1 .343-.191c.133-.046.279-.07.439-.07h.164v1.61h.105a.82.82 0 0 0 .269-.043.68.68 0 0 0 .212-.13.625.625 0 0 0 .144-.208.747.747 0 0 0 .052-.283.653.653 0 0 0-.387-.616l.178-.247a.866.866 0 0 1 .373.338c.093.154.139.336.139.547Zm-2.052 0a.634.634 0 0 0 .191.464c.06.055.133.099.217.131.081.031.17.047.269.047h.03v-1.236h-.048a.675.675 0 0 0-.477.165.541.541 0 0 0-.182.429Zm2.052-2.212c0 .208-.039.383-.117.525a1.222 1.222 0 0 1-.321.36l-.2-.247a.995.995 0 0 0 .256-.291.773.773 0 0 0 .087-.373.547.547 0 0 0-.095-.343.32.32 0 0 0-.269-.126.31.31 0 0 0-.222.087c-.063.055-.107.156-.13.304l-.026.177c-.014.105-.036.2-.065.287a.928.928 0 0 1-.121.23.58.58 0 0 1-.191.152.652.652 0 0 1-.269.052.63.63 0 0 1-.287-.061.574.574 0 0 1-.208-.165.716.716 0 0 1-.122-.256 1.114 1.114 0 0 1-.043-.317.98.98 0 0 1 .095-.455c.064-.125.152-.233.265-.326l.208.23a.676.676 0 0 0-.186.217.686.686 0 0 0-.087.36c0 .145.032.255.096.33.06.073.144.109.251.109.11 0 .19-.036.239-.109a.846.846 0 0 0 .108-.321l.026-.173c.038-.249.11-.426.217-.53a.56.56 0 0 1 .413-.156c.217 0 .387.074.512.221.124.148.186.35.186.608Zm-.052-1.907c0 .121-.033.214-.1.277a.391.391 0 0 1-.269.091h-1.566v.369h-.304v-.208c0-.075-.014-.126-.043-.152-.032-.029-.086-.043-.161-.043h-.417v-.313h.621v-.49h.304v.49h1.632v-.455h.303v.434Zm0-2.087h-3.029v-1.849h.321v1.484h1.016v-1.397h.321v1.397h1.05v-1.484h.321v1.849Zm0-2.496h-2.239v-.347h.365v-.017a.743.743 0 0 1-.304-.23.663.663 0 0 1-.113-.404c0-.231.075-.413.226-.547.147-.136.357-.204.629-.204h1.436v.348h-1.375c-.403 0-.604.169-.604.507 0 .07.009.138.026.204a.6.6 0 0 0 .079.174.395.395 0 0 0 .134.126.377.377 0 0 0 .187.043h1.553v.347Zm0-2.961c0 .122-.033.214-.1.278a.391.391 0 0 1-.269.091h-1.566v.369h-.304v-.208c0-.076-.014-.126-.043-.152-.032-.029-.086-.044-.161-.044h-.417v-.312h.621v-.491h.304v.491h1.632v-.456h.303v.434Zm.052-1.851a.934.934 0 0 1-.316.733 1.178 1.178 0 0 1-.369.204 1.603 1.603 0 0 1-.486.069c-.177 0-.337-.023-.482-.069a1.095 1.095 0 0 1-.369-.204.91.91 0 0 1-.321-.733.885.885 0 0 1 .312-.708.98.98 0 0 1 .343-.191c.133-.046.279-.069.439-.069h.164v1.61h.105a.661.661 0 0 0 .481-.174.625.625 0 0 0 .144-.208.746.746 0 0 0 .052-.282.645.645 0 0 0-.387-.616l.178-.248a.868.868 0 0 1 .373.339c.093.153.139.335.139.547Zm-2.052 0a.629.629 0 0 0 .191.464.724.724 0 0 0 .486.178h.03v-1.237h-.048a.675.675 0 0 0-.477.165.542.542 0 0 0-.182.43Zm2-1.54h-2.239v-.347h.412v-.022a.681.681 0 0 1-.286-.217c-.084-.104-.126-.247-.126-.43v-.134h.347v.204c0 .188.036.335.109.442.069.105.157.157.264.157h1.519v.347Zm-2.239-1.594v-.347h.365v-.017a.63.63 0 0 1-.313-.252.759.759 0 0 1-.104-.404.802.802 0 0 1 .317-.663 1.03 1.03 0 0 1 .369-.183c.144-.043.306-.065.486-.065.179 0 .341.022.486.065.144.041.267.102.369.183a.799.799 0 0 1 .316.663.679.679 0 0 1-.416.656v.017h1.232v.347h-3.107Zm1.979-.924a.602.602 0 0 0-.182-.464.697.697 0 0 0-.486-.17h-.382a.68.68 0 0 0-.482.17.595.595 0 0 0-.187.464.746.746 0 0 0 .122.408.452.452 0 0 0 .139.126.34.34 0 0 0 .169.043h.833a.431.431 0 0 0 .196-.043.517.517 0 0 0 .143-.126.627.627 0 0 0 .087-.182.85.85 0 0 0 .03-.226Zm.26-1.593h-2.239v-.347h.412v-.022a.673.673 0 0 1-.286-.217c-.084-.104-.126-.247-.126-.429v-.135h.347v.204c0 .188.036.336.109.443.069.104.157.156.264.156h1.519v.347Zm-2.764-1.767c0 .075-.017.13-.052.165a.213.213 0 0 1-.143.048h-.057a.197.197 0 0 1-.139-.048c-.037-.035-.056-.09-.056-.165 0-.075.019-.129.056-.161a.191.191 0 0 1 .139-.052h.057c.058 0 .105.018.143.052.035.032.052.086.052.161Zm.525.174v-.348h2.239v.348h-2.239Zm2.291-1.758c0 .208-.039.383-.117.525a1.222 1.222 0 0 1-.321.36l-.2-.247a.995.995 0 0 0 .256-.291.77.77 0 0 0 .087-.373.547.547 0 0 0-.095-.343.32.32 0 0 0-.269-.126.31.31 0 0 0-.222.087c-.063.055-.107.156-.13.304l-.026.178a1.56 1.56 0 0 1-.065.286.91.91 0 0 1-.121.23.58.58 0 0 1-.191.152.636.636 0 0 1-.269.052.63.63 0 0 1-.287-.061.582.582 0 0 1-.208-.164.729.729 0 0 1-.122-.257 1.107 1.107 0 0 1-.043-.316c0-.183.032-.334.095-.456.064-.124.152-.233.265-.325l.208.23a.665.665 0 0 0-.186.217.68.68 0 0 0-.087.36c0 .144.032.254.096.33a.31.31 0 0 0 .251.108c.11 0 .19-.036.239-.108a.858.858 0 0 0 .108-.322l.026-.173c.038-.249.11-.425.217-.53a.56.56 0 0 1 .413-.156c.217 0 .387.074.512.221.124.148.186.351.186.608Zm0-2.284a.93.93 0 0 1-.316.733 1.178 1.178 0 0 1-.369.204c-.145.047-.307.07-.486.07-.177 0-.337-.023-.482-.07a1.095 1.095 0 0 1-.369-.204.907.907 0 0 1-.321-.733.885.885 0 0 1 .312-.707.964.964 0 0 1 .343-.191c.133-.047.279-.07.439-.07h.164v1.61h.105a.82.82 0 0 0 .269-.043.68.68 0 0 0 .212-.13.613.613 0 0 0 .143-.209.72.72 0 0 0 .053-.282.647.647 0 0 0-.387-.616l.178-.247a.866.866 0 0 1 .373.338c.093.154.139.336.139.547Zm-2.052 0c0 .096.017.182.052.26a.566.566 0 0 0 .139.204c.06.055.133.099.217.131.081.031.17.047.269.047h.03v-1.236h-.048a.679.679 0 0 0-.477.164.545.545 0 0 0-.182.43Zm2.052-2.212c0 .208-.039.383-.117.525a1.222 1.222 0 0 1-.321.36l-.2-.247a.995.995 0 0 0 .256-.291.773.773 0 0 0 .087-.373.547.547 0 0 0-.095-.343.32.32 0 0 0-.269-.126.31.31 0 0 0-.222.087c-.063.055-.107.156-.13.303l-.026.178c-.014.105-.036.2-.065.287a.928.928 0 0 1-.121.23.592.592 0 0 1-.191.152.652.652 0 0 1-.269.052.63.63 0 0 1-.287-.061.574.574 0 0 1-.208-.165.724.724 0 0 1-.122-.256 1.114 1.114 0 0 1-.043-.317.98.98 0 0 1 .095-.455c.064-.125.152-.233.265-.326l.208.23a.676.676 0 0 0-.186.217.686.686 0 0 0-.087.36c0 .145.032.255.096.33a.31.31 0 0 0 .251.109c.11 0 .19-.037.239-.109a.846.846 0 0 0 .108-.321l.026-.174c.038-.248.11-.425.217-.529a.56.56 0 0 1 .413-.156c.217 0 .387.074.512.221.124.148.186.35.186.608Zm-.559-1.643c0-.092.024-.159.073-.199a.255.255 0 0 1 .183-.065h.06a.89.89 0 0 1 .391.104c.145.069.27.166.377.291v.29a1.728 1.728 0 0 0-.264-.208.792.792 0 0 0-.274-.117.217.217 0 0 1-.082.13.27.27 0 0 1-.148.039h-.06a.266.266 0 0 1-.183-.061c-.049-.043-.073-.111-.073-.204Zm-2.704-1.986v-.347h1.337v-.018a.628.628 0 0 1-.313-.251.761.761 0 0 1-.104-.404.81.81 0 0 1 .317-.664c.101-.081.224-.142.369-.182.144-.044.306-.065.486-.065.179 0 .341.021.486.065.144.04.267.101.369.182a.807.807 0 0 1 .316.664.678.678 0 0 1-.416.655v.018h.364v.347h-3.211Zm2.951-.925a.605.605 0 0 0-.182-.464.697.697 0 0 0-.486-.169h-.382a.68.68 0 0 0-.482.169.598.598 0 0 0-.187.464.737.737 0 0 0 .122.408.452.452 0 0 0 .139.126.34.34 0 0 0 .169.044h.833a.431.431 0 0 0 .196-.044.517.517 0 0 0 .143-.126.614.614 0 0 0 .087-.182.839.839 0 0 0 .03-.226Zm.26-1.592h-2.239v-.348h.412v-.021a.681.681 0 0 1-.286-.217c-.084-.104-.126-.248-.126-.43v-.134h.347v.203c0 .189.036.336.109.443.069.104.157.156.264.156h1.519v.348Zm.052-2.419c0 .15-.027.288-.082.412a.912.912 0 0 1-.234.321 1.178 1.178 0 0 1-.369.204c-.145.05-.307.074-.486.074-.177 0-.337-.024-.482-.074a1.095 1.095 0 0 1-.369-.204.89.89 0 0 1-.239-.321 1.007 1.007 0 0 1-.082-.412c0-.15.027-.286.082-.408a.907.907 0 0 1 .239-.321c.101-.09.224-.159.369-.208.145-.049.305-.074.482-.074.179 0 .341.025.486.074.141.049.264.118.369.208a.93.93 0 0 1 .234.321.982.982 0 0 1 .082.408Zm-.308 0a.634.634 0 0 0-.173-.46c-.116-.119-.293-.178-.53-.178h-.321c-.237 0-.414.059-.529.178a.63.63 0 0 0-.174.46.63.63 0 0 0 .174.46c.115.119.292.178.529.178h.321c.237 0 .414-.059.53-.178a.634.634 0 0 0 .173-.46Zm-.108-2.962v.017c.052.023.104.052.156.087a.569.569 0 0 1 .134.122.609.609 0 0 1 .092.178.77.77 0 0 1 .034.243c0 .231-.073.415-.221.551-.15.136-.362.204-.634.204h-1.436v-.348h1.376c.402 0 .603-.17.603-.512a.765.765 0 0 0-.026-.199.555.555 0 0 0-.078-.174.375.375 0 0 0-.326-.169h-1.549v-.347h2.239v.347h-.364Zm.612-2.974c.231 0 .4.091.507.273.11.18.165.45.165.812 0 .35-.047.601-.143.755a.454.454 0 0 1-.408.23.405.405 0 0 1-.286-.096.564.564 0 0 1-.148-.26h-.048a.322.322 0 0 1-.312.2c-.113 0-.198-.037-.256-.109a.688.688 0 0 1-.135-.278h-.017a.744.744 0 0 1-.273.313.78.78 0 0 1-.413.108.8.8 0 0 1-.312-.06.683.683 0 0 1-.243-.17.804.804 0 0 1-.161-.264 1.037 1.037 0 0 1-.056-.348c0-.159.029-.3.087-.425h-.039a.347.347 0 0 1-.213-.061c-.058-.04-.087-.107-.087-.199v-.334h.304v.425h.143a.716.716 0 0 1 .252-.187.739.739 0 0 1 .325-.069c.113 0 .217.02.313.061.095.04.178.098.247.173a.756.756 0 0 1 .156.265 1.065 1.065 0 0 1 .035.564c.02.075.051.143.091.204a.178.178 0 0 0 .161.091c.066 0 .111-.032.134-.095a.717.717 0 0 0 .035-.248v-.477c0-.278.054-.479.161-.603a.527.527 0 0 1 .434-.191Zm.026.325a.264.264 0 0 0-.217.104c-.052.067-.078.187-.078.361v.746c.063.139.164.208.303.208a.336.336 0 0 0 .252-.108c.069-.075.104-.201.104-.378v-.321c0-.194-.03-.344-.091-.451a.296.296 0 0 0-.273-.161Zm-1.298.777a.548.548 0 0 0-.104-.351c-.072-.087-.182-.131-.33-.131h-.121c-.148 0-.256.044-.326.131a.532.532 0 0 0-.108.351c0 .148.036.265.108.352.07.086.178.13.326.13h.121c.148 0 .258-.044.33-.13a.55.55 0 0 0 .104-.352Zm-2.187-1.507v-.347h1.337v-.018a.734.734 0 0 1-.304-.23.66.66 0 0 1-.113-.403c0-.232.075-.414.226-.547.147-.136.357-.204.629-.204h1.436v.347h-1.375c-.403 0-.604.169-.604.508 0 .069.009.137.026.204a.606.606 0 0 0 .079.173.395.395 0 0 0 .134.126.377.377 0 0 0 .187.044h1.553v.347h-3.211Zm3.211-2.961c0 .121-.033.214-.1.277a.392.392 0 0 1-.269.092h-1.566v.368h-.304v-.208c0-.075-.014-.126-.043-.152-.032-.029-.086-.043-.161-.043h-.417v-.313h.621v-.49h.304v.49h1.631v-.455h.304v.434Zm6 76.985c0 .121-.033.214-.1.278a.396.396 0 0 1-.269.091h-1.566v.369h-.304v-.209c0-.075-.014-.125-.043-.151-.032-.029-.086-.044-.161-.044h-.417v-.312h.621v-.491h.304v.491h1.632v-.456h.303v.434Zm.052-1.856c0 .15-.027.288-.082.412a.912.912 0 0 1-.234.321 1.178 1.178 0 0 1-.369.204c-.145.05-.307.074-.486.074-.177 0-.337-.024-.482-.074a1.095 1.095 0 0 1-.369-.204.89.89 0 0 1-.239-.321 1.007 1.007 0 0 1-.082-.412c0-.15.027-.286.082-.408a.907.907 0 0 1 .239-.321c.101-.09.224-.159.369-.208.145-.049.305-.074.482-.074.179 0 .341.025.486.074.141.049.264.118.369.208a.93.93 0 0 1 .234.321.982.982 0 0 1 .082.408Zm-.308 0a.634.634 0 0 0-.173-.46c-.116-.119-.293-.178-.53-.178h-.321c-.237 0-.414.059-.529.178a.63.63 0 0 0-.174.46.63.63 0 0 0 .174.46c.115.119.292.178.529.178h.321c.237 0 .414-.059.53-.178a.634.634 0 0 0 .173-.46Zm-1.983-3.988v-.342l2.76 1.002c.067.026.122.052.165.078a.316.316 0 0 1 .108.096.382.382 0 0 1 .057.143c.011.055.017.123.017.204v.178h-.304v-.352l-.477-.169-2.326.837v-.347l1.523-.538.365-.104v-.022l-.365-.121-1.523-.543Zm2.291-1.61c0 .15-.027.288-.082.412a.921.921 0 0 1-.234.321 1.178 1.178 0 0 1-.369.204 1.512 1.512 0 0 1-.486.074c-.177 0-.337-.025-.482-.074a1.095 1.095 0 0 1-.369-.204.898.898 0 0 1-.239-.321 1.007 1.007 0 0 1-.082-.412c0-.151.027-.287.082-.408a.89.89 0 0 1 .239-.321 1.07 1.07 0 0 1 .369-.209c.145-.049.305-.073.482-.073.179 0 .341.024.486.073.141.05.264.119.369.209a.912.912 0 0 1 .234.321.975.975 0 0 1 .082.408Zm-.308 0a.633.633 0 0 0-.173-.46c-.116-.119-.293-.178-.53-.178h-.321c-.237 0-.414.059-.529.178a.63.63 0 0 0-.174.46.63.63 0 0 0 .174.46c.115.118.292.178.529.178h.321c.237 0 .414-.06.53-.178a.634.634 0 0 0 .173-.46Zm-.108-2.962v.017c.052.023.104.052.156.087a.586.586 0 0 1 .134.121c.038.05.068.109.092.178a.78.78 0 0 1 .034.243c0 .232-.073.415-.221.551-.15.136-.362.204-.634.204h-1.436v-.347h1.376c.402 0 .603-.17.603-.512a.765.765 0 0 0-.026-.199.533.533 0 0 0-.078-.174.378.378 0 0 0-.13-.122.395.395 0 0 0-.196-.047h-1.549v-.347h2.239v.347h-.364Zm-1.571-2.234v.365h-.304v-.365h-.451a.566.566 0 0 1-.378-.121c-.095-.081-.143-.204-.143-.369v-.339h.304v.482h.668v-.482h.304v.482h1.935v.347h-1.935Zm1.987-2.115c0 .151-.027.288-.082.413a.93.93 0 0 1-.234.321 1.178 1.178 0 0 1-.369.204 1.512 1.512 0 0 1-.486.074c-.177 0-.337-.025-.482-.074a1.095 1.095 0 0 1-.369-.204.907.907 0 0 1-.239-.321 1.012 1.012 0 0 1-.082-.413c0-.15.027-.286.082-.407a.902.902 0 0 1 .239-.322c.101-.089.224-.159.369-.208.145-.049.305-.074.482-.074.179 0 .341.025.486.074.141.049.264.119.369.208.101.09.179.197.234.322a.974.974 0 0 1 .082.407Zm-.308 0a.634.634 0 0 0-.173-.46c-.116-.118-.293-.177-.53-.177h-.321c-.237 0-.414.059-.529.177a.63.63 0 0 0-.174.46c0 .189.058.342.174.46.115.119.292.178.529.178h.321c.237 0 .414-.059.53-.178a.631.631 0 0 0 .173-.46Zm.256-1.582h-2.239v-.347h.412v-.021a.681.681 0 0 1-.286-.217c-.084-.105-.126-.248-.126-.43v-.135h.347v.204c0 .188.036.336.109.443.069.104.157.156.264.156h1.519v.347Zm-1.935-2.74v.364h-.304v-.364h-.451a.567.567 0 0 1-.378-.122c-.095-.081-.143-.204-.143-.369v-.338h.304v.482h.668v-.482h.304v.482h1.935v.347h-1.935Zm1.935-1.286h-2.239v-.347h.412v-.021a.681.681 0 0 1-.286-.217c-.084-.105-.126-.248-.126-.43v-.135h.347v.204c0 .188.036.336.109.443.069.104.157.156.264.156h1.519v.347Zm.052-2.414c0 .154-.027.292-.082.417a.944.944 0 0 1-.234.317 1.22 1.22 0 0 1-.369.204 1.603 1.603 0 0 1-.486.069c-.177 0-.337-.023-.482-.069a1.13 1.13 0 0 1-.369-.204.92.92 0 0 1-.239-.317 1.021 1.021 0 0 1-.082-.417.885.885 0 0 1 .312-.707.964.964 0 0 1 .343-.191c.133-.046.279-.069.439-.069h.164v1.61h.105a.82.82 0 0 0 .269-.044.68.68 0 0 0 .212-.13.625.625 0 0 0 .144-.208.746.746 0 0 0 .052-.282.653.653 0 0 0-.387-.617l.178-.247a.866.866 0 0 1 .373.338c.093.154.139.336.139.547Zm-2.052 0a.63.63 0 0 0 .191.465.724.724 0 0 0 .486.178h.03v-1.237h-.048a.675.675 0 0 0-.477.165.541.541 0 0 0-.182.429Zm2.052-2.381a.934.934 0 0 1-.316.733 1.178 1.178 0 0 1-.369.204 1.603 1.603 0 0 1-.486.069c-.177 0-.337-.023-.482-.069a1.095 1.095 0 0 1-.369-.204.91.91 0 0 1-.321-.733.885.885 0 0 1 .312-.708.98.98 0 0 1 .343-.191c.133-.046.279-.069.439-.069h.164v1.61h.105a.661.661 0 0 0 .481-.174.625.625 0 0 0 .144-.208.746.746 0 0 0 .052-.282.651.651 0 0 0-.387-.616l.178-.248a.868.868 0 0 1 .373.339c.093.153.139.335.139.547Zm-2.052 0a.629.629 0 0 0 .191.464.724.724 0 0 0 .486.178h.03v-1.237h-.048a.675.675 0 0 0-.477.165.542.542 0 0 0-.182.43Zm2.052-1.677c0 .093-.023.161-.069.204a.264.264 0 0 1-.182.061h-.057a.264.264 0 0 1-.182-.061c-.046-.043-.069-.111-.069-.204 0-.092.023-.159.069-.199a.253.253 0 0 1 .182-.066h.057c.075 0 .136.022.182.066.046.04.069.107.069.199Z"></path><path fill="#FAFAFA" stroke="#606060" d="M210.832 260.985h-29.288V332h52.158v-48.146l-22.87-22.869Z"></path><path fill="#DFDFDF" fill-rule="evenodd" d="M92.953 8.892h.233v17.537h-.233V8.892Zm.471 0h.234v17.537h-.234V8.892Zm.699 0h-.234v17.537h.234V8.892Zm.466 0h1.17v17.537h-1.17V8.892Zm1.642 0h-.234v17.537h.234V8.892Zm9.344 0h.234v17.537h-.234V8.892Zm6.787 0h-.234v17.537h.234V8.892Zm1.403 0h.234v17.537h-.234V8.892Zm.933 0h-.468v17.537h.468V8.892Zm5.843 0h2.338v17.537h-2.338V8.892Zm2.807 0h-.234v17.537h.234V8.892Zm-17.066 0h.935v17.537h-.935V8.892Zm7.246 0h-.935v17.537h.935V8.892Zm-3.036 0h.701v17.537h-.701V8.892Zm-.471 0h-2.338v17.537h2.338V8.892Zm-13.56 0h.702v17.537h-.701V8.892Zm5.609 0h-4.443v17.537h4.443V8.892Z" clip-rule="evenodd"></path><path fill="#DFDFDF" d="m112.709 43.733-3.342-5.787h6.683l-3.341 5.787ZM112.709 54.723l-3.342-5.787h6.683l-3.341 5.787ZM112.709 65.713l-3.342-5.787h6.683l-3.341 5.787ZM17.769 212.093l-1.52-2.63h3.039l-1.52 2.63ZM23.739 210.456h88.623v.862H23.739z"></path><g fill="#DFDFDF" clip-path="url(#b)"><path d="M43.493 264.81h-5.07v5.071h5.07v-5.071ZM51.099 264.81h-5.07v5.071h5.07v-5.071ZM43.493 257.204h-5.07v5.071h5.07v-5.071ZM51.099 257.204h-5.07v5.071h5.07v-5.071ZM43.493 249.599h-5.07v5.07h5.07v-5.07ZM51.099 249.599h-5.07v5.07h5.07v-5.07ZM66.31 257.204h-5.07v5.071h5.07v-5.071ZM73.917 257.204h-5.07v5.071h5.07v-5.071ZM66.31 249.599h-5.07v5.07h5.07v-5.07ZM73.917 249.599h-5.07v5.07h5.07v-5.07ZM81.523 257.204h-5.071v5.071h5.07v-5.071ZM81.523 249.599h-5.071v5.07h5.07v-5.07ZM58.705 280.022h-5.07v5.071h5.07v-5.071ZM66.31 280.022h-5.07v5.071h5.07v-5.071ZM58.705 272.416h-5.07v5.071h5.07v-5.071ZM66.31 272.416h-5.07v5.071h5.07v-5.071ZM73.917 280.022h-5.07v5.071h5.07v-5.071ZM73.917 272.416h-5.07v5.071h5.07v-5.071ZM58.705 234.387h-5.07v5.07h5.07v-5.07ZM51.099 234.387h-5.07v5.07h5.07v-5.07ZM66.31 234.387h-5.07v5.07h5.07v-5.07ZM58.705 226.781h-5.07v5.07h5.07v-5.07ZM66.31 226.781h-5.07v5.07h5.07v-5.07ZM73.917 234.387h-5.07v5.07h5.07v-5.07ZM73.881 226.781h-5.035v5.07h5.035v-5.07ZM81.524 239.457v-5.07h-5.072v5.07h5.072ZM81.523 231.851v-5.07h-5.071v5.07h5.07ZM89.13 234.387h-5.072v5.072h5.072v-5.072ZM89.129 226.781h-5.071v5.07h5.07v-5.07ZM96.734 226.781h-5.07v5.07h5.07v-5.07ZM89.129 280.022h-5.071v5.071h5.07v-5.071ZM96.734 280.022h-5.07v5.071h5.07v-5.071ZM89.129 272.416h-5.071v5.071h5.07v-5.071ZM96.734 272.416h-5.07v5.071h5.07v-5.071ZM89.129 264.81h-5.071v5.071h5.07v-5.071ZM96.734 264.81h-5.07v5.071h5.07v-5.071ZM89.129 257.204h-5.071v5.071h5.07v-5.071ZM96.734 257.204h-5.07v5.071h5.07v-5.071ZM89.129 249.599h-5.071v5.07h5.07v-5.07ZM96.734 249.599h-5.07v5.07h5.07v-5.07ZM43.493 241.993h-5.07v5.07h5.07v-5.07ZM51.099 241.993h-5.07v5.07h5.07v-5.07Z"></path></g><path fill="#DFDFDF" d="M199.818 290.778h-2.932a.814.814 0 0 1-.814-.814v-5.009a2.713 2.713 0 0 1 2.713-2.712h20.558c.45 0 .814.364.814.814v3.4a.813.813 0 0 1-.814.813h-17.897a.814.814 0 0 0-.814.814v1.88c0 .45-.364.814-.814.814Z"></path><path fill="#DFDFDF" fill-rule="evenodd" d="M212.908 293.35h-9.587a7.249 7.249 0 0 0-7.249 7.249v12.51a7.25 7.25 0 0 0 7.249 7.249h9.587a7.249 7.249 0 0 0 7.249-7.249v-12.51a7.248 7.248 0 0 0-7.249-7.249Zm-8.887 5.027a3.274 3.274 0 0 0-3.274 3.274v10.289a3.273 3.273 0 0 0 3.274 3.273h8.184a3.273 3.273 0 0 0 3.273-3.273v-10.289a3.273 3.273 0 0 0-3.273-3.274h-8.184Z" clip-rule="evenodd"></path><g clip-path="url(#c)"><g fill="#DFDFDF" clip-path="url(#d)"><path d="M153.666 270.707h-1.091v1.091h1.091v-1.091ZM154.757 270.707h-1.091v1.091h1.091v-1.091ZM158.031 270.707h-1.092v1.091h1.092v-1.091ZM162.395 270.707h-1.091v1.091h1.091v-1.091ZM153.666 271.798h-1.091v1.092h1.091v-1.092ZM154.757 271.799h-1.091v1.091h1.091v-1.091ZM159.121 271.798h-1.091v1.092h1.091v-1.092ZM161.304 271.798h-1.091v1.092h1.091v-1.092ZM156.939 272.89h-1.091v1.091h1.091v-1.091ZM158.031 272.89h-1.092v1.091h1.092v-1.091ZM160.213 272.89h-1.091v1.091h1.091v-1.091ZM161.304 272.89h-1.091v1.091h1.091v-1.091ZM162.395 272.89h-1.091v1.091h1.091v-1.091ZM153.666 273.981h-1.091v1.091h1.091v-1.091ZM161.304 273.981h-1.091v1.091h1.091v-1.091ZM158.031 275.072h-1.092v1.091h1.092v-1.091ZM160.213 275.072h-1.091v1.091h1.091v-1.091ZM161.304 275.072h-1.091v1.091h1.091v-1.091ZM155.848 276.163h-1.091v1.092h1.091v-1.092Z"></path><path d="M156.939 276.163h-1.091v1.092h1.091v-1.092ZM160.213 276.163h-1.091v1.092h1.091v-1.092ZM153.666 277.255h-1.091v1.091h1.091v-1.091ZM155.848 277.255h-1.091v1.091h1.091v-1.091ZM158.031 277.254h-1.092v1.092h1.092v-1.092Z"></path><path d="M160.213 277.254h-1.091v1.092h1.091v-1.092ZM162.395 277.254h-1.091v1.092h1.091v-1.092ZM153.666 278.346h-1.091v1.091h1.091v-1.091ZM154.757 278.346h-1.091v1.091h1.091v-1.091ZM156.939 278.346h-1.091v1.091h1.091v-1.091ZM158.031 278.346h-1.092v1.091h1.092v-1.091Z"></path><path d="M159.121 278.346h-1.091v1.091h1.091v-1.091ZM161.304 278.346h-1.091v1.091h1.091v-1.091ZM162.395 278.346h-1.091v1.091h1.091v-1.091ZM144.937 279.437h-1.091v1.091h1.091v-1.091ZM147.119 279.437h-1.091v1.091h1.091v-1.091ZM148.21 279.437h-1.091v1.091h1.091v-1.091ZM150.392 279.437h-1.091v1.091h1.091v-1.091ZM151.484 279.437h-1.091v1.091h1.091v-1.091Z"></path><path d="M152.575 279.437h-1.092v1.091h1.092v-1.091ZM154.757 279.437h-1.091v1.091h1.091v-1.091ZM159.121 279.437h-1.091v1.091h1.091v-1.091ZM162.395 279.437h-1.091v1.091h1.091v-1.091ZM164.578 279.437h-1.092v1.091h1.092v-1.091ZM167.851 279.437h-1.091v1.091h1.091v-1.091ZM170.033 279.437h-1.091v1.091h1.091v-1.091ZM171.124 279.437h-1.091v1.091h1.091v-1.091ZM144.937 280.528h-1.091v1.091h1.091v-1.091Z"></path><path d="M146.028 280.528h-1.091v1.091h1.091v-1.091ZM149.301 280.528h-1.091v1.091h1.091v-1.091ZM152.575 280.528h-1.092v1.091h1.092v-1.091ZM153.666 280.528h-1.091v1.091h1.091v-1.091ZM156.939 280.528h-1.091v1.091h1.091v-1.091ZM158.031 280.528h-1.092v1.091h1.092v-1.091ZM160.213 280.528h-1.091v1.091h1.091v-1.091ZM162.395 280.528h-1.091v1.091h1.091v-1.091Z"></path><path d="M163.486 280.528h-1.091v1.091h1.091v-1.091ZM165.668 280.528h-1.091v1.091h1.091v-1.091Z"></path><path d="M166.76 280.528h-1.092v1.091h1.092v-1.091ZM171.124 280.528h-1.091v1.091h1.091v-1.091ZM147.119 281.62h-1.091v1.091h1.091v-1.091ZM149.301 281.62h-1.091v1.091h1.091v-1.091ZM151.484 281.62h-1.091v1.091h1.091v-1.091Z"></path><path d="M152.575 281.62h-1.092v1.091h1.092v-1.091ZM153.666 281.62h-1.091v1.091h1.091v-1.091ZM154.757 281.619h-1.091v1.092h1.091v-1.092ZM155.848 281.62h-1.091v1.091h1.091v-1.091ZM158.031 281.619h-1.092v1.092h1.092v-1.092Z"></path><path d="M159.121 281.62h-1.091v1.091h1.091v-1.091ZM161.304 281.62h-1.091v1.091h1.091v-1.091ZM167.851 281.62h-1.091v1.091h1.091v-1.091ZM168.942 281.62h-1.091v1.091h1.091v-1.091Z"></path><path d="M170.033 281.62h-1.091v1.091h1.091v-1.091ZM171.124 281.62h-1.091v1.091h1.091v-1.091ZM147.119 282.711h-1.091v1.091h1.091v-1.091ZM148.21 282.711h-1.091v1.091h1.091v-1.091Z"></path><path d="M149.301 282.711h-1.091v1.091h1.091v-1.091ZM150.392 282.711h-1.091v1.091h1.091v-1.091ZM153.666 282.711h-1.091v1.091h1.091v-1.091ZM154.757 282.711h-1.091v1.091h1.091v-1.091ZM156.939 282.711h-1.091v1.091h1.091v-1.091ZM158.031 282.711h-1.092v1.091h1.092v-1.091ZM160.213 282.711h-1.091v1.091h1.091v-1.091ZM161.304 282.711h-1.091v1.091h1.091v-1.091ZM162.395 282.711h-1.091v1.091h1.091v-1.091ZM164.578 282.711h-1.092v1.091h1.092v-1.091Z"></path><path d="M165.668 282.711h-1.091v1.091h1.091v-1.091ZM167.851 282.711h-1.091v1.091h1.091v-1.091ZM168.942 282.711h-1.091v1.091h1.091v-1.091ZM171.124 282.711h-1.091v1.091h1.091v-1.091ZM144.937 283.802h-1.091v1.091h1.091v-1.091ZM147.119 283.802h-1.091v1.091h1.091v-1.091ZM150.392 283.802h-1.091v1.091h1.091v-1.091ZM151.484 283.802h-1.091v1.091h1.091v-1.091Z"></path><path d="M152.575 283.802h-1.092v1.091h1.092v-1.091ZM153.666 283.802h-1.091v1.091h1.091v-1.091ZM156.939 283.802h-1.091v1.091h1.091v-1.091ZM159.121 283.802h-1.091v1.091h1.091v-1.091ZM161.304 283.802h-1.091v1.091h1.091v-1.091ZM162.395 283.802h-1.091v1.091h1.091v-1.091Z"></path><path d="M163.486 283.802h-1.091v1.091h1.091v-1.091ZM164.578 283.802h-1.092v1.091h1.092v-1.091Z"></path><path d="M165.668 283.802h-1.091v1.091h1.091v-1.091Z"></path><path d="M166.76 283.802h-1.092v1.091h1.092v-1.091ZM167.851 283.802h-1.091v1.091h1.091v-1.091ZM170.033 283.802h-1.091v1.091h1.091v-1.091ZM171.124 283.802h-1.091v1.091h1.091v-1.091ZM148.21 284.893h-1.091v1.091h1.091v-1.091ZM152.575 284.893h-1.092v1.091h1.092v-1.091ZM156.939 284.893h-1.091v1.091h1.091v-1.091ZM160.213 284.893h-1.091v1.091h1.091v-1.091ZM162.395 284.893h-1.091v1.091h1.091v-1.091ZM164.578 284.893h-1.092v1.091h1.092v-1.091Z"></path><path d="M165.668 284.893h-1.091v1.091h1.091v-1.091ZM167.851 284.893h-1.091v1.091h1.091v-1.091ZM170.033 284.893h-1.091v1.091h1.091v-1.091ZM146.028 285.984h-1.091v1.091h1.091v-1.091ZM148.21 285.984h-1.091v1.091h1.091v-1.091ZM150.392 285.984h-1.091v1.091h1.091v-1.091ZM151.484 285.984h-1.091v1.091h1.091v-1.091Z"></path><path d="M152.575 285.984h-1.092v1.091h1.092v-1.091ZM155.848 285.984h-1.091v1.091h1.091v-1.091ZM158.031 285.984h-1.092v1.092h1.092v-1.092ZM162.395 285.984h-1.091v1.092h1.091v-1.092Z"></path><path d="M163.486 285.984h-1.091v1.092h1.091v-1.092ZM165.668 285.984h-1.091v1.092h1.091v-1.092Z"></path><path d="M166.76 285.984h-1.092v1.091h1.092v-1.091ZM167.851 285.984h-1.091v1.091h1.091v-1.091ZM170.033 285.984h-1.091v1.091h1.091v-1.091ZM144.937 287.075h-1.091v1.091h1.091v-1.091ZM149.301 287.075h-1.091v1.091h1.091v-1.091ZM153.666 287.075h-1.091v1.091h1.091v-1.091ZM154.757 287.075h-1.091v1.092h1.091v-1.092ZM155.848 287.075h-1.091v1.091h1.091v-1.091ZM158.031 287.075h-1.092v1.092h1.092v-1.092Z"></path><path d="M159.121 287.075h-1.091v1.091h1.091v-1.091ZM162.395 287.075h-1.091v1.092h1.091v-1.092ZM170.033 287.075h-1.091v1.091h1.091v-1.091ZM171.124 287.075h-1.091v1.091h1.091v-1.091ZM147.119 288.167h-1.091v1.091h1.091v-1.091ZM151.484 288.167h-1.091v1.091h1.091v-1.091ZM155.848 288.167h-1.091v1.091h1.091v-1.091Z"></path><path d="M156.939 288.167h-1.091v1.091h1.091v-1.091ZM159.121 288.167h-1.091v1.091h1.091v-1.091ZM162.395 288.167h-1.091v1.091h1.091v-1.091Z"></path><path d="M163.486 288.167h-1.091v1.091h1.091v-1.091ZM164.578 288.167h-1.092v1.091h1.092v-1.091Z"></path><path d="M165.668 288.167h-1.091v1.091h1.091v-1.091Z"></path><path d="M166.76 288.167h-1.092v1.091h1.092v-1.091ZM170.033 288.167h-1.091v1.091h1.091v-1.091ZM153.666 289.258h-1.091v1.091h1.091v-1.091ZM154.757 289.258h-1.091v1.091h1.091v-1.091ZM158.031 289.258h-1.092v1.091h1.092v-1.091Z"></path><path d="M159.121 289.258h-1.091v1.091h1.091v-1.091ZM160.213 289.258h-1.091v1.091h1.091v-1.091ZM162.395 289.258h-1.091v1.091h1.091v-1.091ZM166.76 289.258h-1.092v1.091h1.092v-1.091ZM167.851 289.258h-1.091v1.091h1.091v-1.091ZM168.942 289.258h-1.091v1.091h1.091v-1.091ZM153.666 290.349h-1.091v1.091h1.091v-1.091ZM154.757 290.349h-1.091v1.091h1.091v-1.091ZM156.939 290.349h-1.091v1.091h1.091v-1.091ZM158.031 290.349h-1.092v1.091h1.092v-1.091ZM161.304 290.349h-1.091v1.091h1.091v-1.091ZM162.395 290.349h-1.091v1.091h1.091v-1.091ZM164.578 290.349h-1.092v1.091h1.092v-1.091ZM166.76 290.349h-1.092v1.091h1.092v-1.091ZM168.942 290.349h-1.091v1.091h1.091v-1.091Z"></path><path d="M170.033 290.349h-1.091v1.091h1.091v-1.091ZM171.124 290.349h-1.091v1.091h1.091v-1.091ZM153.666 291.44h-1.091v1.091h1.091v-1.091ZM155.848 291.44h-1.091v1.091h1.091v-1.091ZM158.031 291.44h-1.092v1.092h1.092v-1.092ZM160.213 291.44h-1.091v1.092h1.091v-1.092ZM161.304 291.44h-1.091v1.091h1.091v-1.091ZM162.395 291.44h-1.091v1.092h1.091v-1.092ZM166.76 291.44h-1.092v1.091h1.092v-1.091ZM170.033 291.44h-1.091v1.091h1.091v-1.091ZM171.124 291.44h-1.091v1.091h1.091v-1.091ZM154.757 292.532h-1.091v1.091h1.091v-1.091ZM155.848 292.531h-1.091v1.092h1.091v-1.092Z"></path><path d="M156.939 292.531h-1.091v1.092h1.091v-1.092ZM158.031 292.532h-1.092v1.091h1.092v-1.091Z"></path><path d="M159.121 292.531h-1.091v1.092h1.091v-1.092ZM162.395 292.532h-1.091v1.091h1.091v-1.091Z"></path><path d="M163.486 292.532h-1.091v1.091h1.091v-1.091ZM164.578 292.531h-1.092v1.092h1.092v-1.092Z"></path><path d="M165.668 292.532h-1.091v1.091h1.091v-1.091Z"></path><path d="M166.76 292.531h-1.092v1.092h1.092v-1.092ZM168.942 292.531h-1.091v1.092h1.091v-1.092ZM171.124 292.531h-1.091v1.092h1.091v-1.092ZM153.666 293.623h-1.091v1.091h1.091v-1.091ZM158.031 293.623h-1.092v1.091h1.092v-1.091Z"></path><path d="M159.121 293.623h-1.091v1.091h1.091v-1.091ZM161.304 293.623h-1.091v1.091h1.091v-1.091ZM162.395 293.623h-1.091v1.091h1.091v-1.091Z"></path><path d="M163.486 293.623h-1.091v1.091h1.091v-1.091ZM166.76 293.623h-1.092v1.091h1.092v-1.091ZM170.033 293.623h-1.091v1.091h1.091v-1.091ZM171.124 293.623h-1.091v1.091h1.091v-1.091ZM153.666 294.714h-1.091v1.091h1.091v-1.091ZM155.848 294.714h-1.091v1.091h1.091v-1.091Z"></path><path d="M156.939 294.714h-1.091v1.091h1.091v-1.091ZM158.031 294.714h-1.092v1.091h1.092v-1.091Z"></path><path d="M159.121 294.714h-1.091v1.091h1.091v-1.091ZM161.304 294.714h-1.091v1.091h1.091v-1.091ZM163.486 294.714h-1.091v1.091h1.091v-1.091ZM167.851 294.714h-1.091v1.091h1.091v-1.091ZM168.942 294.714h-1.091v1.091h1.091v-1.091Z"></path><path d="M170.033 294.714h-1.091v1.091h1.091v-1.091ZM154.757 295.805h-1.091v1.092h1.091v-1.092ZM161.304 295.805h-1.091v1.092h1.091v-1.092ZM162.395 295.805h-1.091v1.092h1.091v-1.092Z"></path><path d="M163.486 295.805h-1.091v1.092h1.091v-1.092ZM166.76 295.805h-1.092v1.092h1.092v-1.092ZM168.942 295.805h-1.091v1.092h1.091v-1.092Z"></path><path d="M170.033 295.805h-1.091v1.092h1.091v-1.092ZM171.124 295.805h-1.091v1.092h1.091v-1.092ZM153.666 296.896h-1.091v1.092h1.091v-1.092ZM158.031 296.896h-1.092v1.092h1.092v-1.092ZM160.213 296.896h-1.091v1.092h1.091v-1.092ZM161.304 296.896h-1.091v1.092h1.091v-1.092ZM162.395 296.896h-1.091v1.092h1.091v-1.092Z"></path><path d="M168.942 296.896h-1.091v1.092h1.091v-1.092Z"></path><path d="M170.033 296.896h-1.091v1.092h1.091v-1.092ZM171.124 296.896h-1.091v1.092h1.091v-1.092Z"></path><path fill-rule="evenodd" d="M143.846 270.707h7.638v7.639h-7.638v-7.639Zm1.091 1.091h5.456v5.457h-5.456v-5.457ZM163.486 270.707h7.639v7.639h-7.639v-7.639Zm1.092 1.091h5.456v5.457h-5.456v-5.457Z" clip-rule="evenodd"></path><path d="M149.301 272.89h-3.273v3.273h3.273v-3.273ZM168.942 272.89h-3.274v3.273h3.274v-3.273Z"></path><path fill-rule="evenodd" d="M143.846 290.349h7.638v7.639h-7.638v-7.639Zm1.091 1.091h5.456v5.456h-5.456v-5.456Z" clip-rule="evenodd"></path><path d="M149.301 292.531h-3.273v3.274h3.273v-3.274Z"></path></g></g><defs><clipPath id="b"><path fill="#fff" d="M38.422 285.093h58.312v-58.312H38.422z"></path></clipPath><clipPath id="c"><path fill="#fff" d="M139.481 266.342h36.01v36.01h-36.01z"></path></clipPath><clipPath id="d"><path fill="#fff" d="M139.481 266.342h36.01v36.01h-36.01z"></path></clipPath><filter id="a" width="133.573" height="328.161" x="99.113" y="2.821" color-interpolation-filters="sRGB" filterUnits="userSpaceOnUse"><feFlood flood-opacity="0" result="BackgroundImageFix"></feFlood><feGaussianBlur in="BackgroundImageFix" stdDeviation="2.25"></feGaussianBlur><feComposite in2="SourceAlpha" operator="in" result="effect1_backgroundBlur_1972_25234"></feComposite><feBlend in="SourceGraphic" in2="effect1_backgroundBlur_1972_25234" result="shape"></feBlend></filter></defs></svg>