<svg xmlns="http://www.w3.org/2000/svg" width="18" height="18" fill="none" color="#242424" viewBox="0 0 19 20"><path d="M6.45.67h-1.56v1.56h1.56V.67ZM8.89.67h-1.56v1.56h1.56V.67ZM11.33.67h-1.56v1.56h1.56V.67ZM13.78.67h-1.56v1.56h1.56V.67ZM4,3.11h-1.56v1.56h1.56v-1.56ZM6.45,3.11h-1.56v1.56h1.56v-1.56ZM8.89,3.11h-1.56v1.56h1.56v-1.56ZM11.33,3.11h-1.56v1.56h1.56v-1.56ZM13.78,3.11h-1.56v1.56h1.56v-1.56ZM16.22,3.11h-1.56v1.56h1.56v-1.56ZM1.56,5.55H0v1.56h1.56v-1.56ZM4,5.55h-1.56v1.56h1.56v-1.56ZM6.45,5.55h-1.56v1.56h1.56v-1.56ZM8.89,5.55h-1.56v1.56h1.56v-1.56ZM11.33,5.55h-1.56v1.56h1.56v-1.56ZM18.67,5.55h-1.56v1.56h1.56v-1.56ZM1.56,8H0v1.56h1.56v-1.56ZM4,8h-1.56v1.56h1.56v-1.56ZM6.45,8h-1.56v1.56h1.56v-1.56ZM8.89,8h-1.56v1.56h1.56v-1.56ZM18.67,8h-1.56v1.56h1.56v-1.56ZM1.56,10.44H0v1.56h1.56v-1.56ZM4,10.44h-1.56v1.56h1.56v-1.56ZM6.45,10.44h-1.56v1.56h1.56v-1.56ZM18.67,10.44h-1.56v1.56h1.56v-1.56ZM1.56,12.89H0v1.56h1.56v-1.56ZM4,12.89h-1.56v1.56h1.56v-1.56ZM18.67,12.89h-1.56v1.56h1.56v-1.56ZM1.56,15.33H0v1.56h1.56v-1.56ZM4,15.33h-1.56v1.56h1.56v-1.56ZM18.67,15.33h-1.56v1.56h1.56v-1.56ZM1.56,17.77H0v1.56h1.56v-1.56ZM4,17.77h-1.56v1.56h1.56v-1.56ZM6.45,17.77h-1.56v1.56h1.56v-1.56ZM8.89,17.77h-1.56v1.56h1.56v-1.56ZM11.33,17.77h-1.56v1.56h1.56v-1.56ZM13.78,17.77h-1.56v1.56h1.56v-1.56ZM16.22,17.77h-1.56v1.56h1.56v-1.56ZM18.67,17.77h-1.56v1.56h1.56v-1.56Z" fill="currentColor"></path></svg>